<svg xmlns="http://www.w3.org/2000/svg" width="800" height="892">
<rect width="100%" height="100%" fill="#0d1117"/>
<rect x="24" y="24" width="752.0" height="752.0" fill="#161b22" stroke="#8b949e"/>
<style>text{font-family:monospace;fill:#c9d1d9}</style>
<circle cx="400.0" cy="400.0" r="18.8" fill="none" stroke="#f0f6fc" stroke-opacity="0.45" stroke-dasharray="3 3"/>
<line x1="400.0" y1="400.0" x2="212.0" y2="362.4" stroke="#8b949e" stroke-width="1.2" stroke-dasharray="5 4"/>
<line x1="353.0" y1="362.4" x2="353.0" y2="324.8" stroke="#8b949e" stroke-width="1.2" stroke-dasharray="5 4"/>
<line x1="127.4" y1="324.8" x2="127.4" y2="287.2" stroke="#8b949e" stroke-width="1.2" stroke-dasharray="5 4"/>
<line x1="353.0" y1="287.2" x2="353.0" y2="249.6" stroke="#8b949e" stroke-width="1.2" stroke-dasharray="5 4"/>
<line x1="127.4" y1="249.6" x2="127.4" y2="212.0" stroke="#8b949e" stroke-width="1.2" stroke-dasharray="5 4"/>
<line x1="353.0" y1="212.0" x2="353.0" y2="174.4" stroke="#8b949e" stroke-width="1.2" stroke-dasharray="5 4"/>
<line x1="682.0" y1="174.4" x2="682.0" y2="136.8" stroke="#8b949e" stroke-width="1.2" stroke-dasharray="5 4"/>
<line x1="353.0" y1="136.8" x2="353.0" y2="99.2" stroke="#8b949e" stroke-width="1.2" stroke-dasharray="5 4"/>
<line x1="578.6" y1="99.2" x2="578.6" y2="61.6" stroke="#8b949e" stroke-width="1.2" stroke-dasharray="5 4"/>
<line x1="437.6" y1="61.6" x2="400.0" y2="400.0" stroke="#8b949e" stroke-width="1.2" stroke-dasharray="5 4"/>
<line x1="400.0" y1="400.0" x2="588.0" y2="437.6" stroke="#8b949e" stroke-width="1.2" stroke-dasharray="5 4"/>
<line x1="447.0" y1="437.6" x2="447.0" y2="475.2" stroke="#8b949e" stroke-width="1.2" stroke-dasharray="5 4"/>
<line x1="672.6" y1="475.2" x2="672.6" y2="512.8" stroke="#8b949e" stroke-width="1.2" stroke-dasharray="5 4"/>
<line x1="447.0" y1="512.8" x2="447.0" y2="550.4" stroke="#8b949e" stroke-width="1.2" stroke-dasharray="5 4"/>
<line x1="672.6" y1="550.4" x2="672.6" y2="588.0" stroke="#8b949e" stroke-width="1.2" stroke-dasharray="5 4"/>
<line x1="447.0" y1="588.0" x2="447.0" y2="625.6" stroke="#8b949e" stroke-width="1.2" stroke-dasharray="5 4"/>
<line x1="118.0" y1="625.6" x2="118.0" y2="663.2" stroke="#8b949e" stroke-width="1.2" stroke-dasharray="5 4"/>
<line x1="447.0" y1="663.2" x2="447.0" y2="700.8" stroke="#8b949e" stroke-width="1.2" stroke-dasharray="5 4"/>
<line x1="221.4" y1="700.8" x2="221.4" y2="738.4" stroke="#8b949e" stroke-width="1.2" stroke-dasharray="5 4"/>
<line x1="362.4" y1="738.4" x2="400.0" y2="400.0" stroke="#8b949e" stroke-width="1.2" stroke-dasharray="5 4"/>
<polygon points="193.2,381.2 371.8,381.2 371.8,343.6 193.2,343.6" fill="#58a6ff" fill-opacity="0.12" stroke="#58a6ff" stroke-opacity="0.45" stroke-dasharray="5 3"/>
<polygon points="202.6,371.8 362.4,371.8 362.4,353.0 202.6,353.0" fill="#58a6ff" fill-opacity="0.32" stroke="#58a6ff" stroke-width="1.3"/>
<polyline points="212.0,362.4 353.0,362.4" fill="none" stroke="#58a6ff" stroke-width="2.7"/>
<circle cx="212.0" cy="362.4" r="3" fill="#f0f6fc"/>
<circle cx="353.0" cy="362.4" r="4" fill="#58a6ff" stroke="#f0f6fc"/>
<text x="216.0" y="358.4" font-size="10">H1/p3</text>
<polygon points="202.6,371.8 362.4,371.8 362.4,353.0 202.6,353.0" fill="none" stroke="#ff2d7a" stroke-width="2.5"/>
<polygon points="372.7,305.1 107.7,305.1 107.7,344.5 372.7,344.5" fill="#56d364" fill-opacity="0.12" stroke="#56d364" stroke-opacity="0.45" stroke-dasharray="5 3"/>
<polygon points="363.3,314.5 117.1,314.5 117.1,335.1 363.3,335.1" fill="#56d364" fill-opacity="0.32" stroke="#56d364" stroke-width="1.3"/>
<polyline points="353.0,324.8 127.4,324.8" fill="none" stroke="#56d364" stroke-width="2.7"/>
<circle cx="353.0" cy="324.8" r="3" fill="#f0f6fc"/>
<circle cx="127.4" cy="324.8" r="4" fill="#56d364" stroke="#f0f6fc"/>
<text x="357.0" y="320.8" font-size="10">H2/p4</text>
<polygon points="363.3,314.5 117.1,314.5 117.1,335.1 363.3,335.1" fill="none" stroke="#ff2d7a" stroke-width="2.5"/>
<polygon points="107.7,306.9 372.7,306.9 372.7,267.5 107.7,267.5" fill="#56d364" fill-opacity="0.12" stroke="#56d364" stroke-opacity="0.45" stroke-dasharray="5 3"/>
<polygon points="117.1,297.5 363.3,297.5 363.3,276.9 117.1,276.9" fill="#56d364" fill-opacity="0.32" stroke="#56d364" stroke-width="1.3"/>
<polyline points="127.4,287.2 353.0,287.2" fill="none" stroke="#56d364" stroke-width="2.7"/>
<circle cx="127.4" cy="287.2" r="3" fill="#f0f6fc"/>
<circle cx="353.0" cy="287.2" r="4" fill="#56d364" stroke="#f0f6fc"/>
<text x="131.4" y="283.2" font-size="10">H3/p4</text>
<polygon points="117.1,297.5 363.3,297.5 363.3,276.9 117.1,276.9" fill="none" stroke="#ff2d7a" stroke-width="2.5"/>
<polygon points="372.7,229.9 107.7,229.9 107.7,269.3 372.7,269.3" fill="#56d364" fill-opacity="0.12" stroke="#56d364" stroke-opacity="0.45" stroke-dasharray="5 3"/>
<polygon points="363.3,239.3 117.1,239.3 117.1,259.9 363.3,259.9" fill="#56d364" fill-opacity="0.32" stroke="#56d364" stroke-width="1.3"/>
<polyline points="353.0,249.6 127.4,249.6" fill="none" stroke="#56d364" stroke-width="2.7"/>
<circle cx="353.0" cy="249.6" r="3" fill="#f0f6fc"/>
<circle cx="127.4" cy="249.6" r="4" fill="#56d364" stroke="#f0f6fc"/>
<text x="357.0" y="245.6" font-size="10">H4/p4</text>
<polygon points="363.3,239.3 117.1,239.3 117.1,259.9 363.3,259.9" fill="none" stroke="#ff2d7a" stroke-width="2.5"/>
<polygon points="107.7,231.7 372.7,231.7 372.7,192.3 107.7,192.3" fill="#56d364" fill-opacity="0.12" stroke="#56d364" stroke-opacity="0.45" stroke-dasharray="5 3"/>
<polygon points="117.1,222.3 363.3,222.3 363.3,201.7 117.1,201.7" fill="#56d364" fill-opacity="0.32" stroke="#56d364" stroke-width="1.3"/>
<polyline points="127.4,212.0 353.0,212.0" fill="none" stroke="#56d364" stroke-width="2.7"/>
<circle cx="127.4" cy="212.0" r="3" fill="#f0f6fc"/>
<circle cx="353.0" cy="212.0" r="4" fill="#56d364" stroke="#f0f6fc"/>
<text x="131.4" y="208.0" font-size="10">H5/p4</text>
<polygon points="117.1,222.3 363.3,222.3 363.3,201.7 117.1,201.7" fill="none" stroke="#ff2d7a" stroke-width="2.5"/>
<polygon points="332.3,195.1 702.7,195.1 702.7,153.7 332.3,153.7" fill="#f2cc60" fill-opacity="0.12" stroke="#f2cc60" stroke-opacity="0.45" stroke-dasharray="5 3"/>
<polygon points="341.7,185.7 693.3,185.7 693.3,163.1 341.7,163.1" fill="#f2cc60" fill-opacity="0.32" stroke="#f2cc60" stroke-width="1.3"/>
<polyline points="353.0,174.4 682.0,174.4" fill="none" stroke="#f2cc60" stroke-width="2.7"/>
<circle cx="353.0" cy="174.4" r="3" fill="#f0f6fc"/>
<circle cx="682.0" cy="174.4" r="4" fill="#f2cc60" stroke="#f0f6fc"/>
<text x="357.0" y="170.4" font-size="10">H6/p5</text>
<polygon points="341.7,185.7 693.3,185.7 693.3,163.1 341.7,163.1" fill="none" stroke="#ff2d7a" stroke-width="2.5"/>
<polygon points="702.7,116.1 332.3,116.1 332.3,157.5 702.7,157.5" fill="#f2cc60" fill-opacity="0.12" stroke="#f2cc60" stroke-opacity="0.45" stroke-dasharray="5 3"/>
<polygon points="693.3,125.5 341.7,125.5 341.7,148.1 693.3,148.1" fill="#f2cc60" fill-opacity="0.32" stroke="#f2cc60" stroke-width="1.3"/>
<polyline points="682.0,136.8 353.0,136.8" fill="none" stroke="#f2cc60" stroke-width="2.7"/>
<circle cx="682.0" cy="136.8" r="3" fill="#f0f6fc"/>
<circle cx="353.0" cy="136.8" r="4" fill="#f2cc60" stroke="#f0f6fc"/>
<text x="686.0" y="132.8" font-size="10">H7/p5</text>
<polygon points="693.3,125.5 341.7,125.5 341.7,148.1 693.3,148.1" fill="none" stroke="#ff2d7a" stroke-width="2.5"/>
<polygon points="333.3,118.9 598.3,118.9 598.3,79.5 333.3,79.5" fill="#56d364" fill-opacity="0.12" stroke="#56d364" stroke-opacity="0.45" stroke-dasharray="5 3"/>
<polygon points="342.7,109.5 588.9,109.5 588.9,88.9 342.7,88.9" fill="#56d364" fill-opacity="0.32" stroke="#56d364" stroke-width="1.3"/>
<polyline points="353.0,99.2 578.6,99.2" fill="none" stroke="#56d364" stroke-width="2.7"/>
<circle cx="353.0" cy="99.2" r="3" fill="#f0f6fc"/>
<circle cx="578.6" cy="99.2" r="4" fill="#56d364" stroke="#f0f6fc"/>
<text x="357.0" y="95.2" font-size="10">H8/p4</text>
<polygon points="342.7,109.5 588.9,109.5 588.9,88.9 342.7,88.9" fill="none" stroke="#ff2d7a" stroke-width="2.5"/>
<polygon points="597.4,42.8 418.8,42.8 418.8,80.4 597.4,80.4" fill="#58a6ff" fill-opacity="0.12" stroke="#58a6ff" stroke-opacity="0.45" stroke-dasharray="5 3"/>
<polygon points="588.0,52.2 428.2,52.2 428.2,71.0 588.0,71.0" fill="#58a6ff" fill-opacity="0.32" stroke="#58a6ff" stroke-width="1.3"/>
<polyline points="578.6,61.6 437.6,61.6" fill="none" stroke="#58a6ff" stroke-width="2.7"/>
<circle cx="578.6" cy="61.6" r="3" fill="#f0f6fc"/>
<circle cx="437.6" cy="61.6" r="4" fill="#58a6ff" stroke="#f0f6fc"/>
<text x="582.6" y="57.6" font-size="10">H9/p3</text>
<polygon points="588.0,52.2 428.2,52.2 428.2,71.0 588.0,71.0" fill="none" stroke="#ff2d7a" stroke-width="2.5"/>
<polygon points="606.8,418.8 428.2,418.8 428.2,456.4 606.8,456.4" fill="#58a6ff" fill-opacity="0.12" stroke="#58a6ff" stroke-opacity="0.45" stroke-dasharray="5 3"/>
<polygon points="597.4,428.2 437.6,428.2 437.6,447.0 597.4,447.0" fill="#58a6ff" fill-opacity="0.32" stroke="#58a6ff" stroke-width="1.3"/>
<polyline points="588.0,437.6 447.0,437.6" fill="none" stroke="#58a6ff" stroke-width="2.7"/>
<circle cx="588.0" cy="437.6" r="3" fill="#f0f6fc"/>
<circle cx="447.0" cy="437.6" r="4" fill="#58a6ff" stroke="#f0f6fc"/>
<text x="592.0" y="433.6" font-size="10">H10/p3</text>
<polygon points="597.4,428.2 437.6,428.2 437.6,447.0 597.4,447.0" fill="none" stroke="#ff2d7a" stroke-width="2.5"/>
<polygon points="427.3,494.9 692.3,494.9 692.3,455.5 427.3,455.5" fill="#56d364" fill-opacity="0.12" stroke="#56d364" stroke-opacity="0.45" stroke-dasharray="5 3"/>
<polygon points="436.7,485.5 682.9,485.5 682.9,464.9 436.7,464.9" fill="#56d364" fill-opacity="0.32" stroke="#56d364" stroke-width="1.3"/>
<polyline points="447.0,475.2 672.6,475.2" fill="none" stroke="#56d364" stroke-width="2.7"/>
<circle cx="447.0" cy="475.2" r="3" fill="#f0f6fc"/>
<circle cx="672.6" cy="475.2" r="4" fill="#56d364" stroke="#f0f6fc"/>
<text x="451.0" y="471.2" font-size="10">H11/p4</text>
<polygon points="436.7,485.5 682.9,485.5 682.9,464.9 436.7,464.9" fill="none" stroke="#ff2d7a" stroke-width="2.5"/>
<polygon points="692.3,493.1 427.3,493.1 427.3,532.5 692.3,532.5" fill="#56d364" fill-opacity="0.12" stroke="#56d364" stroke-opacity="0.45" stroke-dasharray="5 3"/>
<polygon points="682.9,502.5 436.7,502.5 436.7,523.1 682.9,523.1" fill="#56d364" fill-opacity="0.32" stroke="#56d364" stroke-width="1.3"/>
<polyline points="672.6,512.8 447.0,512.8" fill="none" stroke="#56d364" stroke-width="2.7"/>
<circle cx="672.6" cy="512.8" r="3" fill="#f0f6fc"/>
<circle cx="447.0" cy="512.8" r="4" fill="#56d364" stroke="#f0f6fc"/>
<text x="676.6" y="508.8" font-size="10">H12/p4</text>
<polygon points="682.9,502.5 436.7,502.5 436.7,523.1 682.9,523.1" fill="none" stroke="#ff2d7a" stroke-width="2.5"/>
<polygon points="427.3,570.1 692.3,570.1 692.3,530.7 427.3,530.7" fill="#56d364" fill-opacity="0.12" stroke="#56d364" stroke-opacity="0.45" stroke-dasharray="5 3"/>
<polygon points="436.7,560.7 682.9,560.7 682.9,540.1 436.7,540.1" fill="#56d364" fill-opacity="0.32" stroke="#56d364" stroke-width="1.3"/>
<polyline points="447.0,550.4 672.6,550.4" fill="none" stroke="#56d364" stroke-width="2.7"/>
<circle cx="447.0" cy="550.4" r="3" fill="#f0f6fc"/>
<circle cx="672.6" cy="550.4" r="4" fill="#56d364" stroke="#f0f6fc"/>
<text x="451.0" y="546.4" font-size="10">H13/p4</text>
<polygon points="436.7,560.7 682.9,560.7 682.9,540.1 436.7,540.1" fill="none" stroke="#ff2d7a" stroke-width="2.5"/>
<polygon points="692.3,568.3 427.3,568.3 427.3,607.7 692.3,607.7" fill="#56d364" fill-opacity="0.12" stroke="#56d364" stroke-opacity="0.45" stroke-dasharray="5 3"/>
<polygon points="682.9,577.7 436.7,577.7 436.7,598.3 682.9,598.3" fill="#56d364" fill-opacity="0.32" stroke="#56d364" stroke-width="1.3"/>
<polyline points="672.6,588.0 447.0,588.0" fill="none" stroke="#56d364" stroke-width="2.7"/>
<circle cx="672.6" cy="588.0" r="3" fill="#f0f6fc"/>
<circle cx="447.0" cy="588.0" r="4" fill="#56d364" stroke="#f0f6fc"/>
<text x="676.6" y="584.0" font-size="10">H14/p4</text>
<polygon points="682.9,577.7 436.7,577.7 436.7,598.3 682.9,598.3" fill="none" stroke="#ff2d7a" stroke-width="2.5"/>
<polygon points="467.7,604.9 97.3,604.9 97.3,646.3 467.7,646.3" fill="#f2cc60" fill-opacity="0.12" stroke="#f2cc60" stroke-opacity="0.45" stroke-dasharray="5 3"/>
<polygon points="458.3,614.3 106.7,614.3 106.7,636.9 458.3,636.9" fill="#f2cc60" fill-opacity="0.32" stroke="#f2cc60" stroke-width="1.3"/>
<polyline points="447.0,625.6 118.0,625.6" fill="none" stroke="#f2cc60" stroke-width="2.7"/>
<circle cx="447.0" cy="625.6" r="3" fill="#f0f6fc"/>
<circle cx="118.0" cy="625.6" r="4" fill="#f2cc60" stroke="#f0f6fc"/>
<text x="451.0" y="621.6" font-size="10">H15/p5</text>
<polygon points="458.3,614.3 106.7,614.3 106.7,636.9 458.3,636.9" fill="none" stroke="#ff2d7a" stroke-width="2.5"/>
<polygon points="97.3,683.9 467.7,683.9 467.7,642.5 97.3,642.5" fill="#f2cc60" fill-opacity="0.12" stroke="#f2cc60" stroke-opacity="0.45" stroke-dasharray="5 3"/>
<polygon points="106.7,674.5 458.3,674.5 458.3,651.9 106.7,651.9" fill="#f2cc60" fill-opacity="0.32" stroke="#f2cc60" stroke-width="1.3"/>
<polyline points="118.0,663.2 447.0,663.2" fill="none" stroke="#f2cc60" stroke-width="2.7"/>
<circle cx="118.0" cy="663.2" r="3" fill="#f0f6fc"/>
<circle cx="447.0" cy="663.2" r="4" fill="#f2cc60" stroke="#f0f6fc"/>
<text x="122.0" y="659.2" font-size="10">H16/p5</text>
<polygon points="106.7,674.5 458.3,674.5 458.3,651.9 106.7,651.9" fill="none" stroke="#ff2d7a" stroke-width="2.5"/>
<polygon points="466.7,681.1 201.7,681.1 201.7,720.5 466.7,720.5" fill="#56d364" fill-opacity="0.12" stroke="#56d364" stroke-opacity="0.45" stroke-dasharray="5 3"/>
<polygon points="457.3,690.5 211.1,690.5 211.1,711.1 457.3,711.1" fill="#56d364" fill-opacity="0.32" stroke="#56d364" stroke-width="1.3"/>
<polyline points="447.0,700.8 221.4,700.8" fill="none" stroke="#56d364" stroke-width="2.7"/>
<circle cx="447.0" cy="700.8" r="3" fill="#f0f6fc"/>
<circle cx="221.4" cy="700.8" r="4" fill="#56d364" stroke="#f0f6fc"/>
<text x="451.0" y="696.8" font-size="10">H17/p4</text>
<polygon points="457.3,690.5 211.1,690.5 211.1,711.1 457.3,711.1" fill="none" stroke="#ff2d7a" stroke-width="2.5"/>
<polygon points="202.6,757.2 381.2,757.2 381.2,719.6 202.6,719.6" fill="#58a6ff" fill-opacity="0.12" stroke="#58a6ff" stroke-opacity="0.45" stroke-dasharray="5 3"/>
<polygon points="212.0,747.8 371.8,747.8 371.8,729.0 212.0,729.0" fill="#58a6ff" fill-opacity="0.32" stroke="#58a6ff" stroke-width="1.3"/>
<polyline points="221.4,738.4 362.4,738.4" fill="none" stroke="#58a6ff" stroke-width="2.7"/>
<circle cx="221.4" cy="738.4" r="3" fill="#f0f6fc"/>
<circle cx="362.4" cy="738.4" r="4" fill="#58a6ff" stroke="#f0f6fc"/>
<text x="225.4" y="734.4" font-size="10">H18/p3</text>
<polygon points="212.0,747.8 371.8,747.8 371.8,729.0 212.0,729.0" fill="none" stroke="#ff2d7a" stroke-width="2.5"/>
<circle cx="400.0" cy="400.0" r="5" fill="#f0f6fc" stroke="#8b949e"/>
<text x="24" y="830" font-size="14">INVALIDE · seed 0 · violations 14</text>
<text x="24" y="852" font-size="10">parallel_stack:4, link_distance:4, link_blocked:6</text>
<text x="24" y="872" font-size="10">bleu=par3 · vert=par4 · jaune=par5 · rose=trou en violation</text>
</svg>
