<svg xmlns="http://www.w3.org/2000/svg" width="800" height="900">
<rect width="100%" height="100%" fill="#0d1117"/>
<rect x="24" y="24" width="752.0" height="752.0" fill="#161b22" stroke="#8b949e"/>
<style>text{font-family:monospace;fill:#c9d1d9}</style>
<line x1="-1104.0" y1="400.0" x2="1904.0" y2="400.0" stroke="#f778ba" stroke-opacity="0.22" stroke-width="1.6" stroke-dasharray="0"/>
<line x1="-1104.0" y1="437.6" x2="1904.0" y2="437.6" stroke="#f778ba" stroke-opacity="0.12" stroke-width="1.6" stroke-dasharray="4 6"/>
<line x1="-1104.0" y1="362.4" x2="1904.0" y2="362.4" stroke="#f778ba" stroke-opacity="0.12" stroke-width="1.6" stroke-dasharray="4 6"/>
<circle cx="400.0" cy="400.0" r="4" fill="#f0f6fc"/>
<circle cx="400.0" cy="400.0" r="18.8" fill="none" stroke="#f0f6fc" stroke-opacity="0.45" stroke-width="1.2" stroke-dasharray="3 3"/>
<circle cx="400.0" cy="400.0" r="47.0" fill="none" stroke="#ff2d7a" stroke-opacity="0.55" stroke-width="1.6" stroke-dasharray="2 4"/>
<line x1="478.2" y1="601.7" x2="508.2" y2="653.8" stroke="#8b949e" stroke-dasharray="5 4"/>
<line x1="677.0" y1="485.6" x2="716.1" y2="508.2" stroke="#8b949e" stroke-dasharray="5 4"/>
<line x1="573.6" y1="699.1" x2="633.8" y2="699.1" stroke="#8b949e" stroke-dasharray="5 4"/>
<line x1="720.0" y1="549.7" x2="720.0" y2="474.5" stroke="#8b949e" stroke-dasharray="5 4"/>
<line x1="685.4" y1="220.7" x2="723.0" y2="155.6" stroke="#8b949e" stroke-dasharray="5 4"/>
<line x1="578.1" y1="139.4" x2="548.1" y2="191.5" stroke="#8b949e" stroke-dasharray="5 4"/>
<line x1="668.4" y1="428.7" x2="629.3" y2="451.3" stroke="#8b949e" stroke-dasharray="5 4"/>
<line x1="419.9" y1="204.1" x2="419.9" y2="128.9" stroke="#8b949e" stroke-dasharray="5 4"/>
<polygon points="458.9,425.8 458.9,620.9 497.4,620.9 497.4,425.8" fill="#58a6ff" fill-opacity="0.12" stroke="#58a6ff" stroke-opacity="0.50" stroke-dasharray="0"/>
<polygon points="468.3,435.2 468.3,611.5 488.0,611.5 488.0,435.2" fill="#58a6ff" fill-opacity="0.32" stroke="#58a6ff" stroke-opacity="1.0" stroke-width="1.4" stroke-dasharray="0"/>
<polyline points="478.2,445.1 478.2,601.7" fill="none" stroke="#58a6ff" stroke-opacity="1.0" stroke-width="2.7"/>
<circle cx="478.2" cy="445.1" r="3" fill="#f0f6fc"/>
<circle cx="478.2" cy="601.7" r="4" fill="#58a6ff" stroke="#f0f6fc"/>
<text x="482.2" y="441.1" font-size="10">F1/p3</text>
<polygon points="479.5,661.5 555.9,529.2 685.1,457.0 705.6,493.7 586.5,560.3 515.9,682.5" fill="#56d364" fill-opacity="0.12" stroke="#56d364" stroke-opacity="0.50" stroke-dasharray="0"/>
<polygon points="492.3,658.0 562.7,536.1 681.5,469.8 692.9,490.1 579.7,553.3 512.5,669.7" fill="#56d364" fill-opacity="0.32" stroke="#56d364" stroke-opacity="1.0" stroke-width="1.4" stroke-dasharray="0"/>
<polyline points="508.2,653.8 571.2,544.7 677.0,485.6" fill="none" stroke="#56d364" stroke-opacity="1.0" stroke-width="2.7"/>
<circle cx="508.2" cy="653.8" r="3" fill="#f0f6fc"/>
<circle cx="677.0" cy="485.6" r="4" fill="#56d364" stroke="#f0f6fc"/>
<text x="512.2" y="649.8" font-size="10">F2/p4</text>
<polygon points="746.1,516.2 655.6,568.5 614.6,624.0 589.7,725.7 547.0,715.2 574.0,605.0 625.7,535.0 724.1,478.2" fill="#56d364" fill-opacity="0.12" stroke="#56d364" stroke-opacity="0.50" stroke-dasharray="0"/>
<polygon points="733.3,512.8 649.2,561.3 605.9,619.9 582.8,714.3 558.4,708.3 582.7,609.1 632.1,542.1 720.7,491.0" fill="#56d364" fill-opacity="0.32" stroke="#56d364" stroke-opacity="1.0" stroke-width="1.4" stroke-dasharray="0"/>
<polyline points="716.1,508.2 640.7,551.7 594.3,614.5 573.6,699.1" fill="none" stroke="#56d364" stroke-opacity="1.0" stroke-width="2.7"/>
<circle cx="716.1" cy="508.2" r="3" fill="#f0f6fc"/>
<circle cx="573.6" cy="699.1" r="4" fill="#56d364" stroke="#f0f6fc"/>
<text x="720.1" y="504.2" font-size="10">F3/p4</text>
<polygon points="640.8,725.4 746.3,542.7 713.0,523.4 607.5,706.1" fill="#58a6ff" fill-opacity="0.12" stroke="#58a6ff" stroke-opacity="0.50" stroke-dasharray="0"/>
<polygon points="637.4,712.5 733.4,546.1 716.4,536.3 620.3,702.7" fill="#58a6ff" fill-opacity="0.32" stroke="#58a6ff" stroke-opacity="1.0" stroke-width="1.4" stroke-dasharray="0"/>
<polyline points="633.8,699.1 720.0,549.7" fill="none" stroke="#58a6ff" stroke-opacity="1.0" stroke-width="2.7"/>
<circle cx="633.8" cy="699.1" r="3" fill="#f0f6fc"/>
<circle cx="720.0" cy="549.7" r="4" fill="#58a6ff" stroke="#f0f6fc"/>
<text x="637.8" y="695.1" font-size="10">F4/p3</text>
<polygon points="700.1,494.4 700.1,339.8 660.6,207.3 698.8,195.9 740.0,333.9 740.0,494.4" fill="#56d364" fill-opacity="0.12" stroke="#56d364" stroke-opacity="0.50" stroke-dasharray="0"/>
<polygon points="709.5,485.0 709.5,338.4 672.3,213.6 692.5,207.6 730.6,335.3 730.6,485.0" fill="#56d364" fill-opacity="0.32" stroke="#56d364" stroke-opacity="1.0" stroke-width="1.4" stroke-dasharray="0"/>
<polyline points="720.0,474.5 720.0,336.9 685.4,220.7" fill="none" stroke="#56d364" stroke-opacity="1.0" stroke-width="2.7"/>
<circle cx="720.0" cy="474.5" r="3" fill="#f0f6fc"/>
<circle cx="685.4" cy="220.7" r="4" fill="#56d364" stroke="#f0f6fc"/>
<text x="724.0" y="470.5" font-size="10">F5/p4</text>
<polygon points="744.7,133.9 650.2,133.9 562.0,113.5 552.2,155.6 645.2,177.2 744.7,177.2" fill="#58a6ff" fill-opacity="0.12" stroke="#58a6ff" stroke-opacity="0.50" stroke-dasharray="0"/>
<polygon points="735.3,143.3 649.1,143.3 569.0,124.7 563.4,148.6 646.3,167.8 735.3,167.8" fill="#58a6ff" fill-opacity="0.32" stroke="#58a6ff" stroke-opacity="1.0" stroke-width="1.4" stroke-dasharray="0"/>
<polyline points="723.0,155.6 647.7,155.6 578.1,139.4" fill="none" stroke="#58a6ff" stroke-opacity="1.0" stroke-width="2.7"/>
<circle cx="723.0" cy="155.6" r="3" fill="#f0f6fc"/>
<circle cx="578.1" cy="139.4" r="4" fill="#58a6ff" stroke="#f0f6fc"/>
<text x="727.0" y="151.6" font-size="10">F6/p3</text>
<polygon points="520.8,184.2 573.4,275.2 601.6,365.5 663.0,456.4 696.1,434.1 638.0,348.0 610.1,259.1 555.4,164.3" fill="#56d364" fill-opacity="0.12" stroke="#56d364" stroke-opacity="0.50" stroke-dasharray="0"/>
<polygon points="533.7,187.7 582.0,271.4 610.2,361.4 665.5,443.4 683.0,431.6 629.4,352.1 601.5,262.9 551.9,177.1" fill="#56d364" fill-opacity="0.32" stroke="#56d364" stroke-opacity="1.0" stroke-width="1.4" stroke-dasharray="0"/>
<polyline points="548.1,191.5 591.7,267.2 619.8,356.8 668.4,428.7" fill="none" stroke="#56d364" stroke-opacity="1.0" stroke-width="2.7"/>
<circle cx="548.1" cy="191.5" r="3" fill="#f0f6fc"/>
<circle cx="668.4" cy="428.7" r="4" fill="#56d364" stroke="#f0f6fc"/>
<text x="552.1" y="187.5" font-size="10">F7/p4</text>
<polygon points="658.8,459.2 593.5,346.0 500.0,279.3 424.9,173.9 389.7,199.0 469.0,310.4 560.7,375.8 621.4,480.9" fill="#f2cc60" fill-opacity="0.12" stroke="#f2cc60" stroke-opacity="0.50" stroke-dasharray="0"/>
<polygon points="646.0,455.8 586.4,352.5 493.3,286.1 422.7,187.0 402.8,201.2 475.7,303.6 567.8,369.3 624.8,468.0" fill="#f2cc60" fill-opacity="0.32" stroke="#f2cc60" stroke-opacity="1.0" stroke-width="1.4" stroke-dasharray="0"/>
<polyline points="629.3,451.3 577.1,360.9 484.5,294.8 419.9,204.1" fill="none" stroke="#f2cc60" stroke-opacity="1.0" stroke-width="2.7"/>
<circle cx="629.3" cy="451.3" r="3" fill="#f0f6fc"/>
<circle cx="419.9" cy="204.1" r="4" fill="#f2cc60" stroke="#f0f6fc"/>
<text x="633.3" y="447.3" font-size="10">F8/p5</text>
<polygon points="452.2,120.2 359.6,280.7 344.6,424.5 297.5,419.6 313.5,265.8 411.2,96.5" fill="#56d364" fill-opacity="0.12" stroke="#56d364" stroke-opacity="0.50" stroke-dasharray="0"/>
<polygon points="439.4,123.7 350.4,277.8 336.2,414.2 307.8,411.2 322.6,268.8 414.6,109.4" fill="#56d364" fill-opacity="0.32" stroke="#56d364" stroke-opacity="1.0" stroke-width="1.4" stroke-dasharray="0"/>
<polyline points="419.9,128.9 336.5,273.3 323.5,398.5" fill="none" stroke="#56d364" stroke-opacity="1.0" stroke-width="2.7"/>
<circle cx="419.9" cy="128.9" r="3" fill="#f0f6fc"/>
<circle cx="323.5" cy="398.5" r="4" fill="#56d364" stroke="#f0f6fc"/>
<text x="423.9" y="124.9" font-size="10">F9/p4</text>
<line x1="219.5" y1="232.6" x2="154.4" y2="195.0" stroke="#8b949e" stroke-dasharray="5 4"/>
<line x1="85.2" y1="411.2" x2="137.3" y2="381.2" stroke="#8b949e" stroke-dasharray="5 4"/>
<line x1="209.5" y1="703.1" x2="179.4" y2="755.2" stroke="#8b949e" stroke-dasharray="5 4"/>
<line x1="41.8" y1="541.4" x2="41.8" y2="496.2" stroke="#8b949e" stroke-dasharray="5 4"/>
<line x1="92.3" y1="130.8" x2="92.3" y2="55.6" stroke="#8b949e" stroke-dasharray="5 4"/>
<line x1="359.5" y1="55.6" x2="434.7" y2="55.6" stroke="#8b949e" stroke-dasharray="5 4"/>
<line x1="202.9" y1="187.1" x2="268.0" y2="224.7" stroke="#8b949e" stroke-dasharray="5 4"/>
<polygon points="242.6,423.1 242.6,209.5 196.4,209.5 196.4,423.1" fill="#58a6ff" fill-opacity="0.09" stroke="#58a6ff" stroke-opacity="0.36" stroke-dasharray="6 3"/>
<polygon points="233.2,413.7 233.2,218.9 205.8,218.9 205.8,413.7" fill="#58a6ff" fill-opacity="0.23" stroke="#58a6ff" stroke-opacity="0.72" stroke-width="1.4" stroke-dasharray="6 3"/>
<polyline points="219.5,400.0 219.5,232.6" fill="none" stroke="#58a6ff" stroke-opacity="0.72" stroke-width="2.7"/>
<circle cx="219.5" cy="400.0" r="3" fill="#f0f6fc"/>
<circle cx="219.5" cy="232.6" r="4" fill="#58a6ff" stroke="#f0f6fc"/>
<text x="223.5" y="396.0" font-size="10">B10/p3</text>
<polygon points="181.8,187.6 119.4,295.7 102.7,433.6 62.9,428.7 80.6,282.7 147.1,167.6" fill="#56d364" fill-opacity="0.09" stroke="#56d364" stroke-opacity="0.36" stroke-dasharray="6 3"/>
<polygon points="168.9,191.1 110.3,292.6 94.5,423.1 73.3,420.5 89.7,285.7 150.5,180.4" fill="#56d364" fill-opacity="0.23" stroke="#56d364" stroke-opacity="0.72" stroke-width="1.4" stroke-dasharray="6 3"/>
<polyline points="154.4,195.0 100.0,289.2 85.2,411.2" fill="none" stroke="#56d364" stroke-opacity="0.72" stroke-width="2.7"/>
<circle cx="154.4" cy="195.0" r="3" fill="#f0f6fc"/>
<circle cx="85.2" cy="411.2" r="4" fill="#56d364" stroke="#f0f6fc"/>
<text x="158.4" y="191.0" font-size="10">B11/p4</text>
<polygon points="162.9,355.5 162.9,542.8 243.6,715.5 197.1,737.2 111.6,554.2 111.6,355.5" fill="#f2cc60" fill-opacity="0.09" stroke="#f2cc60" stroke-opacity="0.36" stroke-dasharray="6 3"/>
<polygon points="153.5,364.9 153.5,544.9 231.1,711.0 201.7,724.7 121.0,552.1 121.0,364.9" fill="#f2cc60" fill-opacity="0.23" stroke="#f2cc60" stroke-opacity="0.72" stroke-width="1.4" stroke-dasharray="6 3"/>
<polyline points="137.3,381.2 137.3,548.5 209.5,703.1" fill="none" stroke="#f2cc60" stroke-opacity="0.72" stroke-width="2.7"/>
<circle cx="137.3" cy="381.2" r="3" fill="#f0f6fc"/>
<circle cx="209.5" cy="703.1" r="4" fill="#f2cc60" stroke="#f0f6fc"/>
<text x="141.3" y="377.2" font-size="10">B12/p5</text>
<polygon points="171.8,783.7 121.3,696.1 66.4,635.6 13.8,532.2 51.0,513.4 101.0,611.7 155.1,671.5 207.9,762.8" fill="#56d364" fill-opacity="0.09" stroke="#56d364" stroke-opacity="0.36" stroke-dasharray="6 3"/>
<polygon points="175.2,770.8 128.9,690.5 74.2,630.2 26.5,536.4 46.8,526.0 93.2,617.1 147.5,677.0 195.0,759.4" fill="#56d364" fill-opacity="0.23" stroke="#56d364" stroke-opacity="0.72" stroke-width="1.4" stroke-dasharray="6 3"/>
<polyline points="179.4,755.2 138.2,683.8 83.7,623.7 41.8,541.4" fill="none" stroke="#56d364" stroke-opacity="0.72" stroke-width="2.7"/>
<circle cx="179.4" cy="755.2" r="3" fill="#f0f6fc"/>
<circle cx="41.8" cy="541.4" r="4" fill="#56d364" stroke="#f0f6fc"/>
<text x="183.4" y="751.2" font-size="10">B13/p4</text>
<polygon points="16.7,521.4 16.7,319.1 74.4,100.1 122.9,112.9 67.0,325.6 67.0,521.4" fill="#f2cc60" fill-opacity="0.09" stroke="#f2cc60" stroke-opacity="0.36" stroke-dasharray="6 3"/>
<polygon points="26.1,512.0 26.1,320.3 81.1,111.6 111.5,119.6 57.6,324.4 57.6,512.0" fill="#f2cc60" fill-opacity="0.23" stroke="#f2cc60" stroke-opacity="0.72" stroke-width="1.4" stroke-dasharray="6 3"/>
<polyline points="41.8,496.2 41.8,322.3 92.3,130.8" fill="none" stroke="#f2cc60" stroke-opacity="0.72" stroke-width="2.7"/>
<circle cx="41.8" cy="496.2" r="3" fill="#f0f6fc"/>
<circle cx="92.3" cy="130.8" r="4" fill="#f2cc60" stroke="#f0f6fc"/>
<text x="45.8" y="492.2" font-size="10">B14/p5</text>
<polygon points="67.4,80.4 384.3,80.4 384.3,30.8 67.4,30.8" fill="#56d364" fill-opacity="0.09" stroke="#56d364" stroke-opacity="0.36" stroke-dasharray="6 3"/>
<polygon points="76.8,71.0 374.9,71.0 374.9,40.2 76.8,40.2" fill="#56d364" fill-opacity="0.23" stroke="#56d364" stroke-opacity="0.72" stroke-width="1.4" stroke-dasharray="6 3"/>
<polyline points="92.3,55.6 359.5,55.6" fill="none" stroke="#56d364" stroke-opacity="0.72" stroke-width="2.7"/>
<circle cx="92.3" cy="55.6" r="3" fill="#f0f6fc"/>
<circle cx="359.5" cy="55.6" r="4" fill="#56d364" stroke="#f0f6fc"/>
<text x="96.3" y="51.6" font-size="10">B15/p4</text>
<polygon points="442.3,27.2 338.3,87.3 279.3,142.6 177.0,173.1 188.9,212.9 300.6,179.6 363.2,120.9 463.1,63.2" fill="#56d364" fill-opacity="0.09" stroke="#56d364" stroke-opacity="0.36" stroke-dasharray="6 3"/>
<polygon points="438.9,40.0 343.9,94.9 284.2,150.9 188.7,179.4 195.2,201.2 295.8,171.2 357.6,113.3 450.3,59.7" fill="#56d364" fill-opacity="0.23" stroke="#56d364" stroke-opacity="0.72" stroke-width="1.4" stroke-dasharray="6 3"/>
<polyline points="434.7,55.6 350.7,104.1 290.0,161.1 202.9,187.1" fill="none" stroke="#56d364" stroke-opacity="0.72" stroke-width="2.7"/>
<circle cx="434.7" cy="55.6" r="3" fill="#f0f6fc"/>
<circle cx="202.9" cy="187.1" r="4" fill="#56d364" stroke="#f0f6fc"/>
<text x="438.7" y="51.6" font-size="10">B16/p4</text>
<polygon points="246.9,203.6 246.9,380.7 185.1,511.7 223.2,529.7 289.1,390.1 289.1,203.6" fill="#56d364" fill-opacity="0.09" stroke="#56d364" stroke-opacity="0.36" stroke-dasharray="6 3"/>
<polygon points="256.3,213.0 256.3,382.8 197.6,507.2 218.7,517.2 279.7,388.0 279.7,213.0" fill="#56d364" fill-opacity="0.23" stroke="#56d364" stroke-opacity="0.72" stroke-width="1.4" stroke-dasharray="6 3"/>
<polyline points="268.0,224.7 268.0,385.4 213.2,501.6" fill="none" stroke="#56d364" stroke-opacity="0.72" stroke-width="2.7"/>
<circle cx="268.0" cy="224.7" r="3" fill="#f0f6fc"/>
<circle cx="213.2" cy="501.6" r="4" fill="#56d364" stroke="#f0f6fc"/>
<text x="272.0" y="220.7" font-size="10">B17/p4</text>
<text x="24" y="830" font-size="14">ÉCHEC · seed 4 · front 9/9 · back 8/9</text>
<text x="24" y="852" font-size="11">violations ['back_return', 'back_incomplete']</text>
<text x="24" y="890" font-size="11">demi-plan theta=0° bande=40 · hors-camp=16 · paires front-back collées=0</text>
<text x="24" y="870" font-size="11">rough partagé : cœur plein, rough translucide, pile &gt; 3 en rose · F=plein, B=tirets</text>
</svg>
