<svg xmlns="http://www.w3.org/2000/svg" width="800" height="900">
<rect width="100%" height="100%" fill="#0d1117"/>
<rect x="24" y="24" width="752.0" height="752.0" fill="#161b22" stroke="#8b949e"/>
<style>text{font-family:monospace;fill:#c9d1d9}</style>
<line x1="-1104.0" y1="400.0" x2="1904.0" y2="400.0" stroke="#f778ba" stroke-opacity="0.22" stroke-width="1.6" stroke-dasharray="0"/>
<line x1="-1104.0" y1="437.6" x2="1904.0" y2="437.6" stroke="#f778ba" stroke-opacity="0.12" stroke-width="1.6" stroke-dasharray="4 6"/>
<line x1="-1104.0" y1="362.4" x2="1904.0" y2="362.4" stroke="#f778ba" stroke-opacity="0.12" stroke-width="1.6" stroke-dasharray="4 6"/>
<circle cx="400.0" cy="400.0" r="4" fill="#f0f6fc"/>
<circle cx="400.0" cy="400.0" r="18.8" fill="none" stroke="#f0f6fc" stroke-opacity="0.45" stroke-width="1.2" stroke-dasharray="3 3"/>
<line x1="616.2" y1="366.2" x2="616.2" y2="306.0" stroke="#8b949e" stroke-dasharray="5 4"/>
<line x1="482.6" y1="121.8" x2="542.7" y2="121.8" stroke="#8b949e" stroke-dasharray="5 4"/>
<line x1="717.8" y1="273.4" x2="652.6" y2="311.0" stroke="#8b949e" stroke-dasharray="5 4"/>
<line x1="719.5" y1="533.1" x2="681.9" y2="468.0" stroke="#8b949e" stroke-dasharray="5 4"/>
<line x1="681.9" y1="615.1" x2="719.5" y2="680.2" stroke="#8b949e" stroke-dasharray="5 4"/>
<line x1="467.9" y1="691.7" x2="422.8" y2="691.7" stroke="#8b949e" stroke-dasharray="5 4"/>
<line x1="651.6" y1="451.0" x2="612.6" y2="428.5" stroke="#8b949e" stroke-dasharray="5 4"/>
<line x1="403.2" y1="614.8" x2="338.0" y2="652.4" stroke="#8b949e" stroke-dasharray="5 4"/>
<polygon points="438.8,346.4 636.0,346.4 636.0,386.0 438.8,386.0" fill="#58a6ff" fill-opacity="0.12" stroke="#58a6ff" stroke-opacity="0.50" stroke-dasharray="0"/>
<polygon points="448.2,355.8 626.6,355.8 626.6,376.6 448.2,376.6" fill="#58a6ff" fill-opacity="0.32" stroke="#58a6ff" stroke-opacity="1.0" stroke-width="1.4" stroke-dasharray="0"/>
<polyline points="458.6,366.2 616.2,366.2" fill="none" stroke="#58a6ff" stroke-opacity="1.0" stroke-width="2.7"/>
<circle cx="458.6" cy="366.2" r="3" fill="#f0f6fc"/>
<circle cx="616.2" cy="366.2" r="4" fill="#58a6ff" stroke="#f0f6fc"/>
<text x="462.6" y="362.2" font-size="10">F1/p3</text>
<polygon points="645.9,314.0 573.9,189.3 483.9,91.0 451.8,120.4 538.6,215.2 608.2,335.8" fill="#56d364" fill-opacity="0.12" stroke="#56d364" stroke-opacity="0.50" stroke-dasharray="0"/>
<polygon points="633.1,310.5 566.3,194.9 483.4,104.3 465.1,121.0 546.2,209.6 611.6,322.9" fill="#56d364" fill-opacity="0.32" stroke="#56d364" stroke-opacity="1.0" stroke-width="1.4" stroke-dasharray="0"/>
<polyline points="616.2,306.0 556.3,202.2 482.6,121.8" fill="none" stroke="#56d364" stroke-opacity="1.0" stroke-width="2.7"/>
<circle cx="616.2" cy="306.0" r="3" fill="#f0f6fc"/>
<circle cx="482.6" cy="121.8" r="4" fill="#56d364" stroke="#f0f6fc"/>
<text x="620.2" y="302.0" font-size="10">F2/p4</text>
<polygon points="535.1,93.4 660.6,165.8 746.9,277.0 714.1,302.5 632.8,197.7 514.4,129.4" fill="#56d364" fill-opacity="0.12" stroke="#56d364" stroke-opacity="0.50" stroke-dasharray="0"/>
<polygon points="538.6,106.3 654.3,173.1 733.7,275.4 715.7,289.3 639.1,190.5 527.2,126.0" fill="#56d364" fill-opacity="0.32" stroke="#56d364" stroke-opacity="1.0" stroke-width="1.4" stroke-dasharray="0"/>
<polyline points="542.7,121.8 646.7,181.8 717.8,273.4" fill="none" stroke="#56d364" stroke-opacity="1.0" stroke-width="2.7"/>
<circle cx="542.7" cy="121.8" r="3" fill="#f0f6fc"/>
<circle cx="717.8" cy="273.4" r="4" fill="#56d364" stroke="#f0f6fc"/>
<text x="546.7" y="117.8" font-size="10">F3/p4</text>
<polygon points="621.7,302.7 695.5,430.5 697.2,556.1 742.5,555.5 740.6,418.1 660.9,280.1" fill="#56d364" fill-opacity="0.12" stroke="#56d364" stroke-opacity="0.50" stroke-dasharray="0"/>
<polygon points="634.6,306.1 704.9,427.9 706.5,546.5 732.9,546.2 731.2,420.7 657.5,292.9" fill="#56d364" fill-opacity="0.32" stroke="#56d364" stroke-opacity="1.0" stroke-width="1.4" stroke-dasharray="0"/>
<polyline points="652.6,311.0 718.1,424.3 719.5,533.1" fill="none" stroke="#56d364" stroke-opacity="1.0" stroke-width="2.7"/>
<circle cx="652.6" cy="311.0" r="3" fill="#f0f6fc"/>
<circle cx="719.5" cy="533.1" r="4" fill="#56d364" stroke="#f0f6fc"/>
<text x="656.6" y="307.0" font-size="10">F4/p4</text>
<polygon points="702.4,447.5 702.4,635.5 661.4,635.5 661.4,447.5" fill="#58a6ff" fill-opacity="0.12" stroke="#58a6ff" stroke-opacity="0.50" stroke-dasharray="0"/>
<polygon points="693.0,456.9 693.0,626.1 670.8,626.1 670.8,456.9" fill="#58a6ff" fill-opacity="0.32" stroke="#58a6ff" stroke-opacity="1.0" stroke-width="1.4" stroke-dasharray="0"/>
<polyline points="681.9,468.0 681.9,615.1" fill="none" stroke="#58a6ff" stroke-opacity="1.0" stroke-width="2.7"/>
<circle cx="681.9" cy="468.0" r="3" fill="#f0f6fc"/>
<circle cx="681.9" cy="615.1" r="4" fill="#58a6ff" stroke="#f0f6fc"/>
<text x="685.9" y="464.0" font-size="10">F5/p3</text>
<polygon points="743.8,655.9 631.0,655.9 555.8,681.0 447.7,663.9 440.1,711.8 560.0,730.8 638.9,704.4 743.8,704.4" fill="#56d364" fill-opacity="0.12" stroke="#56d364" stroke-opacity="0.50" stroke-dasharray="0"/>
<polygon points="734.4,665.3 632.5,665.3 556.6,690.7 455.5,674.7 450.9,704.0 559.2,721.2 637.3,695.0 734.4,695.0" fill="#56d364" fill-opacity="0.32" stroke="#56d364" stroke-opacity="1.0" stroke-width="1.4" stroke-dasharray="0"/>
<polyline points="719.5,680.2 634.9,680.2 557.9,705.9 467.9,691.7" fill="none" stroke="#56d364" stroke-opacity="1.0" stroke-width="2.7"/>
<circle cx="719.5" cy="680.2" r="3" fill="#f0f6fc"/>
<circle cx="467.9" cy="691.7" r="4" fill="#56d364" stroke="#f0f6fc"/>
<text x="723.5" y="676.2" font-size="10">F6/p4</text>
<polygon points="430.6,720.9 528.6,551.1 681.0,458.1 658.8,421.6 497.1,520.3 393.6,699.5" fill="#f2cc60" fill-opacity="0.12" stroke="#f2cc60" stroke-opacity="0.50" stroke-dasharray="0"/>
<polygon points="427.1,708.0 521.7,544.3 668.1,455.0 655.6,434.6 504.0,527.0 406.4,696.1" fill="#f2cc60" fill-opacity="0.32" stroke="#f2cc60" stroke-opacity="1.0" stroke-width="1.4" stroke-dasharray="0"/>
<polyline points="422.8,691.7 512.8,535.7 651.6,451.0" fill="none" stroke="#f2cc60" stroke-opacity="1.0" stroke-width="2.7"/>
<circle cx="422.8" cy="691.7" r="3" fill="#f0f6fc"/>
<circle cx="651.6" cy="451.0" r="4" fill="#f2cc60" stroke="#f0f6fc"/>
<text x="426.8" y="687.7" font-size="10">F7/p5</text>
<polygon points="645.7,437.3 502.0,520.2 408.5,648.7 369.3,620.1 468.9,483.4 621.4,395.4" fill="#56d364" fill-opacity="0.12" stroke="#56d364" stroke-opacity="0.50" stroke-dasharray="0"/>
<polygon points="632.8,433.9 495.6,513.1 406.4,635.5 382.5,618.1 475.3,490.6 618.0,408.2" fill="#56d364" fill-opacity="0.32" stroke="#56d364" stroke-opacity="1.0" stroke-width="1.4" stroke-dasharray="0"/>
<polyline points="612.6,428.5 485.5,501.8 403.2,614.8" fill="none" stroke="#56d364" stroke-opacity="1.0" stroke-width="2.7"/>
<circle cx="612.6" cy="428.5" r="3" fill="#f0f6fc"/>
<circle cx="403.2" cy="614.8" r="4" fill="#56d364" stroke="#f0f6fc"/>
<text x="616.6" y="424.5" font-size="10">F8/p4</text>
<polygon points="362.4,676.8 362.4,483.3 410.4,309.3 363.3,296.4 313.6,476.8 313.6,676.8" fill="#f2cc60" fill-opacity="0.12" stroke="#f2cc60" stroke-opacity="0.50" stroke-dasharray="0"/>
<polygon points="353.0,667.4 353.0,482.1 398.8,315.9 369.9,307.9 323.0,478.0 323.0,667.4" fill="#f2cc60" fill-opacity="0.32" stroke="#f2cc60" stroke-opacity="1.0" stroke-width="1.4" stroke-dasharray="0"/>
<polyline points="338.0,652.4 338.0,480.1 380.4,326.4" fill="none" stroke="#f2cc60" stroke-opacity="1.0" stroke-width="2.7"/>
<circle cx="338.0" cy="652.4" r="3" fill="#f0f6fc"/>
<circle cx="380.4" cy="326.4" r="4" fill="#f2cc60" stroke="#f0f6fc"/>
<text x="342.0" y="648.4" font-size="10">F9/p5</text>
<line x1="317.3" y1="146.2" x2="317.3" y2="101.0" stroke="#8b949e" stroke-dasharray="5 4"/>
<line x1="99.8" y1="301.9" x2="99.8" y2="241.7" stroke="#8b949e" stroke-dasharray="5 4"/>
<line x1="189.4" y1="86.5" x2="150.3" y2="63.9" stroke="#8b949e" stroke-dasharray="5 4"/>
<line x1="51.2" y1="235.7" x2="51.2" y2="310.9" stroke="#8b949e" stroke-dasharray="5 4"/>
<line x1="98.3" y1="628.9" x2="59.2" y2="651.4" stroke="#8b949e" stroke-dasharray="5 4"/>
<line x1="317.3" y1="728.0" x2="279.7" y2="662.9" stroke="#8b949e" stroke-dasharray="5 4"/>
<line x1="100.0" y1="423.5" x2="100.0" y2="348.3" stroke="#8b949e" stroke-dasharray="5 4"/>
<polygon points="296.3,421.0 296.3,125.1 338.3,125.1 338.3,421.0" fill="#56d364" fill-opacity="0.09" stroke="#56d364" stroke-opacity="0.36" stroke-dasharray="6 3"/>
<polygon points="305.7,411.6 305.7,134.5 328.9,134.5 328.9,411.6" fill="#56d364" fill-opacity="0.23" stroke="#56d364" stroke-opacity="0.72" stroke-width="1.4" stroke-dasharray="6 3"/>
<polyline points="317.3,400.0 317.3,146.2" fill="none" stroke="#56d364" stroke-opacity="0.72" stroke-width="2.7"/>
<circle cx="317.3" cy="400.0" r="3" fill="#f0f6fc"/>
<circle cx="317.3" cy="146.2" r="4" fill="#56d364" stroke="#f0f6fc"/>
<text x="321.3" y="396.0" font-size="10">B10/p4</text>
<polygon points="345.3,108.5 199.2,192.9 105.1,330.4 71.3,307.2 170.6,162.0 324.8,73.0" fill="#56d364" fill-opacity="0.09" stroke="#56d364" stroke-opacity="0.36" stroke-dasharray="6 3"/>
<polygon points="332.5,105.1 192.7,185.8 102.7,317.3 84.3,304.8 177.2,169.1 321.3,85.9" fill="#56d364" fill-opacity="0.23" stroke="#56d364" stroke-opacity="0.72" stroke-width="1.4" stroke-dasharray="6 3"/>
<polyline points="317.3,101.0 184.9,177.5 99.8,301.9" fill="none" stroke="#56d364" stroke-opacity="0.72" stroke-width="2.7"/>
<circle cx="317.3" cy="101.0" r="3" fill="#f0f6fc"/>
<circle cx="99.8" cy="301.9" r="4" fill="#56d364" stroke="#f0f6fc"/>
<text x="321.3" y="97.0" font-size="10">B11/p4</text>
<polygon points="73.1,248.9 182.3,59.8 216.1,79.3 106.9,268.4" fill="#58a6ff" fill-opacity="0.09" stroke="#58a6ff" stroke-opacity="0.36" stroke-dasharray="6 3"/>
<polygon points="85.9,245.4 185.7,72.6 203.3,82.8 103.5,255.6" fill="#58a6ff" fill-opacity="0.23" stroke="#58a6ff" stroke-opacity="0.72" stroke-width="1.4" stroke-dasharray="6 3"/>
<polyline points="99.8,241.7 189.4,86.5" fill="none" stroke="#58a6ff" stroke-opacity="0.72" stroke-width="2.7"/>
<circle cx="99.8" cy="241.7" r="3" fill="#f0f6fc"/>
<circle cx="189.4" cy="86.5" r="4" fill="#58a6ff" stroke="#f0f6fc"/>
<text x="103.8" y="237.7" font-size="10">B12/p3</text>
<polygon points="178.4,56.4 58.7,263.7 23.2,243.2 142.8,35.9" fill="#58a6ff" fill-opacity="0.09" stroke="#58a6ff" stroke-opacity="0.36" stroke-dasharray="6 3"/>
<polygon points="165.5,59.9 55.2,250.9 36.0,239.8 146.3,48.8" fill="#58a6ff" fill-opacity="0.23" stroke="#58a6ff" stroke-opacity="0.72" stroke-width="1.4" stroke-dasharray="6 3"/>
<polyline points="150.3,63.9 51.2,235.7" fill="none" stroke="#58a6ff" stroke-opacity="0.72" stroke-width="2.7"/>
<circle cx="150.3" cy="63.9" r="3" fill="#f0f6fc"/>
<circle cx="51.2" cy="235.7" r="4" fill="#58a6ff" stroke="#f0f6fc"/>
<text x="154.3" y="59.9" font-size="10">B13/p3</text>
<polygon points="74.7,287.4 74.7,465.5 127.5,644.8 82.3,658.1 27.7,472.3 27.7,287.4" fill="#56d364" fill-opacity="0.09" stroke="#56d364" stroke-opacity="0.36" stroke-dasharray="6 3"/>
<polygon points="65.3,296.8 65.3,466.9 115.8,638.4 88.7,646.4 37.1,470.9 37.1,296.8" fill="#56d364" fill-opacity="0.23" stroke="#56d364" stroke-opacity="0.72" stroke-width="1.4" stroke-dasharray="6 3"/>
<polyline points="51.2,310.9 51.2,468.9 98.3,628.9" fill="none" stroke="#56d364" stroke-opacity="0.72" stroke-width="2.7"/>
<circle cx="51.2" cy="310.9" r="3" fill="#f0f6fc"/>
<circle cx="98.3" cy="628.9" r="4" fill="#56d364" stroke="#f0f6fc"/>
<text x="55.2" y="306.9" font-size="10">B14/p4</text>
<polygon points="51.3,621.9 177.6,694.9 340.6,708.3 337.1,751.3 164.4,737.1 29.7,659.3" fill="#56d364" fill-opacity="0.09" stroke="#56d364" stroke-opacity="0.36" stroke-dasharray="6 3"/>
<polygon points="54.7,634.8 174.8,704.1 330.5,716.9 328.5,741.2 167.3,727.9 42.5,655.9" fill="#56d364" fill-opacity="0.23" stroke="#56d364" stroke-opacity="0.72" stroke-width="1.4" stroke-dasharray="6 3"/>
<polyline points="59.2,651.4 171.0,716.0 317.3,728.0" fill="none" stroke="#56d364" stroke-opacity="0.72" stroke-width="2.7"/>
<circle cx="59.2" cy="651.4" r="3" fill="#f0f6fc"/>
<circle cx="317.3" cy="728.0" r="4" fill="#56d364" stroke="#f0f6fc"/>
<text x="63.2" y="647.4" font-size="10">B15/p4</text>
<polygon points="272.5,690.0 199.2,563.1 72.0,422.0 101.5,395.4 231.5,539.6 306.9,670.2" fill="#56d364" fill-opacity="0.09" stroke="#56d364" stroke-opacity="0.36" stroke-dasharray="6 3"/>
<polygon points="275.9,677.2 206.8,557.5 85.3,422.7 100.8,408.7 223.8,545.1 294.0,666.7" fill="#56d364" fill-opacity="0.23" stroke="#56d364" stroke-opacity="0.72" stroke-width="1.4" stroke-dasharray="6 3"/>
<polyline points="279.7,662.9 215.3,551.3 100.0,423.5" fill="none" stroke="#56d364" stroke-opacity="0.72" stroke-width="2.7"/>
<circle cx="279.7" cy="662.9" r="3" fill="#f0f6fc"/>
<circle cx="100.0" cy="423.5" r="4" fill="#56d364" stroke="#f0f6fc"/>
<text x="283.7" y="658.9" font-size="10">B16/p4</text>
<polygon points="91.8,317.7 201.3,380.8 283.4,490.3 318.2,616.6 275.0,628.5 242.5,510.4 170.9,415.1 69.4,356.5" fill="#f2cc60" fill-opacity="0.09" stroke="#f2cc60" stroke-opacity="0.36" stroke-dasharray="6 3"/>
<polygon points="95.3,330.5 194.9,388.0 274.8,494.5 306.6,610.0 281.6,616.9 251.1,506.2 177.3,407.9 82.3,353.0" fill="#f2cc60" fill-opacity="0.23" stroke="#f2cc60" stroke-opacity="0.72" stroke-width="1.4" stroke-dasharray="6 3"/>
<polyline points="100.0,348.3 186.1,398.0 263.0,500.4 290.6,600.9" fill="none" stroke="#f2cc60" stroke-opacity="0.72" stroke-width="2.7"/>
<circle cx="100.0" cy="348.3" r="3" fill="#f0f6fc"/>
<circle cx="290.6" cy="600.9" r="4" fill="#f2cc60" stroke="#f0f6fc"/>
<text x="104.0" y="344.3" font-size="10">B17/p5</text>
<text x="24" y="830" font-size="14">ÉCHEC · seed 2 · front 9/9 · back 8/9</text>
<text x="24" y="852" font-size="11">violations ['back_return', 'back_incomplete']</text>
<text x="24" y="890" font-size="11">demi-plan theta=0° bande=40 · hors-camp=16 · paires front-back collées=2</text>
<text x="24" y="870" font-size="11">rough partagé : cœur plein, rough translucide, pile &gt; 3 en rose · F=plein, B=tirets</text>
</svg>
