<svg xmlns="http://www.w3.org/2000/svg" width="760" height="840">
<rect width="100%" height="100%" fill="#0d1117"/>
<rect x="24" y="24" width="712.0" height="712.0" fill="#161b22" stroke="#8b949e"/>
<style>text{font-family:monospace;fill:#c9d1d9}</style>
<circle cx="380.0" cy="380.0" r="10" fill="#f0f6fc"/>
<circle cx="380.0" cy="380.0" r="101.7" fill="none" stroke="#8b949e" stroke-dasharray="4 5"/>
<line x1="157.3" y1="343.4" x2="100.9" y2="310.8" stroke="#8b949e" stroke-width="2" stroke-dasharray="5 4"/>
<line x1="140.3" y1="567.6" x2="210.8" y2="526.9" stroke="#8b949e" stroke-width="2" stroke-dasharray="5 4"/>
<line x1="210.8" y1="689.0" x2="292.1" y2="689.0" stroke="#8b949e" stroke-width="2" stroke-dasharray="5 4"/>
<line x1="584.7" y1="689.0" x2="617.2" y2="632.6" stroke="#8b949e" stroke-width="2" stroke-dasharray="5 4"/>
<line x1="673.0" y1="172.8" x2="591.6" y2="172.8" stroke="#8b949e" stroke-width="2" stroke-dasharray="5 4"/>
<line x1="273.8" y1="86.6" x2="314.5" y2="157.1" stroke="#8b949e" stroke-width="2" stroke-dasharray="5 4"/>
<line x1="611.1" y1="241.8" x2="611.1" y2="323.2" stroke="#8b949e" stroke-width="2" stroke-dasharray="5 4"/>
<line x1="367.2" y1="601.4" x2="302.1" y2="601.4" stroke="#8b949e" stroke-width="2" stroke-dasharray="5 4"/>
<polygon points="337.1,363.9 136.8,363.9 136.8,322.9 337.1,322.9" fill="#58a6ff" fill-opacity=".22" stroke="#58a6ff" stroke-width="1.3"/>
<polyline points="316.6,343.4 157.3,343.4" fill="none" stroke="#58a6ff" stroke-width="3"/>
<circle cx="316.6" cy="343.4" r="3.5" fill="#f0f6fc"/>
<circle cx="157.3" cy="343.4" r="4.5" fill="#58a6ff" stroke="#f0f6fc"/>
<text x="321.6" y="338.4" font-size="12">1/p3</text>
<polygon points="124.0,287.7 124.0,400.0 161.0,475.2 164.0,590.0 117.8,591.2 115.1,486.5 77.9,410.7 77.9,287.7" fill="#56d364" fill-opacity=".22" stroke="#56d364" stroke-width="1.3"/>
<polyline points="100.9,310.8 100.9,405.3 138.0,480.9 140.3,567.6" fill="none" stroke="#56d364" stroke-width="3"/>
<circle cx="100.9" cy="310.8" r="3.5" fill="#f0f6fc"/>
<circle cx="140.3" cy="567.6" r="4.5" fill="#56d364" stroke="#f0f6fc"/>
<text x="105.9" y="305.8" font-size="12">2/p4</text>
<polygon points="235.4,502.2 235.4,713.7 186.1,713.7 186.1,502.2" fill="#58a6ff" fill-opacity=".22" stroke="#58a6ff" stroke-width="1.3"/>
<polyline points="210.8,526.9 210.8,689.0" fill="none" stroke="#58a6ff" stroke-width="3"/>
<circle cx="210.8" cy="526.9" r="3.5" fill="#f0f6fc"/>
<circle cx="210.8" cy="689.0" r="4.5" fill="#58a6ff" stroke="#f0f6fc"/>
<text x="215.8" y="521.9" font-size="12">3/p3</text>
<polygon points="266.1,715.0 610.7,715.0 610.7,663.0 266.1,663.0" fill="#56d364" fill-opacity=".22" stroke="#56d364" stroke-width="1.3"/>
<polyline points="292.1,689.0 584.7,689.0" fill="none" stroke="#56d364" stroke-width="3"/>
<circle cx="292.1" cy="689.0" r="3.5" fill="#f0f6fc"/>
<circle cx="584.7" cy="689.0" r="4.5" fill="#56d364" stroke="#f0f6fc"/>
<text x="297.1" y="684.0" font-size="12">4/p4</text>
<polygon points="645.3,660.7 645.3,471.3 706.0,332.0 700.2,143.8 644.1,145.6 649.4,321.1 589.1,459.5 589.1,660.7" fill="#f2cc60" fill-opacity=".22" stroke="#f2cc60" stroke-width="1.3"/>
<polyline points="617.2,632.6 617.2,465.4 677.7,326.5 673.0,172.8" fill="none" stroke="#f2cc60" stroke-width="3"/>
<circle cx="617.2" cy="632.6" r="3.5" fill="#f0f6fc"/>
<circle cx="673.0" cy="172.8" r="4.5" fill="#f2cc60" stroke="#f0f6fc"/>
<text x="622.2" y="627.6" font-size="12">5/p5</text>
<polygon points="621.8,164.7 452.1,66.7 252.0,64.3 251.5,108.4 440.0,110.8 599.7,203.0" fill="#56d364" fill-opacity=".22" stroke="#56d364" stroke-width="1.3"/>
<polyline points="591.6,172.8 446.1,88.7 273.8,86.6" fill="none" stroke="#56d364" stroke-width="3"/>
<circle cx="591.6" cy="172.8" r="3.5" fill="#f0f6fc"/>
<circle cx="273.8" cy="86.6" r="4.5" fill="#56d364" stroke="#f0f6fc"/>
<text x="596.6" y="167.8" font-size="12">6/p4</text>
<polygon points="305.0,121.6 471.8,217.9 636.7,215.4 637.5,267.4 458.2,270.1 279.0,166.6" fill="#56d364" fill-opacity=".22" stroke="#56d364" stroke-width="1.3"/>
<polyline points="314.5,157.1 465.0,244.0 611.1,241.8" fill="none" stroke="#56d364" stroke-width="3"/>
<circle cx="314.5" cy="157.1" r="3.5" fill="#f0f6fc"/>
<circle cx="611.1" cy="241.8" r="4.5" fill="#56d364" stroke="#f0f6fc"/>
<text x="319.5" y="152.1" font-size="12">7/p4</text>
<polygon points="643.1,314.6 566.1,448.0 458.3,499.1 374.8,633.7 334.9,609.0 425.7,462.6 532.8,411.9 602.5,291.1" fill="#f2cc60" fill-opacity=".22" stroke="#f2cc60" stroke-width="1.3"/>
<polyline points="611.1,323.2 549.4,429.9 442.0,480.8 367.2,601.4" fill="none" stroke="#f2cc60" stroke-width="3"/>
<circle cx="611.1" cy="323.2" r="3.5" fill="#f0f6fc"/>
<circle cx="367.2" cy="601.4" r="4.5" fill="#f2cc60" stroke="#f0f6fc"/>
<text x="616.1" y="318.2" font-size="12">8/p5</text>
<polygon points="312.1,638.4 378.2,523.8 378.5,413.7 417.7,298.1 366.4,280.7 324.4,404.7 324.1,509.2 265.1,611.3" fill="#56d364" fill-opacity=".22" stroke="#56d364" stroke-width="1.3"/>
<polyline points="302.1,601.4 351.2,516.5 351.4,409.2 383.3,315.1" fill="none" stroke="#56d364" stroke-width="3"/>
<circle cx="302.1" cy="601.4" r="3.5" fill="#f0f6fc"/>
<circle cx="383.3" cy="315.1" r="4.5" fill="#56d364" stroke="#f0f6fc"/>
<text x="307.1" y="596.4" font-size="12">9/p4</text>
<text x="24" y="790" font-size="14">SUCCÈS · seed 1 · profondeur 9/9 · pars 3-4-3-4-5-4-4-5-4</text>
<text x="24" y="812" font-size="11">63990 essais · score 24.21</text>
</svg>
