<svg xmlns="http://www.w3.org/2000/svg" width="760" height="840">
<rect width="100%" height="100%" fill="#0d1117"/>
<rect x="24" y="24" width="712.0" height="712.0" fill="#161b22" stroke="#8b949e"/>
<style>text{font-family:monospace;fill:#c9d1d9}</style>
<circle cx="380.0" cy="380.0" r="10" fill="#f0f6fc"/>
<circle cx="380.0" cy="380.0" r="101.7" fill="none" stroke="#8b949e" stroke-dasharray="4 5"/>
<line x1="355.6" y1="158.0" x2="426.1" y2="198.7" stroke="#8b949e" stroke-width="2" stroke-dasharray="5 4"/>
<line x1="657.0" y1="259.5" x2="624.5" y2="203.1" stroke="#8b949e" stroke-width="2" stroke-dasharray="5 4"/>
<line x1="544.2" y1="64.0" x2="503.5" y2="134.5" stroke="#8b949e" stroke-width="2" stroke-dasharray="5 4"/>
<line x1="181.9" y1="77.7" x2="222.6" y2="148.2" stroke="#8b949e" stroke-width="2" stroke-dasharray="5 4"/>
<line x1="86.2" y1="594.9" x2="167.5" y2="594.9" stroke="#8b949e" stroke-width="2" stroke-dasharray="5 4"/>
<line x1="497.3" y1="684.2" x2="562.4" y2="684.2" stroke="#8b949e" stroke-width="2" stroke-dasharray="5 4"/>
<line x1="653.5" y1="443.7" x2="597.2" y2="411.2" stroke="#8b949e" stroke-width="2" stroke-dasharray="5 4"/>
<line x1="254.2" y1="563.2" x2="183.7" y2="522.5" stroke="#8b949e" stroke-width="2" stroke-dasharray="5 4"/>
<polygon points="334.7,358.6 334.7,137.2 376.5,137.2 376.5,358.6" fill="#58a6ff" fill-opacity=".22" stroke="#58a6ff" stroke-width="1.3"/>
<polyline points="355.6,337.7 355.6,158.0" fill="none" stroke="#58a6ff" stroke-width="3"/>
<circle cx="355.6" cy="337.7" r="3.5" fill="#f0f6fc"/>
<circle cx="355.6" cy="158.0" r="4.5" fill="#58a6ff" stroke="#f0f6fc"/>
<text x="360.6" y="332.7" font-size="12">1/p3</text>
<polygon points="395.1,207.0 512.8,275.0 678.6,283.3 680.8,237.9 526.0,230.2 417.8,167.7" fill="#56d364" fill-opacity=".22" stroke="#56d364" stroke-width="1.3"/>
<polyline points="426.1,198.7 519.4,252.6 657.0,259.5" fill="none" stroke="#56d364" stroke-width="3"/>
<circle cx="426.1" cy="198.7" r="3.5" fill="#f0f6fc"/>
<circle cx="657.0" cy="259.5" r="4.5" fill="#56d364" stroke="#f0f6fc"/>
<text x="431.1" y="193.7" font-size="12">2/p4</text>
<polygon points="616.2,234.1 513.1,55.7 552.5,32.9 655.5,211.4" fill="#58a6ff" fill-opacity=".22" stroke="#58a6ff" stroke-width="1.3"/>
<polyline points="624.5,203.1 544.2,64.0" fill="none" stroke="#58a6ff" stroke-width="3"/>
<circle cx="624.5" cy="203.1" r="3.5" fill="#f0f6fc"/>
<circle cx="544.2" cy="64.0" r="4.5" fill="#58a6ff" stroke="#f0f6fc"/>
<text x="629.5" y="198.1" font-size="12">3/p3</text>
<polygon points="532.8,126.6 410.7,56.1 280.0,42.0 157.7,59.5 163.7,102.0 280.8,85.3 397.1,97.8 511.3,163.8" fill="#56d364" fill-opacity=".22" stroke="#56d364" stroke-width="1.3"/>
<polyline points="503.5,134.5 403.9,77.0 280.4,63.7 181.9,77.7" fill="none" stroke="#56d364" stroke-width="3"/>
<circle cx="503.5" cy="134.5" r="3.5" fill="#f0f6fc"/>
<circle cx="181.9" cy="77.7" r="4.5" fill="#56d364" stroke="#f0f6fc"/>
<text x="508.5" y="129.5" font-size="12">4/p4</text>
<polygon points="257.7,138.8 144.2,335.3 108.5,623.5 57.6,617.2 94.6,318.7 213.3,113.1" fill="#f2cc60" fill-opacity=".22" stroke="#f2cc60" stroke-width="1.3"/>
<polyline points="222.6,148.2 119.4,327.0 86.2,594.9" fill="none" stroke="#f2cc60" stroke-width="3"/>
<circle cx="222.6" cy="148.2" r="3.5" fill="#f0f6fc"/>
<circle cx="86.2" cy="594.9" r="4.5" fill="#f2cc60" stroke="#f0f6fc"/>
<text x="227.6" y="143.2" font-size="12">5/p5</text>
<polygon points="157.8,558.4 331.4,658.7 523.8,657.3 524.2,710.7 317.3,712.1 131.1,604.6" fill="#56d364" fill-opacity=".22" stroke="#56d364" stroke-width="1.3"/>
<polyline points="167.5,594.9 324.3,685.4 497.3,684.2" fill="none" stroke="#56d364" stroke-width="3"/>
<circle cx="167.5" cy="594.9" r="3.5" fill="#f0f6fc"/>
<circle cx="497.3" cy="684.2" r="4.5" fill="#56d364" stroke="#f0f6fc"/>
<text x="172.5" y="589.9" font-size="12">6/p4</text>
<polygon points="528.1,693.4 594.2,578.9 635.2,413.3 684.0,425.4 641.2,597.9 571.6,718.5" fill="#56d364" fill-opacity=".22" stroke="#56d364" stroke-width="1.3"/>
<polyline points="562.4,684.2 617.7,588.4 653.5,443.7" fill="none" stroke="#56d364" stroke-width="3"/>
<circle cx="562.4" cy="684.2" r="3.5" fill="#f0f6fc"/>
<circle cx="653.5" cy="443.7" r="4.5" fill="#56d364" stroke="#f0f6fc"/>
<text x="567.4" y="679.2" font-size="12">7/p4</text>
<polygon points="628.4,419.5 430.7,533.7 238.9,591.7 225.7,547.9 412.4,491.4 605.5,379.9" fill="#f2cc60" fill-opacity=".22" stroke="#f2cc60" stroke-width="1.3"/>
<polyline points="597.2,411.2 421.6,512.5 254.2,563.2" fill="none" stroke="#f2cc60" stroke-width="3"/>
<circle cx="597.2" cy="411.2" r="3.5" fill="#f0f6fc"/>
<circle cx="254.2" cy="563.2" r="4.5" fill="#f2cc60" stroke="#f0f6fc"/>
<text x="602.2" y="406.2" font-size="12">8/p5</text>
<polygon points="174.3,557.6 487.9,376.5 462.2,332.0 148.6,513.1" fill="#56d364" fill-opacity=".22" stroke="#56d364" stroke-width="1.3"/>
<polyline points="183.7,522.5 452.8,367.1" fill="none" stroke="#56d364" stroke-width="3"/>
<circle cx="183.7" cy="522.5" r="3.5" fill="#f0f6fc"/>
<circle cx="452.8" cy="367.1" r="4.5" fill="#56d364" stroke="#f0f6fc"/>
<text x="188.7" y="517.5" font-size="12">9/p4</text>
<text x="24" y="790" font-size="14">SUCCÈS · seed 5 · profondeur 9/9 · pars 3-4-3-4-5-4-4-5-4</text>
<text x="24" y="812" font-size="11">69030 essais · score 25.29</text>
</svg>
