<svg xmlns="http://www.w3.org/2000/svg" width="800" height="900">
<rect width="100%" height="100%" fill="#0d1117"/>
<rect x="24" y="24" width="752.0" height="752.0" fill="#161b22" stroke="#8b949e"/>
<style>text{font-family:monospace;fill:#c9d1d9}</style>
<line x1="-1104.0" y1="400.0" x2="1904.0" y2="400.0" stroke="#f778ba" stroke-opacity="0.22" stroke-width="1.6" stroke-dasharray="0"/>
<line x1="-1104.0" y1="437.6" x2="1904.0" y2="437.6" stroke="#f778ba" stroke-opacity="0.12" stroke-width="1.6" stroke-dasharray="4 6"/>
<line x1="-1104.0" y1="362.4" x2="1904.0" y2="362.4" stroke="#f778ba" stroke-opacity="0.12" stroke-width="1.6" stroke-dasharray="4 6"/>
<circle cx="400.0" cy="400.0" r="4" fill="#f0f6fc"/>
<circle cx="400.0" cy="400.0" r="18.8" fill="none" stroke="#f0f6fc" stroke-opacity="0.45" stroke-width="1.2" stroke-dasharray="3 3"/>
<line x1="590.4" y1="458.6" x2="590.4" y2="503.7" stroke="#8b949e" stroke-dasharray="5 4"/>
<line x1="447.9" y1="694.6" x2="513.0" y2="657.0" stroke="#8b949e" stroke-dasharray="5 4"/>
<line x1="715.5" y1="500.2" x2="715.5" y2="560.3" stroke="#8b949e" stroke-dasharray="5 4"/>
<line x1="546.7" y1="728.5" x2="501.6" y2="728.5" stroke="#8b949e" stroke-dasharray="5 4"/>
<line x1="247.6" y1="716.3" x2="312.7" y2="678.7" stroke="#8b949e" stroke-dasharray="5 4"/>
<line x1="178.0" y1="600.9" x2="230.1" y2="570.8" stroke="#8b949e" stroke-dasharray="5 4"/>
<line x1="351.6" y1="664.8" x2="411.8" y2="664.8" stroke="#8b949e" stroke-dasharray="5 4"/>
<line x1="202.4" y1="417.6" x2="172.3" y2="365.5" stroke="#8b949e" stroke-dasharray="5 4"/>
<polygon points="414.6,477.9 609.7,477.9 609.7,439.3 414.6,439.3" fill="#58a6ff" fill-opacity="0.12" stroke="#58a6ff" stroke-opacity="0.50" stroke-dasharray="0"/>
<polygon points="424.0,468.5 600.3,468.5 600.3,448.7 424.0,448.7" fill="#58a6ff" fill-opacity="0.32" stroke="#58a6ff" stroke-opacity="1.0" stroke-width="1.4" stroke-dasharray="0"/>
<polyline points="433.8,458.6 590.4,458.6" fill="none" stroke="#58a6ff" stroke-opacity="1.0" stroke-width="2.7"/>
<circle cx="433.8" cy="458.6" r="3" fill="#f0f6fc"/>
<circle cx="590.4" cy="458.6" r="4" fill="#58a6ff" stroke="#f0f6fc"/>
<text x="437.8" y="454.6" font-size="10">F1/p3</text>
<polygon points="620.4,511.8 529.9,564.0 488.9,619.6 464.0,721.2 421.3,710.8 448.3,600.5 500.0,530.5 598.4,473.7" fill="#56d364" fill-opacity="0.12" stroke="#56d364" stroke-opacity="0.50" stroke-dasharray="0"/>
<polygon points="607.5,508.3 523.5,556.8 480.2,615.5 457.1,709.8 432.7,703.9 457.0,604.6 506.4,537.7 595.0,486.6" fill="#56d364" fill-opacity="0.32" stroke="#56d364" stroke-opacity="1.0" stroke-width="1.4" stroke-dasharray="0"/>
<polyline points="590.4,503.7 515.0,547.3 468.6,610.0 447.9,694.6" fill="none" stroke="#56d364" stroke-opacity="1.0" stroke-width="2.7"/>
<circle cx="590.4" cy="503.7" r="3" fill="#f0f6fc"/>
<circle cx="447.9" cy="694.6" r="4" fill="#56d364" stroke="#f0f6fc"/>
<text x="594.4" y="499.7" font-size="10">F2/p4</text>
<polygon points="485.8,649.7 619.7,572.4 714.7,472.0 743.7,499.4 644.7,604.0 505.7,684.3" fill="#56d364" fill-opacity="0.12" stroke="#56d364" stroke-opacity="0.50" stroke-dasharray="0"/>
<polygon points="498.6,653.2 625.6,579.9 715.1,485.3 730.4,499.8 638.8,596.6 509.2,671.4" fill="#56d364" fill-opacity="0.32" stroke="#56d364" stroke-opacity="1.0" stroke-width="1.4" stroke-dasharray="0"/>
<polyline points="513.0,657.0 632.2,588.2 715.5,500.2" fill="none" stroke="#56d364" stroke-opacity="1.0" stroke-width="2.7"/>
<circle cx="513.0" cy="657.0" r="3" fill="#f0f6fc"/>
<circle cx="715.5" cy="500.2" r="4" fill="#56d364" stroke="#f0f6fc"/>
<text x="517.0" y="653.0" font-size="10">F3/p4</text>
<polygon points="744.2,552.6 667.9,684.9 538.6,757.1 518.1,720.4 637.2,653.8 707.8,531.6" fill="#56d364" fill-opacity="0.12" stroke="#56d364" stroke-opacity="0.50" stroke-dasharray="0"/>
<polygon points="731.4,556.1 661.0,678.0 542.2,744.3 530.9,724.0 644.1,660.8 711.2,544.4" fill="#56d364" fill-opacity="0.32" stroke="#56d364" stroke-opacity="1.0" stroke-width="1.4" stroke-dasharray="0"/>
<polyline points="715.5,560.3 652.5,669.4 546.7,728.5" fill="none" stroke="#56d364" stroke-opacity="1.0" stroke-width="2.7"/>
<circle cx="715.5" cy="560.3" r="3" fill="#f0f6fc"/>
<circle cx="546.7" cy="728.5" r="4" fill="#56d364" stroke="#f0f6fc"/>
<text x="719.5" y="556.3" font-size="10">F4/p4</text>
<polygon points="522.4,707.6 421.3,707.6 341.5,690.4 225.7,696.6 227.9,738.1 338.1,732.3 416.9,749.3 522.4,749.3" fill="#56d364" fill-opacity="0.12" stroke="#56d364" stroke-opacity="0.50" stroke-dasharray="0"/>
<polygon points="513.0,717.0 420.3,717.0 340.7,699.9 235.6,705.5 236.8,728.3 338.9,722.8 417.9,739.9 513.0,739.9" fill="#56d364" fill-opacity="0.32" stroke="#56d364" stroke-opacity="1.0" stroke-width="1.4" stroke-dasharray="0"/>
<polyline points="501.6,728.5 419.1,728.5 339.8,711.4 247.6,716.3" fill="none" stroke="#56d364" stroke-opacity="1.0" stroke-width="2.7"/>
<circle cx="501.6" cy="728.5" r="3" fill="#f0f6fc"/>
<circle cx="247.6" cy="716.3" r="4" fill="#56d364" stroke="#f0f6fc"/>
<text x="505.6" y="724.5" font-size="10">F5/p4</text>
<polygon points="320.5,707.8 148.9,608.7 170.2,571.7 341.9,670.8" fill="#58a6ff" fill-opacity="0.12" stroke="#58a6ff" stroke-opacity="0.50" stroke-dasharray="0"/>
<polygon points="317.1,694.9 161.7,605.2 173.6,584.6 329.0,674.3" fill="#58a6ff" fill-opacity="0.32" stroke="#58a6ff" stroke-opacity="1.0" stroke-width="1.4" stroke-dasharray="0"/>
<polyline points="312.7,678.7 178.0,600.9" fill="none" stroke="#58a6ff" stroke-opacity="1.0" stroke-width="2.7"/>
<circle cx="312.7" cy="678.7" r="3" fill="#f0f6fc"/>
<circle cx="178.0" cy="600.9" r="4" fill="#58a6ff" stroke="#f0f6fc"/>
<text x="316.7" y="674.7" font-size="10">F6/p3</text>
<polygon points="198.5,579.2 283.0,628.1 351.4,697.6 384.4,665.1 311.6,591.1 221.6,539.1" fill="#58a6ff" fill-opacity="0.12" stroke="#58a6ff" stroke-opacity="0.50" stroke-dasharray="0"/>
<polygon points="211.3,575.8 288.8,620.6 351.5,684.3 371.1,665.0 305.8,598.6 225.1,552.0" fill="#58a6ff" fill-opacity="0.32" stroke="#58a6ff" stroke-opacity="1.0" stroke-width="1.4" stroke-dasharray="0"/>
<polyline points="230.1,570.8 297.3,609.6 351.6,664.8" fill="none" stroke="#58a6ff" stroke-opacity="1.0" stroke-width="2.7"/>
<circle cx="230.1" cy="570.8" r="3" fill="#f0f6fc"/>
<circle cx="351.6" cy="664.8" r="4" fill="#58a6ff" stroke="#f0f6fc"/>
<text x="234.1" y="566.8" font-size="10">F7/p3</text>
<polygon points="441.4,672.7 376.0,559.6 282.5,492.9 207.5,387.4 172.2,412.5 251.5,523.9 343.2,589.3 403.9,694.4" fill="#f2cc60" fill-opacity="0.12" stroke="#f2cc60" stroke-opacity="0.50" stroke-dasharray="0"/>
<polygon points="428.5,669.3 368.9,566.0 275.8,499.6 205.2,400.6 185.3,414.7 258.2,517.1 350.4,582.9 407.3,681.5" fill="#f2cc60" fill-opacity="0.32" stroke="#f2cc60" stroke-opacity="1.0" stroke-width="1.4" stroke-dasharray="0"/>
<polyline points="411.8,664.8 359.6,574.4 267.0,508.4 202.4,417.6" fill="none" stroke="#f2cc60" stroke-opacity="1.0" stroke-width="2.7"/>
<circle cx="411.8" cy="664.8" r="3" fill="#f0f6fc"/>
<circle cx="202.4" cy="417.6" r="4" fill="#f2cc60" stroke="#f0f6fc"/>
<text x="415.8" y="660.8" font-size="10">F8/p5</text>
<polygon points="147.5,390.3 464.4,390.3 464.4,340.7 147.5,340.7" fill="#56d364" fill-opacity="0.12" stroke="#56d364" stroke-opacity="0.50" stroke-dasharray="0"/>
<polygon points="156.9,380.9 455.0,380.9 455.0,350.1 156.9,350.1" fill="#56d364" fill-opacity="0.32" stroke="#56d364" stroke-opacity="1.0" stroke-width="1.4" stroke-dasharray="0"/>
<polyline points="172.3,365.5 439.6,365.5" fill="none" stroke="#56d364" stroke-opacity="1.0" stroke-width="2.7"/>
<circle cx="172.3" cy="365.5" r="3" fill="#f0f6fc"/>
<circle cx="439.6" cy="365.5" r="4" fill="#56d364" stroke="#f0f6fc"/>
<text x="176.3" y="361.5" font-size="10">F9/p4</text>
<line x1="533.5" y1="221.2" x2="481.4" y2="191.2" stroke="#8b949e" stroke-dasharray="5 4"/>
<line x1="149.3" y1="202.0" x2="201.4" y2="171.9" stroke="#8b949e" stroke-dasharray="5 4"/>
<line x1="577.1" y1="74.3" x2="525.0" y2="44.2" stroke="#8b949e" stroke-dasharray="5 4"/>
<line x1="201.8" y1="44.2" x2="267.0" y2="81.8" stroke="#8b949e" stroke-dasharray="5 4"/>
<line x1="54.5" y1="267.8" x2="54.5" y2="328.0" stroke="#8b949e" stroke-dasharray="5 4"/>
<line x1="102.7" y1="549.9" x2="147.8" y2="549.9" stroke="#8b949e" stroke-dasharray="5 4"/>
<polygon points="392.1,309.3 473.9,262.0 560.5,235.6 547.9,194.2 456.6,222.0 370.4,271.8" fill="#58a6ff" fill-opacity="0.09" stroke="#58a6ff" stroke-opacity="0.36" stroke-dasharray="6 3"/>
<polygon points="395.5,296.4 470.1,253.3 548.8,229.4 541.7,206.0 460.3,230.7 383.3,275.2" fill="#58a6ff" fill-opacity="0.23" stroke="#58a6ff" stroke-opacity="0.72" stroke-width="1.4" stroke-dasharray="6 3"/>
<polyline points="400.0,279.7 465.2,242.0 533.5,221.2" fill="none" stroke="#58a6ff" stroke-opacity="0.72" stroke-width="2.7"/>
<circle cx="400.0" cy="279.7" r="3" fill="#f0f6fc"/>
<circle cx="533.5" cy="221.2" r="4" fill="#58a6ff" stroke="#f0f6fc"/>
<text x="404.0" y="275.7" font-size="10">B10/p3</text>
<polygon points="489.4,161.5 385.0,221.8 288.8,229.1 136.3,174.2 121.6,215.0 282.8,273.1 398.1,264.3 511.1,199.1" fill="#f2cc60" fill-opacity="0.09" stroke="#f2cc60" stroke-opacity="0.36" stroke-dasharray="6 3"/>
<polygon points="485.9,174.4 387.8,231.0 287.5,238.6 141.9,186.2 133.6,209.4 284.1,263.6 395.3,255.1 498.2,195.7" fill="#f2cc60" fill-opacity="0.23" stroke="#f2cc60" stroke-opacity="0.72" stroke-width="1.4" stroke-dasharray="6 3"/>
<polyline points="481.4,191.2 391.6,243.0 285.8,251.1 149.3,202.0" fill="none" stroke="#f2cc60" stroke-opacity="0.72" stroke-width="2.7"/>
<circle cx="481.4" cy="191.2" r="3" fill="#f0f6fc"/>
<circle cx="149.3" cy="202.0" r="4" fill="#f2cc60" stroke="#f0f6fc"/>
<text x="485.4" y="187.2" font-size="10">B11/p5</text>
<polygon points="175.8,197.6 355.1,197.6 458.2,130.2 608.2,93.1 595.8,43.2 437.5,82.4 339.8,146.2 175.8,146.2" fill="#f2cc60" fill-opacity="0.09" stroke="#f2cc60" stroke-opacity="0.36" stroke-dasharray="6 3"/>
<polygon points="185.2,188.2 352.3,188.2 454.4,121.4 596.8,86.2 589.0,54.6 441.3,91.2 342.6,155.6 185.2,155.6" fill="#f2cc60" fill-opacity="0.23" stroke="#f2cc60" stroke-opacity="0.72" stroke-width="1.4" stroke-dasharray="6 3"/>
<polyline points="201.4,171.9 347.4,171.9 447.8,106.3 577.1,74.3" fill="none" stroke="#f2cc60" stroke-opacity="0.72" stroke-width="2.7"/>
<circle cx="201.4" cy="171.9" r="3" fill="#f0f6fc"/>
<circle cx="577.1" cy="74.3" r="4" fill="#f2cc60" stroke="#f0f6fc"/>
<text x="205.4" y="167.9" font-size="10">B12/p5</text>
<polygon points="548.2,67.5 178.6,67.5 178.6,21.0 548.2,21.0" fill="#56d364" fill-opacity="0.09" stroke="#56d364" stroke-opacity="0.36" stroke-dasharray="6 3"/>
<polygon points="538.8,58.1 188.0,58.1 188.0,30.4 538.8,30.4" fill="#56d364" fill-opacity="0.23" stroke="#56d364" stroke-opacity="0.72" stroke-width="1.4" stroke-dasharray="6 3"/>
<polyline points="525.0,44.2 201.8,44.2" fill="none" stroke="#56d364" stroke-opacity="0.72" stroke-width="2.7"/>
<circle cx="525.0" cy="44.2" r="3" fill="#f0f6fc"/>
<circle cx="201.8" cy="44.2" r="4" fill="#56d364" stroke="#f0f6fc"/>
<text x="529.0" y="40.2" font-size="10">B13/p4</text>
<polygon points="295.8,89.6 142.4,178.1 59.8,297.1 25.2,273.1 113.1,146.3 274.7,53.1" fill="#56d364" fill-opacity="0.09" stroke="#56d364" stroke-opacity="0.36" stroke-dasharray="6 3"/>
<polygon points="282.9,86.1 135.9,171.0 57.5,284.1 38.3,270.7 119.7,153.4 271.2,65.9" fill="#56d364" fill-opacity="0.23" stroke="#56d364" stroke-opacity="0.72" stroke-width="1.4" stroke-dasharray="6 3"/>
<polyline points="267.0,81.8 127.8,162.2 54.5,267.8" fill="none" stroke="#56d364" stroke-opacity="0.72" stroke-width="2.7"/>
<circle cx="267.0" cy="81.8" r="3" fill="#f0f6fc"/>
<circle cx="54.5" cy="267.8" r="4" fill="#56d364" stroke="#f0f6fc"/>
<text x="271.0" y="77.8" font-size="10">B14/p4</text>
<polygon points="74.6,307.9 74.6,432.6 129.0,560.5 92.1,576.2 34.5,440.8 34.5,307.9" fill="#56d364" fill-opacity="0.09" stroke="#56d364" stroke-opacity="0.36" stroke-dasharray="6 3"/>
<polygon points="65.2,317.3 65.2,434.6 116.7,555.5 97.1,563.8 43.9,438.9 43.9,317.3" fill="#56d364" fill-opacity="0.23" stroke="#56d364" stroke-opacity="0.72" stroke-width="1.4" stroke-dasharray="6 3"/>
<polyline points="54.5,328.0 54.5,436.7 102.7,549.9" fill="none" stroke="#56d364" stroke-opacity="0.72" stroke-width="2.7"/>
<circle cx="54.5" cy="328.0" r="3" fill="#f0f6fc"/>
<circle cx="102.7" cy="549.9" r="4" fill="#56d364" stroke="#f0f6fc"/>
<text x="58.5" y="324.0" font-size="10">B15/p4</text>
<polygon points="171.2,573.2 171.2,446.5 137.2,350.3 156.1,229.3 109.9,222.1 89.2,354.7 124.5,454.5 124.5,573.2" fill="#56d364" fill-opacity="0.09" stroke="#56d364" stroke-opacity="0.36" stroke-dasharray="6 3"/>
<polygon points="161.8,563.8 161.8,448.1 127.6,351.2 145.3,237.1 117.8,232.8 98.9,353.8 133.9,452.9 133.9,563.8" fill="#56d364" fill-opacity="0.23" stroke="#56d364" stroke-opacity="0.72" stroke-width="1.4" stroke-dasharray="6 3"/>
<polyline points="147.8,549.9 147.8,450.5 113.2,352.5 129.4,248.8" fill="none" stroke="#56d364" stroke-opacity="0.72" stroke-width="2.7"/>
<circle cx="147.8" cy="549.9" r="3" fill="#f0f6fc"/>
<circle cx="129.4" cy="248.8" r="4" fill="#56d364" stroke="#f0f6fc"/>
<text x="151.8" y="545.9" font-size="10">B16/p4</text>
<text x="24" y="830" font-size="14">ÉCHEC · seed 4 · front 9/9 · back 7/9</text>
<text x="24" y="852" font-size="11">violations ['back_return', 'back_incomplete']</text>
<text x="24" y="890" font-size="11">demi-plan theta=0° bande=40 · hors-camp=8 · paires front-back collées=2</text>
<text x="24" y="870" font-size="11">rough partagé : cœur plein, rough translucide, pile &gt; 3 en rose · F=plein, B=tirets</text>
</svg>
