<svg xmlns="http://www.w3.org/2000/svg" width="800" height="900">
<rect width="100%" height="100%" fill="#0d1117"/>
<rect x="24" y="24" width="752.0" height="752.0" fill="#161b22" stroke="#8b949e"/>
<style>text{font-family:monospace;fill:#c9d1d9}</style>
<line x1="-1104.0" y1="400.0" x2="1904.0" y2="400.0" stroke="#f778ba" stroke-opacity="0.22" stroke-width="1.6" stroke-dasharray="0"/>
<line x1="-1104.0" y1="437.6" x2="1904.0" y2="437.6" stroke="#f778ba" stroke-opacity="0.12" stroke-width="1.6" stroke-dasharray="4 6"/>
<line x1="-1104.0" y1="362.4" x2="1904.0" y2="362.4" stroke="#f778ba" stroke-opacity="0.12" stroke-width="1.6" stroke-dasharray="4 6"/>
<circle cx="400.0" cy="400.0" r="4" fill="#f0f6fc"/>
<circle cx="400.0" cy="400.0" r="18.8" fill="none" stroke="#f0f6fc" stroke-opacity="0.45" stroke-width="1.2" stroke-dasharray="3 3"/>
<line x1="621.4" y1="400.0" x2="556.3" y2="437.6" stroke="#8b949e" stroke-dasharray="5 4"/>
<line x1="481.8" y1="668.5" x2="481.8" y2="713.6" stroke="#8b949e" stroke-dasharray="5 4"/>
<line x1="689.9" y1="593.4" x2="712.5" y2="554.4" stroke="#8b949e" stroke-dasharray="5 4"/>
<line x1="712.5" y1="253.7" x2="712.5" y2="178.5" stroke="#8b949e" stroke-dasharray="5 4"/>
<line x1="577.0" y1="100.3" x2="501.8" y2="100.3" stroke="#8b949e" stroke-dasharray="5 4"/>
<line x1="675.5" y1="281.8" x2="636.4" y2="304.4" stroke="#8b949e" stroke-dasharray="5 4"/>
<line x1="472.8" y1="135.2" x2="435.2" y2="200.4" stroke="#8b949e" stroke-dasharray="5 4"/>
<line x1="315.9" y1="596.0" x2="355.0" y2="573.4" stroke="#8b949e" stroke-dasharray="5 4"/>
<polygon points="448.7,381.0 640.4,381.0 640.4,419.0 448.7,419.0" fill="#58a6ff" fill-opacity="0.12" stroke="#58a6ff" stroke-opacity="0.50" stroke-dasharray="0"/>
<polygon points="458.1,390.4 631.0,390.4 631.0,409.6 458.1,409.6" fill="#58a6ff" fill-opacity="0.32" stroke="#58a6ff" stroke-opacity="1.0" stroke-width="1.4" stroke-dasharray="0"/>
<polyline points="467.7,400.0 621.4,400.0" fill="none" stroke="#58a6ff" stroke-opacity="1.0" stroke-width="2.7"/>
<circle cx="467.7" cy="400.0" r="3" fill="#f0f6fc"/>
<circle cx="621.4" cy="400.0" r="4" fill="#58a6ff" stroke="#f0f6fc"/>
<text x="471.7" y="396.0" font-size="10">F1/p3</text>
<polygon points="589.5,428.7 514.5,558.5 504.2,694.5 455.7,690.9 466.9,543.8 547.4,404.4" fill="#56d364" fill-opacity="0.12" stroke="#56d364" stroke-opacity="0.50" stroke-dasharray="0"/>
<polygon points="576.6,432.1 505.3,555.7 495.6,684.5 465.8,682.2 476.1,546.6 550.8,417.2" fill="#56d364" fill-opacity="0.32" stroke="#56d364" stroke-opacity="1.0" stroke-width="1.4" stroke-dasharray="0"/>
<polyline points="556.3,437.6 490.7,551.1 481.8,668.5" fill="none" stroke="#56d364" stroke-opacity="1.0" stroke-width="2.7"/>
<circle cx="556.3" cy="437.6" r="3" fill="#f0f6fc"/>
<circle cx="481.8" cy="668.5" r="4" fill="#56d364" stroke="#f0f6fc"/>
<text x="560.3" y="433.6" font-size="10">F2/p4</text>
<polygon points="474.5,741.0 717.4,600.8 697.3,566.0 454.4,706.2" fill="#56d364" fill-opacity="0.12" stroke="#56d364" stroke-opacity="0.50" stroke-dasharray="0"/>
<polygon points="477.9,728.2 704.5,597.3 693.8,578.8 467.2,709.7" fill="#56d364" fill-opacity="0.32" stroke="#56d364" stroke-opacity="1.0" stroke-width="1.4" stroke-dasharray="0"/>
<polyline points="481.8,713.6 689.9,593.4" fill="none" stroke="#56d364" stroke-opacity="1.0" stroke-width="2.7"/>
<circle cx="481.8" cy="713.6" r="3" fill="#f0f6fc"/>
<circle cx="689.9" cy="593.4" r="4" fill="#56d364" stroke="#f0f6fc"/>
<text x="485.8" y="709.6" font-size="10">F3/p4</text>
<polygon points="689.0,577.8 689.0,230.2 736.0,230.2 736.0,577.8" fill="#56d364" fill-opacity="0.12" stroke="#56d364" stroke-opacity="0.50" stroke-dasharray="0"/>
<polygon points="698.4,568.4 698.4,239.6 726.6,239.6 726.6,568.4" fill="#56d364" fill-opacity="0.32" stroke="#56d364" stroke-opacity="1.0" stroke-width="1.4" stroke-dasharray="0"/>
<polyline points="712.5,554.4 712.5,253.7" fill="none" stroke="#56d364" stroke-opacity="1.0" stroke-width="2.7"/>
<circle cx="712.5" cy="554.4" r="3" fill="#f0f6fc"/>
<circle cx="712.5" cy="253.7" r="4" fill="#56d364" stroke="#f0f6fc"/>
<text x="716.5" y="550.4" font-size="10">F4/p4</text>
<polygon points="738.3,171.6 570.1,74.5 551.2,107.2 719.4,204.3" fill="#58a6ff" fill-opacity="0.12" stroke="#58a6ff" stroke-opacity="0.50" stroke-dasharray="0"/>
<polygon points="725.5,175.0 573.6,87.3 564.1,103.8 716.0,191.5" fill="#58a6ff" fill-opacity="0.32" stroke="#58a6ff" stroke-opacity="1.0" stroke-width="1.4" stroke-dasharray="0"/>
<polyline points="712.5,178.5 577.0,100.3" fill="none" stroke="#58a6ff" stroke-opacity="1.0" stroke-width="2.7"/>
<circle cx="712.5" cy="178.5" r="3" fill="#f0f6fc"/>
<circle cx="577.0" cy="100.3" r="4" fill="#58a6ff" stroke="#f0f6fc"/>
<text x="716.5" y="174.5" font-size="10">F5/p3</text>
<polygon points="509.7,70.8 572.5,179.5 705.6,277.2 680.1,312.0 539.7,208.9 472.4,92.4" fill="#56d364" fill-opacity="0.12" stroke="#56d364" stroke-opacity="0.50" stroke-dasharray="0"/>
<polygon points="506.3,83.7 565.3,185.9 692.5,279.2 678.1,298.9 546.8,202.5 485.2,95.8" fill="#56d364" fill-opacity="0.32" stroke="#56d364" stroke-opacity="1.0" stroke-width="1.4" stroke-dasharray="0"/>
<polyline points="501.8,100.3 556.1,194.2 675.5,281.8" fill="none" stroke="#56d364" stroke-opacity="1.0" stroke-width="2.7"/>
<circle cx="501.8" cy="100.3" r="3" fill="#f0f6fc"/>
<circle cx="675.5" cy="281.8" r="4" fill="#56d364" stroke="#f0f6fc"/>
<text x="505.8" y="96.3" font-size="10">F6/p4</text>
<polygon points="645.5,338.6 547.6,282.0 482.1,208.0 439.1,124.4 483.6,101.5 523.7,179.5 579.7,242.8 670.6,295.2" fill="#56d364" fill-opacity="0.12" stroke="#56d364" stroke-opacity="0.50" stroke-dasharray="0"/>
<polygon points="642.1,325.7 553.6,274.7 489.9,202.7 451.7,128.5 479.5,114.2 515.9,184.9 573.7,250.1 657.7,298.7" fill="#56d364" fill-opacity="0.32" stroke="#56d364" stroke-opacity="1.0" stroke-width="1.4" stroke-dasharray="0"/>
<polyline points="636.4,304.4 563.6,262.4 502.9,193.8 472.8,135.2" fill="none" stroke="#56d364" stroke-opacity="1.0" stroke-width="2.7"/>
<circle cx="636.4" cy="304.4" r="3" fill="#f0f6fc"/>
<circle cx="472.8" cy="135.2" r="4" fill="#56d364" stroke="#f0f6fc"/>
<text x="640.4" y="300.4" font-size="10">F7/p4</text>
<polygon points="465.8,192.1 350.8,391.3 336.9,619.8 292.1,617.0 306.7,378.0 426.9,169.7" fill="#f2cc60" fill-opacity="0.12" stroke="#f2cc60" stroke-opacity="0.50" stroke-dasharray="0"/>
<polygon points="453.0,195.6 341.6,388.5 328.1,609.8 302.1,608.2 315.9,380.8 430.4,182.5" fill="#f2cc60" fill-opacity="0.32" stroke="#f2cc60" stroke-opacity="1.0" stroke-width="1.4" stroke-dasharray="0"/>
<polyline points="435.2,200.4 328.7,384.7 315.9,596.0" fill="none" stroke="#f2cc60" stroke-opacity="1.0" stroke-width="2.7"/>
<circle cx="435.2" cy="200.4" r="3" fill="#f0f6fc"/>
<circle cx="315.9" cy="596.0" r="4" fill="#f2cc60" stroke="#f0f6fc"/>
<text x="439.2" y="196.4" font-size="10">F8/p5</text>
<polygon points="363.6,605.5 465.7,428.6 425.0,405.1 322.9,582.0" fill="#58a6ff" fill-opacity="0.12" stroke="#58a6ff" stroke-opacity="0.50" stroke-dasharray="0"/>
<polygon points="360.1,592.7 452.9,432.1 428.4,418.0 335.7,578.6" fill="#58a6ff" fill-opacity="0.32" stroke="#58a6ff" stroke-opacity="1.0" stroke-width="1.4" stroke-dasharray="0"/>
<polyline points="355.0,573.4 433.6,437.2" fill="none" stroke="#58a6ff" stroke-opacity="1.0" stroke-width="2.7"/>
<circle cx="355.0" cy="573.4" r="3" fill="#f0f6fc"/>
<circle cx="433.6" cy="437.2" r="4" fill="#58a6ff" stroke="#f0f6fc"/>
<text x="359.0" y="569.4" font-size="10">F9/p3</text>
<line x1="249.6" y1="173.7" x2="184.5" y2="211.3" stroke="#8b949e" stroke-dasharray="5 4"/>
<line x1="143.2" y1="576.2" x2="105.6" y2="511.1" stroke="#8b949e" stroke-dasharray="5 4"/>
<line x1="167.2" y1="119.8" x2="137.1" y2="67.7" stroke="#8b949e" stroke-dasharray="5 4"/>
<line x1="53.5" y1="212.6" x2="53.5" y2="287.8" stroke="#8b949e" stroke-dasharray="5 4"/>
<line x1="53.5" y1="586.7" x2="91.1" y2="651.8" stroke="#8b949e" stroke-dasharray="5 4"/>
<line x1="327.1" y1="740.7" x2="402.3" y2="740.7" stroke="#8b949e" stroke-dasharray="5 4"/>
<polygon points="272.8,423.2 272.8,150.5 226.4,150.5 226.4,423.2" fill="#56d364" fill-opacity="0.09" stroke="#56d364" stroke-opacity="0.36" stroke-dasharray="6 3"/>
<polygon points="263.4,413.8 263.4,159.9 235.8,159.9 235.8,413.8" fill="#56d364" fill-opacity="0.23" stroke="#56d364" stroke-opacity="0.72" stroke-width="1.4" stroke-dasharray="6 3"/>
<polyline points="249.6,400.0 249.6,173.7" fill="none" stroke="#56d364" stroke-opacity="0.72" stroke-width="2.7"/>
<circle cx="249.6" cy="400.0" r="3" fill="#f0f6fc"/>
<circle cx="249.6" cy="173.7" r="4" fill="#56d364" stroke="#f0f6fc"/>
<text x="253.6" y="396.0" font-size="10">B10/p4</text>
<polygon points="161.4,188.2 161.4,403.4 115.3,593.2 160.2,604.1 207.6,408.9 207.6,188.2" fill="#f2cc60" fill-opacity="0.09" stroke="#f2cc60" stroke-opacity="0.36" stroke-dasharray="6 3"/>
<polygon points="170.8,197.6 170.8,404.5 126.6,586.3 153.3,592.8 198.2,407.8 198.2,197.6" fill="#f2cc60" fill-opacity="0.23" stroke="#f2cc60" stroke-opacity="0.72" stroke-width="1.4" stroke-dasharray="6 3"/>
<polyline points="184.5,211.3 184.5,406.1 143.2,576.2" fill="none" stroke="#f2cc60" stroke-opacity="0.72" stroke-width="2.7"/>
<circle cx="184.5" cy="211.3" r="3" fill="#f0f6fc"/>
<circle cx="143.2" cy="576.2" r="4" fill="#f2cc60" stroke="#f0f6fc"/>
<text x="188.5" y="207.3" font-size="10">B11/p5</text>
<polygon points="83.1,533.6 83.1,278.0 154.2,90.8 196.2,106.7 128.1,286.3 128.1,533.6" fill="#f2cc60" fill-opacity="0.09" stroke="#f2cc60" stroke-opacity="0.36" stroke-dasharray="6 3"/>
<polygon points="92.5,524.2 92.5,279.7 159.6,102.9 184.1,112.2 118.7,284.5 118.7,524.2" fill="#f2cc60" fill-opacity="0.23" stroke="#f2cc60" stroke-opacity="0.72" stroke-width="1.4" stroke-dasharray="6 3"/>
<polyline points="105.6,511.1 105.6,282.1 167.2,119.8" fill="none" stroke="#f2cc60" stroke-opacity="0.72" stroke-width="2.7"/>
<circle cx="105.6" cy="511.1" r="3" fill="#f0f6fc"/>
<circle cx="167.2" cy="119.8" r="4" fill="#f2cc60" stroke="#f0f6fc"/>
<text x="109.6" y="507.1" font-size="10">B12/p5</text>
<polygon points="163.0,60.7 60.4,238.5 27.6,219.6 130.2,41.8" fill="#58a6ff" fill-opacity="0.09" stroke="#58a6ff" stroke-opacity="0.36" stroke-dasharray="6 3"/>
<polygon points="150.2,64.2 57.0,225.7 40.4,216.1 133.7,54.6" fill="#58a6ff" fill-opacity="0.23" stroke="#58a6ff" stroke-opacity="0.72" stroke-width="1.4" stroke-dasharray="6 3"/>
<polyline points="137.1,67.7 53.5,212.6" fill="none" stroke="#58a6ff" stroke-opacity="0.72" stroke-width="2.7"/>
<circle cx="137.1" cy="67.7" r="3" fill="#f0f6fc"/>
<circle cx="53.5" cy="212.6" r="4" fill="#58a6ff" stroke="#f0f6fc"/>
<text x="141.1" y="63.7" font-size="10">B13/p3</text>
<polygon points="76.7,264.6 76.7,609.9 30.3,609.9 30.3,264.6" fill="#56d364" fill-opacity="0.09" stroke="#56d364" stroke-opacity="0.36" stroke-dasharray="6 3"/>
<polygon points="67.3,274.0 67.3,600.5 39.7,600.5 39.7,274.0" fill="#56d364" fill-opacity="0.23" stroke="#56d364" stroke-opacity="0.72" stroke-width="1.4" stroke-dasharray="6 3"/>
<polyline points="53.5,287.8 53.5,586.7" fill="none" stroke="#56d364" stroke-opacity="0.72" stroke-width="2.7"/>
<circle cx="53.5" cy="287.8" r="3" fill="#f0f6fc"/>
<circle cx="53.5" cy="586.7" r="4" fill="#56d364" stroke="#f0f6fc"/>
<text x="57.5" y="283.8" font-size="10">B14/p4</text>
<polygon points="59.0,660.4 182.1,731.4 344.7,768.7 355.2,723.0 199.4,687.3 82.5,619.8" fill="#56d364" fill-opacity="0.09" stroke="#56d364" stroke-opacity="0.36" stroke-dasharray="6 3"/>
<polygon points="71.9,656.9 185.6,722.6 337.6,757.5 343.9,730.1 196.0,696.1 85.9,632.6" fill="#56d364" fill-opacity="0.23" stroke="#56d364" stroke-opacity="0.72" stroke-width="1.4" stroke-dasharray="6 3"/>
<polyline points="91.1,651.8 190.8,709.4 327.1,740.7" fill="none" stroke="#56d364" stroke-opacity="0.72" stroke-width="2.7"/>
<circle cx="91.1" cy="651.8" r="3" fill="#f0f6fc"/>
<circle cx="327.1" cy="740.7" r="4" fill="#56d364" stroke="#f0f6fc"/>
<text x="95.1" y="647.8" font-size="10">B15/p4</text>
<polygon points="430.0,733.2 336.4,679.2 272.5,601.7 170.0,554.6 153.1,591.4 247.2,634.7 309.9,710.7 409.7,768.3" fill="#56d364" fill-opacity="0.09" stroke="#56d364" stroke-opacity="0.36" stroke-dasharray="6 3"/>
<polygon points="417.1,736.7 330.3,686.5 266.6,609.4 174.6,567.1 165.6,586.8 253.0,627.0 316.0,703.4 406.3,755.5" fill="#56d364" fill-opacity="0.23" stroke="#56d364" stroke-opacity="0.72" stroke-width="1.4" stroke-dasharray="6 3"/>
<polyline points="402.3,740.7 323.2,695.0 259.8,618.2 180.0,581.5" fill="none" stroke="#56d364" stroke-opacity="0.72" stroke-width="2.7"/>
<circle cx="402.3" cy="740.7" r="3" fill="#f0f6fc"/>
<circle cx="180.0" cy="581.5" r="4" fill="#56d364" stroke="#f0f6fc"/>
<text x="406.3" y="736.7" font-size="10">B16/p4</text>
<text x="24" y="830" font-size="14">ÉCHEC · seed 8 · front 9/9 · back 7/9</text>
<text x="24" y="852" font-size="11">violations ['back_return', 'back_incomplete']</text>
<text x="24" y="890" font-size="11">demi-plan theta=0° bande=40 · hors-camp=14 · paires front-back collées=0</text>
<text x="24" y="870" font-size="11">rough partagé : cœur plein, rough translucide, pile &gt; 3 en rose · F=plein, B=tirets</text>
</svg>
