<svg xmlns="http://www.w3.org/2000/svg" width="800" height="880">
<rect width="100%" height="100%" fill="#0d1117"/>
<rect x="24" y="24" width="752.0" height="752.0" fill="#161b22" stroke="#8b949e"/>
<style>text{font-family:monospace;fill:#c9d1d9}</style>
<circle cx="400.0" cy="400.0" r="10" fill="#f0f6fc"/>
<line x1="168.9" y1="400.0" x2="194.7" y2="355.3" stroke="#8b949e" stroke-dasharray="5 4"/>
<line x1="194.7" y1="149.8" x2="254.2" y2="115.4" stroke="#8b949e" stroke-dasharray="5 4"/>
<line x1="632.5" y1="116.3" x2="632.5" y2="202.2" stroke="#8b949e" stroke-dasharray="5 4"/>
<line x1="702.6" y1="639.8" x2="745.6" y2="565.4" stroke="#8b949e" stroke-dasharray="5 4"/>
<polygon points="370.7,377.8 146.6,377.8 146.6,422.2 370.7,422.2" fill="#58a6ff" fill-opacity="0.18" stroke="#58a6ff" stroke-opacity="1.0"/>
<polyline points="348.4,400.0 168.9,400.0" fill="none" stroke="#58a6ff" stroke-opacity="1.0" stroke-width="2.7"/>
<circle cx="348.4" cy="400.0" r="3" fill="#f0f6fc"/>
<circle cx="168.9" cy="400.0" r="4" fill="#58a6ff" stroke="#f0f6fc"/>
<text x="352.4" y="396.0" font-size="10">F1/p3</text>
<polygon points="173.0,377.0 173.0,128.1 216.3,128.1 216.3,377.0" fill="#58a6ff" fill-opacity="0.18" stroke="#58a6ff" stroke-opacity="1.0"/>
<polyline points="194.7,355.3 194.7,149.8" fill="none" stroke="#58a6ff" stroke-opacity="1.0" stroke-width="2.7"/>
<circle cx="194.7" cy="355.3" r="3" fill="#f0f6fc"/>
<circle cx="194.7" cy="149.8" r="4" fill="#58a6ff" stroke="#f0f6fc"/>
<text x="198.7" y="351.3" font-size="10">F2/p3</text>
<polygon points="229.4,140.2 362.3,140.2 510.3,174.3 662.9,133.9 650.2,85.9 509.5,123.1 368.0,90.6 229.4,90.6" fill="#f2cc60" fill-opacity="0.18" stroke="#f2cc60" stroke-opacity="1.0"/>
<polyline points="254.2,115.4 365.2,115.4 509.9,148.7 632.5,116.3" fill="none" stroke="#f2cc60" stroke-opacity="1.0" stroke-width="2.7"/>
<circle cx="254.2" cy="115.4" r="3" fill="#f0f6fc"/>
<circle cx="632.5" cy="116.3" r="4" fill="#f2cc60" stroke="#f0f6fc"/>
<text x="258.2" y="111.4" font-size="10">F3/p5</text>
<polygon points="607.3,177.0 607.3,456.9 687.8,672.2 735.1,654.6 657.7,447.8 657.7,177.0" fill="#f2cc60" fill-opacity="0.18" stroke="#f2cc60" stroke-opacity="1.0"/>
<polyline points="632.5,202.2 632.5,452.4 702.6,639.8" fill="none" stroke="#f2cc60" stroke-opacity="1.0" stroke-width="2.7"/>
<circle cx="632.5" cy="202.2" r="3" fill="#f0f6fc"/>
<circle cx="702.6" cy="639.8" r="4" fill="#f2cc60" stroke="#f0f6fc"/>
<text x="636.5" y="198.2" font-size="10">F4/p5</text>
<polygon points="773.2,593.0 773.2,216.2 718.0,216.2 718.0,593.0" fill="#56d364" fill-opacity="0.18" stroke="#56d364" stroke-opacity="1.0"/>
<polyline points="745.6,565.4 745.6,243.8" fill="none" stroke="#56d364" stroke-opacity="1.0" stroke-width="2.7"/>
<circle cx="745.6" cy="565.4" r="3" fill="#f0f6fc"/>
<circle cx="745.6" cy="243.8" r="4" fill="#56d364" stroke="#f0f6fc"/>
<text x="749.6" y="561.4" font-size="10">F5/p4</text>
<line x1="400.0" y1="633.6" x2="451.6" y2="633.6" stroke="#8b949e" stroke-dasharray="5 4"/>
<line x1="629.2" y1="633.6" x2="586.2" y2="708.0" stroke="#8b949e" stroke-dasharray="5 4"/>
<line x1="122.3" y1="629.5" x2="79.4" y2="555.0" stroke="#8b949e" stroke-dasharray="5 4"/>
<polygon points="377.4,428.9 377.4,656.2 422.6,656.2 422.6,428.9" fill="#58a6ff" fill-opacity="0.13" stroke="#58a6ff" stroke-opacity="0.72"/>
<polyline points="400.0,451.6 400.0,633.6" fill="none" stroke="#58a6ff" stroke-opacity="0.72" stroke-width="2.7"/>
<circle cx="400.0" cy="451.6" r="3" fill="#f0f6fc"/>
<circle cx="400.0" cy="633.6" r="4" fill="#58a6ff" stroke="#f0f6fc"/>
<text x="404.0" y="447.6" font-size="10">B10/p3</text>
<polygon points="427.4,657.8 653.4,657.8 653.4,609.4 427.4,609.4" fill="#58a6ff" fill-opacity="0.13" stroke="#58a6ff" stroke-opacity="0.72"/>
<polyline points="451.6,633.6 629.2,633.6" fill="none" stroke="#58a6ff" stroke-opacity="0.72" stroke-width="2.7"/>
<circle cx="451.6" cy="633.6" r="3" fill="#f0f6fc"/>
<circle cx="629.2" cy="633.6" r="4" fill="#58a6ff" stroke="#f0f6fc"/>
<text x="455.6" y="629.6" font-size="10">B11/p3</text>
<polygon points="612.7,734.6 344.5,734.6 88.5,645.9 105.9,595.6 353.5,681.5 612.7,681.5" fill="#f2cc60" fill-opacity="0.13" stroke="#f2cc60" stroke-opacity="0.72"/>
<polyline points="586.2,708.0 349.0,708.0 122.3,629.5" fill="none" stroke="#f2cc60" stroke-opacity="0.72" stroke-width="2.7"/>
<circle cx="586.2" cy="708.0" r="3" fill="#f0f6fc"/>
<circle cx="122.3" cy="629.5" r="4" fill="#f2cc60" stroke="#f0f6fc"/>
<text x="590.2" y="704.0" font-size="10">B12/p5</text>
<polygon points="54.4,580.0 54.4,302.9 123.5,94.5 171.0,110.3 104.4,311.0 104.4,580.0" fill="#f2cc60" fill-opacity="0.13" stroke="#f2cc60" stroke-opacity="0.72"/>
<polyline points="79.4,555.0 79.4,306.9 139.4,126.1" fill="none" stroke="#f2cc60" stroke-opacity="0.72" stroke-width="2.7"/>
<circle cx="79.4" cy="555.0" r="3" fill="#f0f6fc"/>
<circle cx="139.4" cy="126.1" r="4" fill="#f2cc60" stroke="#f0f6fc"/>
<text x="83.4" y="551.0" font-size="10">B13/p5</text>
<text x="24" y="830" font-size="14">ÉCHEC · seed 42 · front 5/9 · back 4/9</text>
<text x="24" y="852" font-size="11">violations ['front_return', 'back_return']</text>
</svg>
