<svg xmlns="http://www.w3.org/2000/svg" width="800" height="900">
<rect width="100%" height="100%" fill="#0d1117"/>
<rect x="24" y="24" width="752.0" height="752.0" fill="#161b22" stroke="#8b949e"/>
<style>text{font-family:monospace;fill:#c9d1d9}</style>
<line x1="400.0" y1="-1104.0" x2="400.0" y2="1904.0" stroke="#f778ba" stroke-opacity="0.22" stroke-width="1.6" stroke-dasharray="0"/>
<line x1="357.0" y1="-1104.0" x2="357.0" y2="1904.0" stroke="#f778ba" stroke-opacity="0.12" stroke-width="1.6" stroke-dasharray="4 6"/>
<line x1="443.0" y1="-1104.0" x2="443.0" y2="1904.0" stroke="#f778ba" stroke-opacity="0.12" stroke-width="1.6" stroke-dasharray="4 6"/>
<circle cx="400.0" cy="400.0" r="4" fill="#f0f6fc"/>
<circle cx="400.0" cy="400.0" r="21.5" fill="none" stroke="#f0f6fc" stroke-opacity="0.45" stroke-width="1.2" stroke-dasharray="3 3"/>
<line x1="618.2" y1="333.0" x2="644.0" y2="288.4" stroke="#8b949e" stroke-dasharray="5 4"/>
<line x1="180.2" y1="209.8" x2="254.6" y2="166.8" stroke="#8b949e" stroke-dasharray="5 4"/>
<line x1="632.9" y1="167.6" x2="573.4" y2="133.3" stroke="#8b949e" stroke-dasharray="5 4"/>
<line x1="328.3" y1="55.5" x2="283.6" y2="81.3" stroke="#8b949e" stroke-dasharray="5 4"/>
<line x1="82.6" y1="253.8" x2="39.6" y2="179.4" stroke="#8b949e" stroke-dasharray="5 4"/>
<line x1="104.2" y1="437.0" x2="147.2" y2="511.4" stroke="#8b949e" stroke-dasharray="5 4"/>
<line x1="192.6" y1="256.4" x2="218.3" y2="301.1" stroke="#8b949e" stroke-dasharray="5 4"/>
<line x1="218.3" y1="506.6" x2="218.3" y2="558.2" stroke="#8b949e" stroke-dasharray="5 4"/>
<polygon points="416.4,310.8 640.5,310.8 640.5,355.2 416.4,355.2" fill="#58a6ff" fill-opacity="0.12" stroke="#58a6ff" stroke-opacity="0.50" stroke-dasharray="0"/>
<polygon points="427.2,321.5 629.7,321.5 629.7,344.5 427.2,344.5" fill="#58a6ff" fill-opacity="0.32" stroke="#58a6ff" stroke-opacity="1.0" stroke-width="1.4" stroke-dasharray="0"/>
<polyline points="438.7,333.0 618.2,333.0" fill="none" stroke="#58a6ff" stroke-opacity="1.0" stroke-width="2.7"/>
<circle cx="438.7" cy="333.0" r="3" fill="#f0f6fc"/>
<circle cx="618.2" cy="333.0" r="4" fill="#58a6ff" stroke="#f0f6fc"/>
<text x="442.7" y="329.0" font-size="10">F1/p3</text>
<polygon points="670.6,314.9 402.4,314.9 146.4,226.2 163.8,176.0 411.3,261.8 670.6,261.8" fill="#f2cc60" fill-opacity="0.12" stroke="#f2cc60" stroke-opacity="0.50" stroke-dasharray="0"/>
<polygon points="659.8,304.2 404.2,304.2 160.0,219.5 170.4,189.6 409.5,272.5 659.8,272.5" fill="#f2cc60" fill-opacity="0.32" stroke="#f2cc60" stroke-opacity="1.0" stroke-width="1.4" stroke-dasharray="0"/>
<polyline points="644.0,288.4 406.8,288.4 180.2,209.8" fill="none" stroke="#f2cc60" stroke-opacity="1.0" stroke-width="2.7"/>
<circle cx="644.0" cy="288.4" r="3" fill="#f0f6fc"/>
<circle cx="180.2" cy="209.8" r="4" fill="#f2cc60" stroke="#f0f6fc"/>
<text x="648.0" y="284.4" font-size="10">F2/p5</text>
<polygon points="229.8,191.6 362.7,191.6 510.7,225.7 663.3,185.3 650.6,137.3 509.9,174.5 368.4,142.0 229.8,142.0" fill="#f2cc60" fill-opacity="0.12" stroke="#f2cc60" stroke-opacity="0.50" stroke-dasharray="0"/>
<polygon points="240.5,180.9 364.0,180.9 510.5,214.6 650.2,177.7 642.9,150.4 510.1,185.6 367.2,152.7 240.5,152.7" fill="#f2cc60" fill-opacity="0.32" stroke="#f2cc60" stroke-opacity="1.0" stroke-width="1.4" stroke-dasharray="0"/>
<polyline points="254.6,166.8 365.6,166.8 510.3,200.1 632.9,167.6" fill="none" stroke="#f2cc60" stroke-opacity="1.0" stroke-width="2.7"/>
<circle cx="254.6" cy="166.8" r="3" fill="#f0f6fc"/>
<circle cx="632.9" cy="167.6" r="4" fill="#f2cc60" stroke="#f0f6fc"/>
<text x="258.6" y="162.8" font-size="10">F3/p5</text>
<polygon points="607.0,124.3 485.7,54.2 307.6,27.6 300.3,76.2 469.2,101.5 582.4,166.9" fill="#56d364" fill-opacity="0.12" stroke="#56d364" stroke-opacity="0.50" stroke-dasharray="0"/>
<polygon points="592.3,128.2 482.1,64.6 316.6,39.8 312.5,67.2 472.8,91.2 578.5,152.2" fill="#56d364" fill-opacity="0.32" stroke="#56d364" stroke-opacity="1.0" stroke-width="1.4" stroke-dasharray="0"/>
<polyline points="573.4,133.3 477.4,77.9 328.3,55.5" fill="none" stroke="#56d364" stroke-opacity="1.0" stroke-width="2.7"/>
<circle cx="573.4" cy="133.3" r="3" fill="#f0f6fc"/>
<circle cx="328.3" cy="55.5" r="4" fill="#56d364" stroke="#f0f6fc"/>
<text x="577.4" y="129.3" font-size="10">F4/p4</text>
<polygon points="292.8,47.2 145.2,132.3 47.5,258.3 87.0,288.9 178.7,170.7 317.8,90.5" fill="#56d364" fill-opacity="0.12" stroke="#56d364" stroke-opacity="0.50" stroke-dasharray="0"/>
<polygon points="288.8,61.8 152.4,140.6 62.6,256.4 85.1,273.8 171.6,162.5 303.1,86.5" fill="#56d364" fill-opacity="0.32" stroke="#56d364" stroke-opacity="1.0" stroke-width="1.4" stroke-dasharray="0"/>
<polyline points="283.6,81.3 162.0,151.5 82.6,253.8" fill="none" stroke="#56d364" stroke-opacity="1.0" stroke-width="2.7"/>
<circle cx="283.6" cy="81.3" r="3" fill="#f0f6fc"/>
<circle cx="82.6" cy="253.8" r="4" fill="#56d364" stroke="#f0f6fc"/>
<text x="287.6" y="77.3" font-size="10">F5/p4</text>
<polygon points="63.7,155.4 63.7,295.9 136.2,448.3 92.8,468.9 15.6,306.8 15.6,155.4" fill="#56d364" fill-opacity="0.12" stroke="#56d364" stroke-opacity="0.50" stroke-dasharray="0"/>
<polygon points="52.9,166.1 52.9,298.3 121.9,443.2 97.9,454.6 26.4,304.3 26.4,166.1" fill="#56d364" fill-opacity="0.32" stroke="#56d364" stroke-opacity="1.0" stroke-width="1.4" stroke-dasharray="0"/>
<polyline points="39.6,179.4 39.6,301.3 104.2,437.0" fill="none" stroke="#56d364" stroke-opacity="1.0" stroke-width="2.7"/>
<circle cx="39.6" cy="179.4" r="3" fill="#f0f6fc"/>
<circle cx="104.2" cy="437.0" r="4" fill="#56d364" stroke="#f0f6fc"/>
<text x="43.6" y="175.4" font-size="10">F6/p4</text>
<polygon points="171.2,535.4 171.2,381.5 223.5,242.4 178.5,225.4 123.1,372.7 123.1,535.4" fill="#56d364" fill-opacity="0.12" stroke="#56d364" stroke-opacity="0.50" stroke-dasharray="0"/>
<polygon points="160.4,524.7 160.4,379.5 209.7,248.6 184.8,239.3 133.9,374.7 133.9,524.7" fill="#56d364" fill-opacity="0.32" stroke="#56d364" stroke-opacity="1.0" stroke-width="1.4" stroke-dasharray="0"/>
<polyline points="147.2,511.4 147.2,377.1 192.6,256.4" fill="none" stroke="#56d364" stroke-opacity="1.0" stroke-width="2.7"/>
<circle cx="147.2" cy="511.4" r="3" fill="#f0f6fc"/>
<circle cx="192.6" cy="256.4" r="4" fill="#56d364" stroke="#f0f6fc"/>
<text x="151.2" y="507.4" font-size="10">F7/p4</text>
<polygon points="196.7,279.4 196.7,528.3 240.0,528.3 240.0,279.4" fill="#58a6ff" fill-opacity="0.12" stroke="#58a6ff" stroke-opacity="0.50" stroke-dasharray="0"/>
<polygon points="207.4,290.1 207.4,517.5 229.3,517.5 229.3,290.1" fill="#58a6ff" fill-opacity="0.32" stroke="#58a6ff" stroke-opacity="1.0" stroke-width="1.4" stroke-dasharray="0"/>
<polyline points="218.3,301.1 218.3,506.6" fill="none" stroke="#58a6ff" stroke-opacity="1.0" stroke-width="2.7"/>
<circle cx="218.3" cy="301.1" r="3" fill="#f0f6fc"/>
<circle cx="218.3" cy="506.6" r="4" fill="#58a6ff" stroke="#f0f6fc"/>
<text x="222.3" y="297.1" font-size="10">F8/p3</text>
<polygon points="186.9,549.7 456.1,394.4 479.1,434.2 209.9,589.6" fill="#56d364" fill-opacity="0.12" stroke="#56d364" stroke-opacity="0.50" stroke-dasharray="0"/>
<polygon points="201.6,553.7 452.1,409.0 464.4,430.3 213.9,574.9" fill="#56d364" fill-opacity="0.32" stroke="#56d364" stroke-opacity="1.0" stroke-width="1.4" stroke-dasharray="0"/>
<polyline points="218.3,558.2 447.7,425.8" fill="none" stroke="#56d364" stroke-opacity="1.0" stroke-width="2.7"/>
<circle cx="218.3" cy="558.2" r="3" fill="#f0f6fc"/>
<circle cx="447.7" cy="425.8" r="4" fill="#56d364" stroke="#f0f6fc"/>
<text x="222.3" y="554.2" font-size="10">F9/p4</text>
<line x1="287.3" y1="607.2" x2="331.9" y2="633.0" stroke="#8b949e" stroke-dasharray="5 4"/>
<line x1="608.7" y1="633.0" x2="534.2" y2="676.0" stroke="#8b949e" stroke-dasharray="5 4"/>
<line x1="184.2" y1="723.4" x2="243.7" y2="757.8" stroke="#8b949e" stroke-dasharray="5 4"/>
<line x1="572.3" y1="757.8" x2="572.3" y2="706.2" stroke="#8b949e" stroke-dasharray="5 4"/>
<line x1="726.1" y1="617.4" x2="681.5" y2="591.6" stroke="#8b949e" stroke-dasharray="5 4"/>
<line x1="747.0" y1="342.3" x2="721.3" y2="297.6" stroke="#8b949e" stroke-dasharray="5 4"/>
<polygon points="486.2,498.6 373.1,563.8 285.5,643.0 251.5,605.4 343.2,522.7 460.8,454.7" fill="#58a6ff" fill-opacity="0.09" stroke="#58a6ff" stroke-opacity="0.36" stroke-dasharray="6 3"/>
<polygon points="471.5,494.7 366.8,555.1 286.2,627.8 266.7,606.2 349.5,531.4 456.9,469.4" fill="#58a6ff" fill-opacity="0.23" stroke="#58a6ff" stroke-opacity="0.72" stroke-width="1.4" stroke-dasharray="6 3"/>
<polyline points="451.6,489.3 358.1,543.3 287.3,607.2" fill="none" stroke="#58a6ff" stroke-opacity="0.72" stroke-width="2.7"/>
<circle cx="451.6" cy="489.3" r="3" fill="#f0f6fc"/>
<circle cx="287.3" cy="607.2" r="4" fill="#58a6ff" stroke="#f0f6fc"/>
<text x="455.6" y="485.3" font-size="10">B10/p3</text>
<polygon points="305.0,606.1 635.6,606.1 635.6,660.0 305.0,660.0" fill="#56d364" fill-opacity="0.09" stroke="#56d364" stroke-opacity="0.36" stroke-dasharray="6 3"/>
<polygon points="315.7,616.8 624.9,616.8 624.9,649.2 315.7,649.2" fill="#56d364" fill-opacity="0.23" stroke="#56d364" stroke-opacity="0.72" stroke-width="1.4" stroke-dasharray="6 3"/>
<polyline points="331.9,633.0 608.7,633.0" fill="none" stroke="#56d364" stroke-opacity="0.72" stroke-width="2.7"/>
<circle cx="331.9" cy="633.0" r="3" fill="#f0f6fc"/>
<circle cx="608.7" cy="633.0" r="4" fill="#56d364" stroke="#f0f6fc"/>
<text x="335.9" y="629.0" font-size="10">B11/p4</text>
<polygon points="557.9,699.6 361.2,699.6 167.6,752.4 155.2,706.8 354.9,652.4 557.9,652.4" fill="#56d364" fill-opacity="0.09" stroke="#56d364" stroke-opacity="0.36" stroke-dasharray="6 3"/>
<polygon points="547.1,688.9 359.8,688.9 175.2,739.2 168.4,714.4 356.4,663.1 547.1,663.1" fill="#56d364" fill-opacity="0.23" stroke="#56d364" stroke-opacity="0.72" stroke-width="1.4" stroke-dasharray="6 3"/>
<polyline points="534.2,676.0 358.1,676.0 184.2,723.4" fill="none" stroke="#56d364" stroke-opacity="0.72" stroke-width="2.7"/>
<circle cx="534.2" cy="676.0" r="3" fill="#f0f6fc"/>
<circle cx="184.2" cy="723.4" r="4" fill="#56d364" stroke="#f0f6fc"/>
<text x="538.2" y="672.0" font-size="10">B12/p4</text>
<polygon points="218.0,732.1 598.1,732.1 598.1,783.5 218.0,783.5" fill="#56d364" fill-opacity="0.09" stroke="#56d364" stroke-opacity="0.36" stroke-dasharray="6 3"/>
<polygon points="228.8,742.8 587.3,742.8 587.3,772.7 228.8,772.7" fill="#56d364" fill-opacity="0.23" stroke="#56d364" stroke-opacity="0.72" stroke-width="1.4" stroke-dasharray="6 3"/>
<polyline points="243.7,757.8 572.3,757.8" fill="none" stroke="#56d364" stroke-opacity="0.72" stroke-width="2.7"/>
<circle cx="243.7" cy="757.8" r="3" fill="#f0f6fc"/>
<circle cx="572.3" cy="757.8" r="4" fill="#56d364" stroke="#f0f6fc"/>
<text x="247.7" y="753.8" font-size="10">B13/p4</text>
<polygon points="563.5,739.3 759.2,626.3 735.0,584.4 539.3,697.4" fill="#58a6ff" fill-opacity="0.09" stroke="#58a6ff" stroke-opacity="0.36" stroke-dasharray="6 3"/>
<polygon points="567.4,724.6 744.5,622.3 731.1,599.0 554.0,701.3" fill="#58a6ff" fill-opacity="0.23" stroke="#58a6ff" stroke-opacity="0.72" stroke-width="1.4" stroke-dasharray="6 3"/>
<polyline points="572.3,706.2 726.1,617.4" fill="none" stroke="#58a6ff" stroke-opacity="0.72" stroke-width="2.7"/>
<circle cx="572.3" cy="706.2" r="3" fill="#f0f6fc"/>
<circle cx="726.1" cy="617.4" r="4" fill="#58a6ff" stroke="#f0f6fc"/>
<text x="576.3" y="702.2" font-size="10">B14/p3</text>
<polygon points="644.0,601.7 716.2,476.5 720.3,314.2 775.2,315.5 770.8,491.9 691.5,629.1" fill="#56d364" fill-opacity="0.09" stroke="#56d364" stroke-opacity="0.36" stroke-dasharray="6 3"/>
<polygon points="658.6,597.8 726.9,479.5 730.7,325.2 764.2,326.0 760.1,488.9 687.6,614.5" fill="#56d364" fill-opacity="0.23" stroke="#56d364" stroke-opacity="0.72" stroke-width="1.4" stroke-dasharray="6 3"/>
<polyline points="681.5,591.6 743.5,484.2 747.0,342.3" fill="none" stroke="#56d364" stroke-opacity="0.72" stroke-width="2.7"/>
<circle cx="681.5" cy="591.6" r="3" fill="#f0f6fc"/>
<circle cx="747.0" cy="342.3" r="4" fill="#56d364" stroke="#f0f6fc"/>
<text x="685.5" y="587.6" font-size="10">B15/p4</text>
<polygon points="753.0,289.1 660.2,449.9 649.9,617.3 603.5,614.5 614.4,436.2 712.7,265.9" fill="#56d364" fill-opacity="0.09" stroke="#56d364" stroke-opacity="0.36" stroke-dasharray="6 3"/>
<polygon points="738.3,293.1 649.6,446.7 639.8,605.9 614.9,604.4 625.0,439.3 716.7,280.6" fill="#56d364" fill-opacity="0.23" stroke="#56d364" stroke-opacity="0.72" stroke-width="1.4" stroke-dasharray="6 3"/>
<polyline points="721.3,297.6 637.3,443.0 628.1,592.7" fill="none" stroke="#56d364" stroke-opacity="0.72" stroke-width="2.7"/>
<circle cx="721.3" cy="297.6" r="3" fill="#f0f6fc"/>
<circle cx="628.1" cy="592.7" r="4" fill="#56d364" stroke="#f0f6fc"/>
<text x="725.3" y="293.6" font-size="10">B16/p4</text>
<text x="24" y="830" font-size="14">ÉCHEC · seed 42 · front 9/9 · back 7/9</text>
<text x="24" y="852" font-size="11">violations ['back_return', 'back_incomplete']</text>
<text x="24" y="890" font-size="11">demi-plan theta=90° bande=40 · hors-camp=1 · paires front-back collées=0</text>
<text x="24" y="870" font-size="11">rough partagé : cœur plein, rough translucide, pile &gt; 3 en rose · F=plein, B=tirets</text>
</svg>
