<svg xmlns="http://www.w3.org/2000/svg" width="800" height="880">
<rect width="100%" height="100%" fill="#0d1117"/>
<rect x="24" y="24" width="752.0" height="752.0" fill="#161b22" stroke="#8b949e"/>
<style>text{font-family:monospace;fill:#c9d1d9}</style>
<circle cx="400.0" cy="400.0" r="4" fill="#f0f6fc"/>
<circle cx="400.0" cy="400.0" r="18.8" fill="none" stroke="#f0f6fc" stroke-opacity="0.45" stroke-width="1.2" stroke-dasharray="3 3"/>
<line x1="595.1" y1="444.9" x2="634.1" y2="467.5" stroke="#8b949e" stroke-dasharray="5 4"/>
<line x1="634.1" y1="238.2" x2="596.5" y2="303.4" stroke="#8b949e" stroke-dasharray="5 4"/>
<line x1="529.6" y1="81.2" x2="574.8" y2="81.2" stroke="#8b949e" stroke-dasharray="5 4"/>
<line x1="726.3" y1="256.2" x2="687.2" y2="278.7" stroke="#8b949e" stroke-dasharray="5 4"/>
<line x1="646.9" y1="645.9" x2="712.0" y2="683.5" stroke="#8b949e" stroke-dasharray="5 4"/>
<line x1="485.7" y1="707.1" x2="485.7" y2="662.0" stroke="#8b949e" stroke-dasharray="5 4"/>
<line x1="621.9" y1="545.1" x2="621.9" y2="500.0" stroke="#8b949e" stroke-dasharray="5 4"/>
<line x1="466.6" y1="589.6" x2="429.0" y2="654.8" stroke="#8b949e" stroke-dasharray="5 4"/>
<line x1="400.0" y1="400.0" x2="458.6" y2="366.2" stroke="#f0f6fc" stroke-opacity="0.50" stroke-width="1" stroke-dasharray="2 3"/>
<line x1="440.5" y1="403.1" x2="400.0" y2="400.0" stroke="#f0f6fc" stroke-opacity="0.50" stroke-width="1" stroke-dasharray="2 3"/>
<polygon points="451.4,339.1 622.1,437.7 602.3,472.0 431.6,373.4" fill="#58a6ff" fill-opacity="0.12" stroke="#58a6ff" stroke-opacity="0.50" stroke-dasharray="0"/>
<polygon points="454.8,352.0 609.3,441.1 598.9,459.1 444.4,370.0" fill="#58a6ff" fill-opacity="0.32" stroke="#58a6ff" stroke-opacity="1.0" stroke-width="1.4" stroke-dasharray="0"/>
<polyline points="458.6,366.2 595.1,444.9" fill="none" stroke="#58a6ff" stroke-opacity="1.0" stroke-width="2.7"/>
<circle cx="458.6" cy="366.2" r="3" fill="#f0f6fc"/>
<circle cx="595.1" cy="444.9" r="4" fill="#58a6ff" stroke="#f0f6fc"/>
<text x="462.6" y="362.2" font-size="10">F1/p3</text>
<polygon points="656.2,489.5 656.2,216.2 612.1,216.2 612.1,489.5" fill="#56d364" fill-opacity="0.12" stroke="#56d364" stroke-opacity="0.50" stroke-dasharray="0"/>
<polygon points="646.8,480.1 646.8,225.6 621.5,225.6 621.5,480.1" fill="#56d364" fill-opacity="0.32" stroke="#56d364" stroke-opacity="1.0" stroke-width="1.4" stroke-dasharray="0"/>
<polyline points="634.1,467.5 634.1,238.2" fill="none" stroke="#56d364" stroke-opacity="1.0" stroke-width="2.7"/>
<circle cx="634.1" cy="467.5" r="3" fill="#f0f6fc"/>
<circle cx="634.1" cy="238.2" r="4" fill="#56d364" stroke="#f0f6fc"/>
<text x="638.1" y="463.5" font-size="10">F2/p4</text>
<polygon points="627.4,311.6 553.6,183.8 551.9,58.2 506.7,58.8 508.6,196.2 588.3,334.2" fill="#56d364" fill-opacity="0.12" stroke="#56d364" stroke-opacity="0.50" stroke-dasharray="0"/>
<polygon points="614.6,308.2 544.3,186.4 542.7,67.8 516.2,68.1 517.9,193.7 591.7,321.4" fill="#56d364" fill-opacity="0.32" stroke="#56d364" stroke-opacity="1.0" stroke-width="1.4" stroke-dasharray="0"/>
<polyline points="596.5,303.4 531.1,190.0 529.6,81.2" fill="none" stroke="#56d364" stroke-opacity="1.0" stroke-width="2.7"/>
<circle cx="596.5" cy="303.4" r="3" fill="#f0f6fc"/>
<circle cx="529.6" cy="81.2" r="4" fill="#56d364" stroke="#f0f6fc"/>
<text x="600.5" y="299.4" font-size="10">F3/p4</text>
<polygon points="546.4,73.6 618.8,199.0 730.0,285.3 755.5,252.5 650.7,171.2 582.4,52.8" fill="#56d364" fill-opacity="0.12" stroke="#56d364" stroke-opacity="0.50" stroke-dasharray="0"/>
<polygon points="559.2,77.0 626.0,192.7 728.3,272.1 742.3,254.2 643.5,177.5 578.9,65.6" fill="#56d364" fill-opacity="0.32" stroke="#56d364" stroke-opacity="1.0" stroke-width="1.4" stroke-dasharray="0"/>
<polyline points="574.8,81.2 634.8,185.1 726.3,256.2" fill="none" stroke="#56d364" stroke-opacity="1.0" stroke-width="2.7"/>
<circle cx="574.8" cy="81.2" r="3" fill="#f0f6fc"/>
<circle cx="726.3" cy="256.2" r="4" fill="#56d364" stroke="#f0f6fc"/>
<text x="578.8" y="77.2" font-size="10">F4/p4</text>
<polygon points="662.7,254.2 662.7,471.4 617.4,664.2 665.2,675.4 711.8,477.1 711.8,254.2" fill="#f2cc60" fill-opacity="0.12" stroke="#f2cc60" stroke-opacity="0.50" stroke-dasharray="0"/>
<polygon points="672.1,263.6 672.1,472.5 628.7,657.2 658.2,664.1 702.4,476.0 702.4,263.6" fill="#f2cc60" fill-opacity="0.32" stroke="#f2cc60" stroke-opacity="1.0" stroke-width="1.4" stroke-dasharray="0"/>
<polyline points="687.2,278.7 687.2,474.3 646.9,645.9" fill="none" stroke="#f2cc60" stroke-opacity="1.0" stroke-width="2.7"/>
<circle cx="687.2" cy="278.7" r="3" fill="#f0f6fc"/>
<circle cx="646.9" cy="645.9" r="4" fill="#f2cc60" stroke="#f0f6fc"/>
<text x="691.2" y="274.7" font-size="10">F5/p5</text>
<polygon points="733.8,661.7 589.8,661.7 459.7,690.5 469.1,733.1 594.6,705.3 733.8,705.3" fill="#56d364" fill-opacity="0.12" stroke="#56d364" stroke-opacity="0.50" stroke-dasharray="0"/>
<polygon points="724.4,671.1 590.9,671.1 470.9,697.7 476.3,721.9 593.6,695.9 724.4,695.9" fill="#56d364" fill-opacity="0.32" stroke="#56d364" stroke-opacity="1.0" stroke-width="1.4" stroke-dasharray="0"/>
<polyline points="712.0,683.5 592.2,683.5 485.7,707.1" fill="none" stroke="#56d364" stroke-opacity="1.0" stroke-width="2.7"/>
<circle cx="712.0" cy="683.5" r="3" fill="#f0f6fc"/>
<circle cx="485.7" cy="707.1" r="4" fill="#56d364" stroke="#f0f6fc"/>
<text x="716.0" y="679.5" font-size="10">F6/p4</text>
<polygon points="477.4,692.8 585.5,630.4 653.5,540.8 617.5,513.5 555.0,595.9 454.9,653.7" fill="#58a6ff" fill-opacity="0.12" stroke="#58a6ff" stroke-opacity="0.50" stroke-dasharray="0"/>
<polygon points="480.9,680.0 579.1,623.2 640.3,542.6 619.3,526.7 561.4,603.1 467.7,657.1" fill="#58a6ff" fill-opacity="0.32" stroke="#58a6ff" stroke-opacity="1.0" stroke-width="1.4" stroke-dasharray="0"/>
<polyline points="485.7,662.0 570.3,613.1 621.9,545.1" fill="none" stroke="#58a6ff" stroke-opacity="1.0" stroke-width="2.7"/>
<circle cx="485.7" cy="662.0" r="3" fill="#f0f6fc"/>
<circle cx="621.9" cy="545.1" r="4" fill="#58a6ff" stroke="#f0f6fc"/>
<text x="489.7" y="658.0" font-size="10">F7/p3</text>
<polygon points="648.6,507.2 459.5,616.3 439.9,582.5 629.0,473.3" fill="#58a6ff" fill-opacity="0.12" stroke="#58a6ff" stroke-opacity="0.50" stroke-dasharray="0"/>
<polygon points="635.7,503.7 462.9,603.5 452.8,585.9 625.6,486.2" fill="#58a6ff" fill-opacity="0.32" stroke="#58a6ff" stroke-opacity="1.0" stroke-width="1.4" stroke-dasharray="0"/>
<polyline points="621.9,500.0 466.6,589.6" fill="none" stroke="#58a6ff" stroke-opacity="1.0" stroke-width="2.7"/>
<circle cx="621.9" cy="500.0" r="3" fill="#f0f6fc"/>
<circle cx="466.6" cy="589.6" r="4" fill="#58a6ff" stroke="#f0f6fc"/>
<text x="625.9" y="496.0" font-size="10">F8/p3</text>
<polygon points="404.8,679.0 404.8,566.2 429.9,491.1 412.8,383.0 460.7,375.4 479.7,495.2 453.3,574.1 453.3,679.0" fill="#56d364" fill-opacity="0.12" stroke="#56d364" stroke-opacity="0.50" stroke-dasharray="0"/>
<polygon points="414.2,669.6 414.2,567.7 439.5,491.9 423.5,390.8 452.9,386.1 470.0,494.4 443.9,572.6 443.9,669.6" fill="#56d364" fill-opacity="0.32" stroke="#56d364" stroke-opacity="1.0" stroke-width="1.4" stroke-dasharray="0"/>
<polyline points="429.0,654.8 429.0,570.1 454.8,493.1 440.5,403.1" fill="none" stroke="#56d364" stroke-opacity="1.0" stroke-width="2.7"/>
<circle cx="429.0" cy="654.8" r="3" fill="#f0f6fc"/>
<circle cx="440.5" cy="403.1" r="4" fill="#56d364" stroke="#f0f6fc"/>
<text x="433.0" y="650.8" font-size="10">F9/p4</text>
<line x1="76.0" y1="559.6" x2="106.0" y2="611.7" stroke="#8b949e" stroke-dasharray="5 4"/>
<line x1="419.8" y1="713.2" x2="484.9" y2="750.8" stroke="#8b949e" stroke-dasharray="5 4"/>
<line x1="162.1" y1="672.9" x2="132.0" y2="725.0" stroke="#8b949e" stroke-dasharray="5 4"/>
<line x1="58.5" y1="597.7" x2="58.5" y2="522.5" stroke="#8b949e" stroke-dasharray="5 4"/>
<line x1="58.5" y1="243.9" x2="58.5" y2="168.7" stroke="#8b949e" stroke-dasharray="5 4"/>
<line x1="311.6" y1="83.4" x2="363.7" y2="113.5" stroke="#8b949e" stroke-dasharray="5 4"/>
<line x1="116.1" y1="370.4" x2="146.2" y2="422.5" stroke="#8b949e" stroke-dasharray="5 4"/>
<line x1="345.9" y1="170.7" x2="398.0" y2="140.6" stroke="#8b949e" stroke-dasharray="5 4"/>
<line x1="400.0" y1="400.0" x2="358.6" y2="471.6" stroke="#f0f6fc" stroke-opacity="0.36" stroke-width="1" stroke-dasharray="2 3"/>
<line x1="341.4" y1="429.8" x2="400.0" y2="400.0" stroke="#f0f6fc" stroke-opacity="0.36" stroke-width="1" stroke-dasharray="2 3"/>
<polygon points="366.1,443.6 220.1,528.0 53.9,540.7 57.1,581.6 232.5,568.2 386.7,479.1" fill="#56d364" fill-opacity="0.09" stroke="#56d364" stroke-opacity="0.36" stroke-dasharray="6 3"/>
<polygon points="362.7,456.5 222.9,537.2 64.0,549.3 65.7,571.5 229.6,558.9 373.8,475.7" fill="#56d364" fill-opacity="0.23" stroke="#56d364" stroke-opacity="0.72" stroke-width="1.4" stroke-dasharray="6 3"/>
<polyline points="358.6,471.6 226.3,548.1 76.0,559.6" fill="none" stroke="#56d364" stroke-opacity="0.72" stroke-width="2.7"/>
<circle cx="358.6" cy="471.6" r="3" fill="#f0f6fc"/>
<circle cx="76.0" cy="559.6" r="4" fill="#56d364" stroke="#f0f6fc"/>
<text x="362.6" y="467.6" font-size="10">B10/p4</text>
<polygon points="83.6,589.3 236.6,589.3 343.2,659.4 448.8,700.4 432.6,742.2 322.5,699.5 223.2,634.1 83.6,634.1" fill="#f2cc60" fill-opacity="0.09" stroke="#f2cc60" stroke-opacity="0.36" stroke-dasharray="6 3"/>
<polygon points="93.0,598.7 233.8,598.7 338.9,667.8 436.6,705.8 427.2,730.0 326.9,691.1 226.0,624.7 93.0,624.7" fill="#f2cc60" fill-opacity="0.23" stroke="#f2cc60" stroke-opacity="0.72" stroke-width="1.4" stroke-dasharray="6 3"/>
<polyline points="106.0,611.7 229.9,611.7 332.9,679.4 419.8,713.2" fill="none" stroke="#f2cc60" stroke-opacity="0.72" stroke-width="2.7"/>
<circle cx="106.0" cy="611.7" r="3" fill="#f0f6fc"/>
<circle cx="419.8" cy="713.2" r="4" fill="#f2cc60" stroke="#f0f6fc"/>
<text x="110.0" y="607.7" font-size="10">B11/p5</text>
<polygon points="506.3,729.4 310.3,729.4 153.6,643.9 133.1,681.4 299.3,772.2 506.3,772.2" fill="#f2cc60" fill-opacity="0.09" stroke="#f2cc60" stroke-opacity="0.36" stroke-dasharray="6 3"/>
<polygon points="496.9,738.8 307.9,738.8 157.3,656.7 145.8,677.7 301.7,762.8 496.9,762.8" fill="#f2cc60" fill-opacity="0.23" stroke="#f2cc60" stroke-opacity="0.72" stroke-width="1.4" stroke-dasharray="6 3"/>
<polyline points="484.9,750.8 304.8,750.8 162.1,672.9" fill="none" stroke="#f2cc60" stroke-opacity="0.72" stroke-width="2.7"/>
<circle cx="484.9" cy="750.8" r="3" fill="#f0f6fc"/>
<circle cx="162.1" cy="672.9" r="4" fill="#f2cc60" stroke="#f0f6fc"/>
<text x="488.9" y="746.8" font-size="10">B12/p5</text>
<polygon points="124.5,753.0 30.5,590.2 66.0,569.7 160.0,732.5" fill="#58a6ff" fill-opacity="0.09" stroke="#58a6ff" stroke-opacity="0.36" stroke-dasharray="6 3"/>
<polygon points="127.9,740.2 43.3,593.6 62.6,582.5 147.2,729.1" fill="#58a6ff" fill-opacity="0.23" stroke="#58a6ff" stroke-opacity="0.72" stroke-width="1.4" stroke-dasharray="6 3"/>
<polyline points="132.0,725.0 58.5,597.7" fill="none" stroke="#58a6ff" stroke-opacity="0.72" stroke-width="2.7"/>
<circle cx="132.0" cy="725.0" r="3" fill="#f0f6fc"/>
<circle cx="58.5" cy="597.7" r="4" fill="#58a6ff" stroke="#f0f6fc"/>
<text x="136.0" y="721.0" font-size="10">B13/p3</text>
<polygon points="78.7,542.7 78.7,223.7 38.3,223.7 38.3,542.7" fill="#56d364" fill-opacity="0.09" stroke="#56d364" stroke-opacity="0.36" stroke-dasharray="6 3"/>
<polygon points="69.3,533.3 69.3,233.1 47.7,233.1 47.7,533.3" fill="#56d364" fill-opacity="0.23" stroke="#56d364" stroke-opacity="0.72" stroke-width="1.4" stroke-dasharray="6 3"/>
<polyline points="58.5,522.5 58.5,243.9" fill="none" stroke="#56d364" stroke-opacity="0.72" stroke-width="2.7"/>
<circle cx="58.5" cy="522.5" r="3" fill="#f0f6fc"/>
<circle cx="58.5" cy="243.9" r="4" fill="#56d364" stroke="#f0f6fc"/>
<text x="62.5" y="518.5" font-size="10">B14/p4</text>
<polygon points="50.8,197.5 201.4,110.5 333.8,103.2 331.5,61.2 189.0,69.1 29.8,161.1" fill="#56d364" fill-opacity="0.09" stroke="#56d364" stroke-opacity="0.36" stroke-dasharray="6 3"/>
<polygon points="54.2,184.6 198.6,101.3 323.9,94.3 322.6,71.2 191.8,78.4 42.6,164.5" fill="#56d364" fill-opacity="0.23" stroke="#56d364" stroke-opacity="0.72" stroke-width="1.4" stroke-dasharray="6 3"/>
<polyline points="58.5,168.7 195.2,89.8 311.6,83.4" fill="none" stroke="#56d364" stroke-opacity="0.72" stroke-width="2.7"/>
<circle cx="58.5" cy="168.7" r="3" fill="#f0f6fc"/>
<circle cx="311.6" cy="83.4" r="4" fill="#56d364" stroke="#f0f6fc"/>
<text x="62.5" y="164.7" font-size="10">B15/p4</text>
<polygon points="395.7,122.0 220.7,223.1 125.8,402.1 84.5,380.1 185.7,189.2 372.3,81.5" fill="#f2cc60" fill-opacity="0.09" stroke="#f2cc60" stroke-opacity="0.36" stroke-dasharray="6 3"/>
<polygon points="382.9,118.6 213.7,216.3 121.9,389.3 97.2,376.2 192.7,196.0 368.9,94.3" fill="#f2cc60" fill-opacity="0.23" stroke="#f2cc60" stroke-opacity="0.72" stroke-width="1.4" stroke-dasharray="6 3"/>
<polyline points="363.7,113.5 203.2,206.2 116.1,370.4" fill="none" stroke="#f2cc60" stroke-opacity="0.72" stroke-width="2.7"/>
<circle cx="363.7" cy="113.5" r="3" fill="#f0f6fc"/>
<circle cx="116.1" cy="370.4" r="4" fill="#f2cc60" stroke="#f0f6fc"/>
<text x="367.7" y="109.5" font-size="10">B16/p5</text>
<polygon points="154.8,454.6 243.9,300.3 379.2,171.5 346.8,137.4 206.5,271.0 114.1,431.1" fill="#56d364" fill-opacity="0.09" stroke="#56d364" stroke-opacity="0.36" stroke-dasharray="6 3"/>
<polygon points="151.4,441.8 236.4,294.5 365.9,171.2 346.4,150.7 214.0,276.8 126.9,427.7" fill="#56d364" fill-opacity="0.23" stroke="#56d364" stroke-opacity="0.72" stroke-width="1.4" stroke-dasharray="6 3"/>
<polyline points="146.2,422.5 225.2,285.7 345.9,170.7" fill="none" stroke="#56d364" stroke-opacity="0.72" stroke-width="2.7"/>
<circle cx="146.2" cy="422.5" r="3" fill="#f0f6fc"/>
<circle cx="345.9" cy="170.7" r="4" fill="#56d364" stroke="#f0f6fc"/>
<text x="150.2" y="418.5" font-size="10">B17/p4</text>
<polygon points="375.7,118.2 375.7,275.4 312.6,442.9 354.4,458.6 420.4,283.5 420.4,118.2" fill="#56d364" fill-opacity="0.09" stroke="#56d364" stroke-opacity="0.36" stroke-dasharray="6 3"/>
<polygon points="385.1,127.6 385.1,277.1 324.7,437.4 349.0,446.5 411.0,281.8 411.0,127.6" fill="#56d364" fill-opacity="0.23" stroke="#56d364" stroke-opacity="0.72" stroke-width="1.4" stroke-dasharray="6 3"/>
<polyline points="398.0,140.6 398.0,279.5 341.4,429.8" fill="none" stroke="#56d364" stroke-opacity="0.72" stroke-width="2.7"/>
<circle cx="398.0" cy="140.6" r="3" fill="#f0f6fc"/>
<circle cx="341.4" cy="429.8" r="4" fill="#56d364" stroke="#f0f6fc"/>
<text x="402.0" y="136.6" font-size="10">B18/p4</text>
<text x="24" y="830" font-size="14">SUCCÈS · seed 2 · front 9/9 · back 9/9</text>
<text x="24" y="852" font-size="11">violations []</text>
<text x="24" y="870" font-size="11">rough partagé : cœur plein, rough translucide, pile &gt; 3 en rose · F=plein, B=tirets</text>
<line x1="400.0" y1="400.0" x2="458.6" y2="366.2" stroke="#ff2d7a" stroke-opacity="0.85" stroke-width="2.2"/><text x="433.3" y="379.1" font-size="10" fill="#ff2d7a">couloir tee1</text><line x1="400.0" y1="400.0" x2="358.6" y2="471.6" stroke="#ff2d7a" stroke-opacity="0.85" stroke-width="2.2"/><text x="383.3" y="431.8" font-size="10" fill="#ff2d7a">couloir tee10</text></svg>
