<svg xmlns="http://www.w3.org/2000/svg" width="800" height="900">
<rect width="100%" height="100%" fill="#0d1117"/>
<rect x="24" y="24" width="752.0" height="752.0" fill="#161b22" stroke="#8b949e"/>
<style>text{font-family:monospace;fill:#c9d1d9}</style>
<line x1="-1104.0" y1="400.0" x2="1904.0" y2="400.0" stroke="#f778ba" stroke-opacity="0.22" stroke-width="1.6" stroke-dasharray="0"/>
<line x1="-1104.0" y1="437.6" x2="1904.0" y2="437.6" stroke="#f778ba" stroke-opacity="0.12" stroke-width="1.6" stroke-dasharray="4 6"/>
<line x1="-1104.0" y1="362.4" x2="1904.0" y2="362.4" stroke="#f778ba" stroke-opacity="0.12" stroke-width="1.6" stroke-dasharray="4 6"/>
<circle cx="400.0" cy="400.0" r="4" fill="#f0f6fc"/>
<circle cx="400.0" cy="400.0" r="18.8" fill="none" stroke="#f0f6fc" stroke-opacity="0.45" stroke-width="1.2" stroke-dasharray="3 3"/>
<line x1="458.6" y1="581.0" x2="497.7" y2="603.6" stroke="#8b949e" stroke-dasharray="5 4"/>
<line x1="685.0" y1="453.5" x2="685.0" y2="498.6" stroke="#8b949e" stroke-dasharray="5 4"/>
<line x1="521.8" y1="706.1" x2="597.0" y2="706.1" stroke="#8b949e" stroke-dasharray="5 4"/>
<line x1="691.2" y1="601.6" x2="721.3" y2="549.5" stroke="#8b949e" stroke-dasharray="5 4"/>
<line x1="684.0" y1="191.1" x2="714.1" y2="139.0" stroke="#8b949e" stroke-dasharray="5 4"/>
<line x1="556.3" y1="139.0" x2="533.7" y2="178.1" stroke="#8b949e" stroke-dasharray="5 4"/>
<line x1="670.4" y1="357.6" x2="647.8" y2="396.7" stroke="#8b949e" stroke-dasharray="5 4"/>
<line x1="475.8" y1="197.2" x2="438.2" y2="132.1" stroke="#8b949e" stroke-dasharray="5 4"/>
<polygon points="477.5,414.9 477.5,599.9 439.7,599.9 439.7,414.9" fill="#58a6ff" fill-opacity="0.12" stroke="#58a6ff" stroke-opacity="0.50" stroke-dasharray="0"/>
<polygon points="468.1,424.3 468.1,590.5 449.1,590.5 449.1,424.3" fill="#58a6ff" fill-opacity="0.32" stroke="#58a6ff" stroke-opacity="1.0" stroke-width="1.4" stroke-dasharray="0"/>
<polyline points="458.6,433.8 458.6,581.0" fill="none" stroke="#58a6ff" stroke-opacity="1.0" stroke-width="2.7"/>
<circle cx="458.6" cy="433.8" r="3" fill="#f0f6fc"/>
<circle cx="458.6" cy="581.0" r="4" fill="#58a6ff" stroke="#f0f6fc"/>
<text x="462.6" y="429.8" font-size="10">F1/p3</text>
<polygon points="468.5,595.8 558.3,543.9 601.5,479.6 692.0,424.1 714.3,460.5 631.8,511.1 588.3,575.9 489.9,632.7" fill="#56d364" fill-opacity="0.12" stroke="#56d364" stroke-opacity="0.50" stroke-dasharray="0"/>
<polygon points="481.4,599.2 564.9,551.0 608.2,486.5 688.9,437.0 701.4,457.4 625.1,504.2 581.7,568.9 493.3,619.9" fill="#56d364" fill-opacity="0.32" stroke="#56d364" stroke-opacity="1.0" stroke-width="1.4" stroke-dasharray="0"/>
<polyline points="497.7,603.6 573.3,559.9 616.7,495.3 685.0,453.5" fill="none" stroke="#56d364" stroke-opacity="1.0" stroke-width="2.7"/>
<circle cx="497.7" cy="603.6" r="3" fill="#f0f6fc"/>
<circle cx="685.0" cy="453.5" r="4" fill="#56d364" stroke="#f0f6fc"/>
<text x="501.7" y="599.6" font-size="10">F2/p4</text>
<polygon points="712.2,491.3 634.9,625.2 521.2,734.3 493.6,705.5 603.2,600.4 677.7,471.3" fill="#56d364" fill-opacity="0.12" stroke="#56d364" stroke-opacity="0.50" stroke-dasharray="0"/>
<polygon points="699.4,494.7 627.4,619.4 521.4,721.0 506.9,705.8 610.7,606.2 681.1,484.2" fill="#56d364" fill-opacity="0.32" stroke="#56d364" stroke-opacity="1.0" stroke-width="1.4" stroke-dasharray="0"/>
<polyline points="685.0,498.6 619.0,612.8 521.8,706.1" fill="none" stroke="#56d364" stroke-opacity="1.0" stroke-width="2.7"/>
<circle cx="685.0" cy="498.6" r="3" fill="#f0f6fc"/>
<circle cx="521.8" cy="706.1" r="4" fill="#56d364" stroke="#f0f6fc"/>
<text x="689.0" y="494.6" font-size="10">F3/p4</text>
<polygon points="571.1,713.0 612.3,641.6 693.8,574.9 717.8,604.2 641.6,666.6 603.9,732.0" fill="#58a6ff" fill-opacity="0.12" stroke="#58a6ff" stroke-opacity="0.50" stroke-dasharray="0"/>
<polygon points="583.9,709.6 619.6,647.8 692.5,588.2 704.6,602.9 634.4,660.4 600.4,719.1" fill="#58a6ff" fill-opacity="0.32" stroke="#58a6ff" stroke-opacity="1.0" stroke-width="1.4" stroke-dasharray="0"/>
<polyline points="597.0,706.1 627.0,654.1 691.2,601.6" fill="none" stroke="#58a6ff" stroke-opacity="1.0" stroke-width="2.7"/>
<circle cx="597.0" cy="706.1" r="3" fill="#f0f6fc"/>
<circle cx="691.2" cy="601.6" r="4" fill="#58a6ff" stroke="#f0f6fc"/>
<text x="601.0" y="702.1" font-size="10">F4/p3</text>
<polygon points="745.0,573.2 745.0,359.6 702.1,162.9 655.8,173.0 697.6,364.7 697.6,573.2" fill="#f2cc60" fill-opacity="0.12" stroke="#f2cc60" stroke-opacity="0.50" stroke-dasharray="0"/>
<polygon points="735.6,563.8 735.6,360.6 694.9,174.1 667.0,180.2 707.0,363.7 707.0,563.8" fill="#f2cc60" fill-opacity="0.32" stroke="#f2cc60" stroke-opacity="1.0" stroke-width="1.4" stroke-dasharray="0"/>
<polyline points="721.3,549.5 721.3,362.1 684.0,191.1" fill="none" stroke="#f2cc60" stroke-opacity="1.0" stroke-width="2.7"/>
<circle cx="721.3" cy="549.5" r="3" fill="#f0f6fc"/>
<circle cx="684.0" cy="191.1" r="4" fill="#f2cc60" stroke="#f0f6fc"/>
<text x="725.3" y="545.5" font-size="10">F5/p5</text>
<polygon points="735.2,117.9 535.2,117.9 535.2,160.2 735.2,160.2" fill="#58a6ff" fill-opacity="0.12" stroke="#58a6ff" stroke-opacity="0.50" stroke-dasharray="0"/>
<polygon points="725.8,127.3 544.6,127.3 544.6,150.8 725.8,150.8" fill="#58a6ff" fill-opacity="0.32" stroke="#58a6ff" stroke-opacity="1.0" stroke-width="1.4" stroke-dasharray="0"/>
<polyline points="714.1,139.0 556.3,139.0" fill="none" stroke="#58a6ff" stroke-opacity="1.0" stroke-width="2.7"/>
<circle cx="714.1" cy="139.0" r="3" fill="#f0f6fc"/>
<circle cx="556.3" cy="139.0" r="4" fill="#58a6ff" stroke="#f0f6fc"/>
<text x="718.1" y="135.0" font-size="10">F6/p3</text>
<polygon points="542.5,145.3 604.6,252.8 704.3,358.6 669.4,391.5 565.8,281.6 500.9,169.3" fill="#56d364" fill-opacity="0.12" stroke="#56d364" stroke-opacity="0.50" stroke-dasharray="0"/>
<polygon points="539.1,158.2 597.0,258.4 691.0,358.2 669.8,378.2 573.4,276.0 513.8,172.8" fill="#56d364" fill-opacity="0.32" stroke="#56d364" stroke-opacity="1.0" stroke-width="1.4" stroke-dasharray="0"/>
<polyline points="533.7,178.1 585.2,267.2 670.4,357.6" fill="none" stroke="#56d364" stroke-opacity="1.0" stroke-width="2.7"/>
<circle cx="533.7" cy="178.1" r="3" fill="#f0f6fc"/>
<circle cx="670.4" cy="357.6" r="4" fill="#56d364" stroke="#f0f6fc"/>
<text x="537.7" y="174.1" font-size="10">F7/p4</text>
<polygon points="655.7,426.0 545.3,362.3 488.7,289.1 448.0,185.0 488.0,169.4 526.4,267.7 574.1,329.3 677.2,388.8" fill="#56d364" fill-opacity="0.12" stroke="#56d364" stroke-opacity="0.50" stroke-dasharray="0"/>
<polygon points="652.3,413.2 551.6,355.0 496.9,284.5 460.2,190.4 482.7,181.6 518.2,272.4 567.8,336.5 664.3,392.2" fill="#56d364" fill-opacity="0.32" stroke="#56d364" stroke-opacity="1.0" stroke-width="1.4" stroke-dasharray="0"/>
<polyline points="647.8,396.7 559.7,345.8 507.6,278.4 475.8,197.2" fill="none" stroke="#56d364" stroke-opacity="1.0" stroke-width="2.7"/>
<circle cx="647.8" cy="396.7" r="3" fill="#f0f6fc"/>
<circle cx="475.8" cy="197.2" r="4" fill="#56d364" stroke="#f0f6fc"/>
<text x="651.8" y="392.7" font-size="10">F8/p4</text>
<polygon points="418.2,112.1 418.2,399.7 458.2,399.7 458.2,112.1" fill="#56d364" fill-opacity="0.12" stroke="#56d364" stroke-opacity="0.50" stroke-dasharray="0"/>
<polygon points="427.6,121.5 427.6,390.3 448.8,390.3 448.8,121.5" fill="#56d364" fill-opacity="0.32" stroke="#56d364" stroke-opacity="1.0" stroke-width="1.4" stroke-dasharray="0"/>
<polyline points="438.2,132.1 438.2,379.6" fill="none" stroke="#56d364" stroke-opacity="1.0" stroke-width="2.7"/>
<circle cx="438.2" cy="132.1" r="3" fill="#f0f6fc"/>
<circle cx="438.2" cy="379.6" r="4" fill="#56d364" stroke="#f0f6fc"/>
<text x="442.2" y="128.1" font-size="10">F9/p4</text>
<line x1="219.5" y1="250.2" x2="181.9" y2="185.0" stroke="#8b949e" stroke-dasharray="5 4"/>
<line x1="109.4" y1="532.5" x2="139.5" y2="480.4" stroke="#8b949e" stroke-dasharray="5 4"/>
<line x1="242.6" y1="729.5" x2="203.5" y2="752.0" stroke="#8b949e" stroke-dasharray="5 4"/>
<line x1="52.9" y1="566.4" x2="52.9" y2="506.2" stroke="#8b949e" stroke-dasharray="5 4"/>
<line x1="130.0" y1="121.9" x2="130.0" y2="61.8" stroke="#8b949e" stroke-dasharray="5 4"/>
<line x1="396.2" y1="61.8" x2="471.4" y2="61.8" stroke="#8b949e" stroke-dasharray="5 4"/>
<line x1="216.9" y1="158.5" x2="282.1" y2="196.1" stroke="#8b949e" stroke-dasharray="5 4"/>
<line x1="223.0" y1="560.3" x2="245.5" y2="599.4" stroke="#8b949e" stroke-dasharray="5 4"/>
<polygon points="242.3,422.8 242.3,227.4 196.7,227.4 196.7,422.8" fill="#58a6ff" fill-opacity="0.09" stroke="#58a6ff" stroke-opacity="0.36" stroke-dasharray="6 3"/>
<polygon points="232.9,413.4 232.9,236.8 206.1,236.8 206.1,413.4" fill="#58a6ff" fill-opacity="0.23" stroke="#58a6ff" stroke-opacity="0.72" stroke-width="1.4" stroke-dasharray="6 3"/>
<polyline points="219.5,400.0 219.5,250.2" fill="none" stroke="#58a6ff" stroke-opacity="0.72" stroke-width="2.7"/>
<circle cx="219.5" cy="400.0" r="3" fill="#f0f6fc"/>
<circle cx="219.5" cy="250.2" r="4" fill="#58a6ff" stroke="#f0f6fc"/>
<text x="223.5" y="396.0" font-size="10">B10/p3</text>
<polygon points="212.8,176.7 117.1,342.6 133.7,553.3 88.6,556.8 70.9,332.1 173.6,154.1" fill="#f2cc60" fill-opacity="0.09" stroke="#f2cc60" stroke-opacity="0.36" stroke-dasharray="6 3"/>
<polygon points="200.0,180.2 107.5,340.4 123.6,544.7 97.2,546.7 80.5,334.3 177.1,167.0" fill="#f2cc60" fill-opacity="0.23" stroke="#f2cc60" stroke-opacity="0.72" stroke-width="1.4" stroke-dasharray="6 3"/>
<polyline points="181.9,185.0 94.0,337.3 109.4,532.5" fill="none" stroke="#f2cc60" stroke-opacity="0.72" stroke-width="2.7"/>
<circle cx="181.9" cy="185.0" r="3" fill="#f0f6fc"/>
<circle cx="109.4" cy="532.5" r="4" fill="#f2cc60" stroke="#f0f6fc"/>
<text x="185.9" y="181.0" font-size="10">B11/p5</text>
<polygon points="112.3,473.1 164.1,562.8 178.9,664.6 236.2,756.9 270.0,735.9 217.1,650.6 202.3,549.5 146.7,453.3" fill="#56d364" fill-opacity="0.09" stroke="#56d364" stroke-opacity="0.36" stroke-dasharray="6 3"/>
<polygon points="125.2,476.6 173.1,559.6 188.0,661.3 239.2,743.9 257.0,732.9 208.1,653.9 193.3,552.6 143.3,466.1" fill="#56d364" fill-opacity="0.23" stroke="#56d364" stroke-opacity="0.72" stroke-width="1.4" stroke-dasharray="6 3"/>
<polyline points="139.5,480.4 183.2,556.1 198.0,657.6 242.6,729.5" fill="none" stroke="#56d364" stroke-opacity="0.72" stroke-width="2.7"/>
<circle cx="139.5" cy="480.4" r="3" fill="#f0f6fc"/>
<circle cx="242.6" cy="729.5" r="4" fill="#56d364" stroke="#f0f6fc"/>
<text x="143.5" y="476.4" font-size="10">B12/p4</text>
<polygon points="234.6,760.4 160.8,632.6 51.2,534.3 20.9,568.1 125.1,661.6 195.2,783.1" fill="#56d364" fill-opacity="0.09" stroke="#56d364" stroke-opacity="0.36" stroke-dasharray="6 3"/>
<polygon points="221.7,756.9 153.4,638.6 51.9,547.6 34.1,567.4 132.5,655.6 198.7,770.2" fill="#56d364" fill-opacity="0.23" stroke="#56d364" stroke-opacity="0.72" stroke-width="1.4" stroke-dasharray="6 3"/>
<polyline points="203.5,752.0 142.9,647.1 52.9,566.4" fill="none" stroke="#56d364" stroke-opacity="0.72" stroke-width="2.7"/>
<circle cx="203.5" cy="752.0" r="3" fill="#f0f6fc"/>
<circle cx="52.9" cy="566.4" r="4" fill="#56d364" stroke="#f0f6fc"/>
<text x="207.5" y="748.0" font-size="10">B13/p4</text>
<polygon points="27.8,531.3 27.8,320.6 115.4,89.6 162.3,107.4 78.0,329.8 78.0,531.3" fill="#f2cc60" fill-opacity="0.09" stroke="#f2cc60" stroke-opacity="0.36" stroke-dasharray="6 3"/>
<polygon points="37.2,521.9 37.2,322.3 120.9,101.7 150.2,112.8 68.6,328.1 68.6,521.9" fill="#f2cc60" fill-opacity="0.23" stroke="#f2cc60" stroke-opacity="0.72" stroke-width="1.4" stroke-dasharray="6 3"/>
<polyline points="52.9,506.2 52.9,325.2 130.0,121.9" fill="none" stroke="#f2cc60" stroke-opacity="0.72" stroke-width="2.7"/>
<circle cx="52.9" cy="506.2" r="3" fill="#f0f6fc"/>
<circle cx="130.0" cy="121.9" r="4" fill="#f2cc60" stroke="#f0f6fc"/>
<text x="56.9" y="502.2" font-size="10">B14/p5</text>
<polygon points="107.5,84.3 418.7,84.3 418.7,39.3 107.5,39.3" fill="#56d364" fill-opacity="0.09" stroke="#56d364" stroke-opacity="0.36" stroke-dasharray="6 3"/>
<polygon points="116.9,74.9 409.3,74.9 409.3,48.7 116.9,48.7" fill="#56d364" fill-opacity="0.23" stroke="#56d364" stroke-opacity="0.72" stroke-width="1.4" stroke-dasharray="6 3"/>
<polyline points="130.0,61.8 396.2,61.8" fill="none" stroke="#56d364" stroke-opacity="0.72" stroke-width="2.7"/>
<circle cx="130.0" cy="61.8" r="3" fill="#f0f6fc"/>
<circle cx="396.2" cy="61.8" r="4" fill="#56d364" stroke="#f0f6fc"/>
<text x="134.0" y="57.8" font-size="10">B15/p4</text>
<polygon points="480.2,28.9 383.2,84.9 295.9,85.5 184.1,149.5 208.0,191.3 308.8,133.5 396.3,132.9 504.3,70.6" fill="#56d364" fill-opacity="0.09" stroke="#56d364" stroke-opacity="0.36" stroke-dasharray="6 3"/>
<polygon points="476.8,41.8 385.8,94.3 298.4,94.9 196.9,153.0 211.5,178.4 306.3,124.1 393.7,123.5 491.4,67.1" fill="#56d364" fill-opacity="0.23" stroke="#56d364" stroke-opacity="0.72" stroke-width="1.4" stroke-dasharray="6 3"/>
<polyline points="471.4,61.8 389.8,108.9 302.4,109.5 216.9,158.5" fill="none" stroke="#56d364" stroke-opacity="0.72" stroke-width="2.7"/>
<circle cx="471.4" cy="61.8" r="3" fill="#f0f6fc"/>
<circle cx="216.9" cy="158.5" r="4" fill="#56d364" stroke="#f0f6fc"/>
<text x="475.4" y="57.8" font-size="10">B16/p4</text>
<polygon points="305.6,172.5 305.6,368.3 238.7,589.6 193.6,576.0 258.5,361.4 258.5,172.5" fill="#f2cc60" fill-opacity="0.09" stroke="#f2cc60" stroke-opacity="0.36" stroke-dasharray="6 3"/>
<polygon points="296.2,181.9 296.2,366.9 232.4,577.9 205.4,569.7 267.9,362.8 267.9,181.9" fill="#f2cc60" fill-opacity="0.23" stroke="#f2cc60" stroke-opacity="0.72" stroke-width="1.4" stroke-dasharray="6 3"/>
<polyline points="282.1,196.1 282.1,364.8 223.0,560.3" fill="none" stroke="#f2cc60" stroke-opacity="0.72" stroke-width="2.7"/>
<circle cx="282.1" cy="196.1" r="3" fill="#f0f6fc"/>
<circle cx="223.0" cy="560.3" r="4" fill="#f2cc60" stroke="#f0f6fc"/>
<text x="286.1" y="192.1" font-size="10">B17/p5</text>
<polygon points="254.0,631.2 430.4,325.7 390.1,302.4 213.8,607.9" fill="#56d364" fill-opacity="0.09" stroke="#56d364" stroke-opacity="0.36" stroke-dasharray="6 3"/>
<polygon points="250.6,618.3 417.6,329.1 393.6,315.2 226.6,604.5" fill="#56d364" fill-opacity="0.23" stroke="#56d364" stroke-opacity="0.72" stroke-width="1.4" stroke-dasharray="6 3"/>
<polyline points="245.5,599.4 398.7,334.2" fill="none" stroke="#56d364" stroke-opacity="0.72" stroke-width="2.7"/>
<circle cx="245.5" cy="599.4" r="3" fill="#f0f6fc"/>
<circle cx="398.7" cy="334.2" r="4" fill="#56d364" stroke="#f0f6fc"/>
<text x="249.5" y="595.4" font-size="10">B18/p4</text>
<text x="24" y="830" font-size="14">SUCCÈS · seed 1 · front 9/9 · back 9/9</text>
<text x="24" y="852" font-size="11">violations []</text>
<text x="24" y="890" font-size="11">demi-plan theta=0° bande=40 · hors-camp=18 · paires front-back collées=2</text>
<text x="24" y="870" font-size="11">rough partagé : cœur plein, rough translucide, pile &gt; 3 en rose · F=plein, B=tirets</text>
</svg>
