<svg xmlns="http://www.w3.org/2000/svg" width="800" height="900">
<rect width="100%" height="100%" fill="#0d1117"/>
<rect x="24" y="24" width="752.0" height="752.0" fill="#161b22" stroke="#8b949e"/>
<style>text{font-family:monospace;fill:#c9d1d9}</style>
<line x1="-1104.0" y1="400.0" x2="1904.0" y2="400.0" stroke="#f778ba" stroke-opacity="0.22" stroke-width="1.6" stroke-dasharray="0"/>
<line x1="-1104.0" y1="437.6" x2="1904.0" y2="437.6" stroke="#f778ba" stroke-opacity="0.12" stroke-width="1.6" stroke-dasharray="4 6"/>
<line x1="-1104.0" y1="362.4" x2="1904.0" y2="362.4" stroke="#f778ba" stroke-opacity="0.12" stroke-width="1.6" stroke-dasharray="4 6"/>
<circle cx="400.0" cy="400.0" r="4" fill="#f0f6fc"/>
<circle cx="400.0" cy="400.0" r="18.8" fill="none" stroke="#f0f6fc" stroke-opacity="0.45" stroke-width="1.2" stroke-dasharray="3 3"/>
<line x1="623.4" y1="366.2" x2="585.8" y2="301.0" stroke="#8b949e" stroke-dasharray="5 4"/>
<line x1="461.1" y1="120.4" x2="500.2" y2="97.9" stroke="#8b949e" stroke-dasharray="5 4"/>
<line x1="703.1" y1="265.5" x2="638.0" y2="303.1" stroke="#8b949e" stroke-dasharray="5 4"/>
<line x1="708.8" y1="575.3" x2="671.2" y2="510.2" stroke="#8b949e" stroke-dasharray="5 4"/>
<line x1="601.7" y1="679.6" x2="562.6" y2="702.2" stroke="#8b949e" stroke-dasharray="5 4"/>
<line x1="415.8" y1="702.2" x2="415.8" y2="657.1" stroke="#8b949e" stroke-dasharray="5 4"/>
<line x1="664.0" y1="433.4" x2="618.8" y2="433.4" stroke="#8b949e" stroke-dasharray="5 4"/>
<line x1="402.6" y1="600.3" x2="363.5" y2="622.9" stroke="#8b949e" stroke-dasharray="5 4"/>
<polygon points="437.9,386.9 644.2,386.9 644.2,345.4 437.9,345.4" fill="#58a6ff" fill-opacity="0.12" stroke="#58a6ff" stroke-opacity="0.50" stroke-dasharray="0"/>
<polygon points="447.3,377.5 634.8,377.5 634.8,354.8 447.3,354.8" fill="#58a6ff" fill-opacity="0.32" stroke="#58a6ff" stroke-opacity="1.0" stroke-width="1.4" stroke-dasharray="0"/>
<polyline points="458.6,366.2 623.4,366.2" fill="none" stroke="#58a6ff" stroke-opacity="1.0" stroke-width="2.7"/>
<circle cx="458.6" cy="366.2" r="3" fill="#f0f6fc"/>
<circle cx="623.4" cy="366.2" r="4" fill="#58a6ff" stroke="#f0f6fc"/>
<text x="462.6" y="362.2" font-size="10">F1/p3</text>
<polygon points="593.9,331.3 512.5,284.2 463.0,214.2 434.1,104.7 476.9,93.4 503.7,195.2 543.0,250.7 616.1,292.9" fill="#56d364" fill-opacity="0.12" stroke="#56d364" stroke-opacity="0.50" stroke-dasharray="0"/>
<polygon points="590.5,318.4 518.9,277.1 471.6,210.2 445.6,111.4 470.2,104.9 495.1,199.2 536.5,257.9 603.2,296.4" fill="#56d364" fill-opacity="0.32" stroke="#56d364" stroke-opacity="1.0" stroke-width="1.4" stroke-dasharray="0"/>
<polyline points="585.8,301.0 527.7,267.5 483.3,204.7 461.1,120.4" fill="none" stroke="#56d364" stroke-opacity="1.0" stroke-width="2.7"/>
<circle cx="585.8" cy="301.0" r="3" fill="#f0f6fc"/>
<circle cx="461.1" cy="120.4" r="4" fill="#56d364" stroke="#f0f6fc"/>
<text x="589.8" y="297.0" font-size="10">F2/p4</text>
<polygon points="492.0,67.1 594.8,126.5 641.4,199.1 734.2,258.8 709.8,296.6 608.8,231.6 562.8,160.0 469.5,106.1" fill="#56d364" fill-opacity="0.12" stroke="#56d364" stroke-opacity="0.50" stroke-dasharray="0"/>
<polygon points="495.4,80.0 588.1,133.5 634.6,205.9 721.2,261.6 707.0,283.6 615.6,224.8 569.5,153.0 482.3,102.6" fill="#56d364" fill-opacity="0.32" stroke="#56d364" stroke-opacity="1.0" stroke-width="1.4" stroke-dasharray="0"/>
<polyline points="500.2,97.9 578.8,143.2 625.1,215.3 703.1,265.5" fill="none" stroke="#56d364" stroke-opacity="1.0" stroke-width="2.7"/>
<circle cx="500.2" cy="97.9" r="3" fill="#f0f6fc"/>
<circle cx="703.1" cy="265.5" r="4" fill="#56d364" stroke="#f0f6fc"/>
<text x="504.2" y="93.9" font-size="10">F3/p4</text>
<polygon points="605.6,294.5 683.3,429.1 685.4,599.3 732.8,598.7 730.6,416.2 646.6,270.8" fill="#56d364" fill-opacity="0.12" stroke="#56d364" stroke-opacity="0.50" stroke-dasharray="0"/>
<polygon points="618.4,297.9 692.7,426.6 694.7,589.8 723.3,589.4 721.2,418.7 643.2,283.6" fill="#56d364" fill-opacity="0.32" stroke="#56d364" stroke-opacity="1.0" stroke-width="1.4" stroke-dasharray="0"/>
<polyline points="638.0,303.1 707.0,422.6 708.8,575.3" fill="none" stroke="#56d364" stroke-opacity="1.0" stroke-width="2.7"/>
<circle cx="638.0" cy="303.1" r="3" fill="#f0f6fc"/>
<circle cx="708.8" cy="575.3" r="4" fill="#56d364" stroke="#f0f6fc"/>
<text x="642.0" y="299.1" font-size="10">F4/p4</text>
<polygon points="663.5,481.5 608.7,576.3 575.8,694.2 616.2,705.5 647.8,592.7 699.9,502.5" fill="#58a6ff" fill-opacity="0.12" stroke="#58a6ff" stroke-opacity="0.50" stroke-dasharray="0"/>
<polygon points="666.9,494.3 617.5,580.0 587.4,687.7 609.7,693.9 639.0,589.1 687.1,505.9" fill="#58a6ff" fill-opacity="0.32" stroke="#58a6ff" stroke-opacity="1.0" stroke-width="1.4" stroke-dasharray="0"/>
<polyline points="671.2,510.2 628.3,584.5 601.7,679.6" fill="none" stroke="#58a6ff" stroke-opacity="1.0" stroke-width="2.7"/>
<circle cx="671.2" cy="510.2" r="3" fill="#f0f6fc"/>
<circle cx="601.7" cy="679.6" r="4" fill="#58a6ff" stroke="#f0f6fc"/>
<text x="675.2" y="506.2" font-size="10">F5/p3</text>
<polygon points="583.4,723.0 395.0,723.0 395.0,681.4 583.4,681.4" fill="#58a6ff" fill-opacity="0.12" stroke="#58a6ff" stroke-opacity="0.50" stroke-dasharray="0"/>
<polygon points="574.0,713.6 404.4,713.6 404.4,690.8 574.0,690.8" fill="#58a6ff" fill-opacity="0.32" stroke="#58a6ff" stroke-opacity="1.0" stroke-width="1.4" stroke-dasharray="0"/>
<polyline points="562.6,702.2 415.8,702.2" fill="none" stroke="#58a6ff" stroke-opacity="1.0" stroke-width="2.7"/>
<circle cx="562.6" cy="702.2" r="3" fill="#f0f6fc"/>
<circle cx="415.8" cy="702.2" r="4" fill="#58a6ff" stroke="#f0f6fc"/>
<text x="566.6" y="698.2" font-size="10">F6/p3</text>
<polygon points="383.3,648.4 550.1,552.1 658.4,400.3 697.1,427.9 582.8,588.1 407.1,689.5" fill="#f2cc60" fill-opacity="0.12" stroke="#f2cc60" stroke-opacity="0.50" stroke-dasharray="0"/>
<polygon points="396.2,651.8 556.5,559.2 660.6,413.4 684.0,430.1 576.3,581.0 410.5,676.7" fill="#f2cc60" fill-opacity="0.32" stroke="#f2cc60" stroke-opacity="1.0" stroke-width="1.4" stroke-dasharray="0"/>
<polyline points="415.8,657.1 566.4,570.1 664.0,433.4" fill="none" stroke="#f2cc60" stroke-opacity="1.0" stroke-width="2.7"/>
<circle cx="415.8" cy="657.1" r="3" fill="#f0f6fc"/>
<circle cx="664.0" cy="433.4" r="4" fill="#f2cc60" stroke="#f0f6fc"/>
<text x="419.8" y="653.1" font-size="10">F7/p5</text>
<polygon points="646.9,440.9 512.9,518.2 402.7,629.3 373.5,600.4 487.7,485.4 626.4,405.4" fill="#56d364" fill-opacity="0.12" stroke="#56d364" stroke-opacity="0.50" stroke-dasharray="0"/>
<polygon points="634.0,437.5 507.1,510.7 402.6,616.0 386.8,600.4 493.5,493.0 622.9,418.2" fill="#56d364" fill-opacity="0.32" stroke="#56d364" stroke-opacity="1.0" stroke-width="1.4" stroke-dasharray="0"/>
<polyline points="618.8,433.4 500.3,501.8 402.6,600.3" fill="none" stroke="#56d364" stroke-opacity="1.0" stroke-width="2.7"/>
<circle cx="618.8" cy="433.4" r="3" fill="#f0f6fc"/>
<circle cx="402.6" cy="600.3" r="4" fill="#56d364" stroke="#f0f6fc"/>
<text x="622.8" y="429.4" font-size="10">F8/p4</text>
<polygon points="386.9,646.2 386.9,320.7 340.1,320.7 340.1,646.2" fill="#56d364" fill-opacity="0.12" stroke="#56d364" stroke-opacity="0.50" stroke-dasharray="0"/>
<polygon points="377.5,636.8 377.5,330.1 349.5,330.1 349.5,636.8" fill="#56d364" fill-opacity="0.32" stroke="#56d364" stroke-opacity="1.0" stroke-width="1.4" stroke-dasharray="0"/>
<polyline points="363.5,622.9 363.5,344.1" fill="none" stroke="#56d364" stroke-opacity="1.0" stroke-width="2.7"/>
<circle cx="363.5" cy="622.9" r="3" fill="#f0f6fc"/>
<circle cx="363.5" cy="344.1" r="4" fill="#56d364" stroke="#f0f6fc"/>
<text x="367.5" y="618.9" font-size="10">F9/p4</text>
<line x1="252.8" y1="634.5" x2="222.7" y2="686.6" stroke="#8b949e" stroke-dasharray="5 4"/>
<line x1="85.2" y1="448.5" x2="150.4" y2="486.1" stroke="#8b949e" stroke-dasharray="5 4"/>
<line x1="81.9" y1="212.5" x2="42.8" y2="235.1" stroke="#8b949e" stroke-dasharray="5 4"/>
<line x1="42.8" y1="562.3" x2="81.9" y2="539.7" stroke="#8b949e" stroke-dasharray="5 4"/>
<line x1="178.5" y1="707.1" x2="113.4" y2="744.7" stroke="#8b949e" stroke-dasharray="5 4"/>
<polygon points="293.0,375.7 293.0,514.7 219.7,643.6 261.9,667.6 341.5,527.5 341.5,375.7" fill="#56d364" fill-opacity="0.09" stroke="#56d364" stroke-opacity="0.36" stroke-dasharray="6 3"/>
<polygon points="302.4,385.1 302.4,517.2 232.6,640.1 258.4,654.8 332.1,525.0 332.1,385.1" fill="#56d364" fill-opacity="0.23" stroke="#56d364" stroke-opacity="0.72" stroke-width="1.4" stroke-dasharray="6 3"/>
<polyline points="317.3,400.0 317.3,521.1 252.8,634.5" fill="none" stroke="#56d364" stroke-opacity="0.72" stroke-width="2.7"/>
<circle cx="317.3" cy="400.0" r="3" fill="#f0f6fc"/>
<circle cx="252.8" cy="634.5" r="4" fill="#56d364" stroke="#f0f6fc"/>
<text x="321.3" y="396.0" font-size="10">B10/p4</text>
<polygon points="255.3,695.4 94.0,415.9 52.7,439.7 214.0,719.2" fill="#56d364" fill-opacity="0.09" stroke="#56d364" stroke-opacity="0.36" stroke-dasharray="6 3"/>
<polygon points="242.4,691.9 90.5,428.8 65.5,443.2 217.5,706.3" fill="#56d364" fill-opacity="0.23" stroke="#56d364" stroke-opacity="0.72" stroke-width="1.4" stroke-dasharray="6 3"/>
<polyline points="222.7,686.6 85.2,448.5" fill="none" stroke="#56d364" stroke-opacity="0.72" stroke-width="2.7"/>
<circle cx="222.7" cy="686.6" r="3" fill="#f0f6fc"/>
<circle cx="85.2" cy="448.5" r="4" fill="#56d364" stroke="#f0f6fc"/>
<text x="226.7" y="682.6" font-size="10">B11/p4</text>
<polygon points="142.0,517.3 56.3,368.9 59.4,189.3 105.2,190.1 102.3,357.0 181.6,494.4" fill="#56d364" fill-opacity="0.09" stroke="#56d364" stroke-opacity="0.36" stroke-dasharray="6 3"/>
<polygon points="145.4,504.5 65.7,366.4 68.6,198.8 95.6,199.3 92.8,359.4 168.8,491.0" fill="#56d364" fill-opacity="0.23" stroke="#56d364" stroke-opacity="0.72" stroke-width="1.4" stroke-dasharray="6 3"/>
<polyline points="150.4,486.1 79.3,362.9 81.9,212.5" fill="none" stroke="#56d364" stroke-opacity="0.72" stroke-width="2.7"/>
<circle cx="150.4" cy="486.1" r="3" fill="#f0f6fc"/>
<circle cx="81.9" cy="212.5" r="4" fill="#56d364" stroke="#f0f6fc"/>
<text x="154.4" y="482.1" font-size="10">B12/p4</text>
<polygon points="65.3,212.6 65.3,584.8 20.3,584.8 20.3,212.6" fill="#56d364" fill-opacity="0.09" stroke="#56d364" stroke-opacity="0.36" stroke-dasharray="6 3"/>
<polygon points="55.9,222.0 55.9,575.4 29.7,575.4 29.7,222.0" fill="#56d364" fill-opacity="0.23" stroke="#56d364" stroke-opacity="0.72" stroke-width="1.4" stroke-dasharray="6 3"/>
<polyline points="42.8,235.1 42.8,562.3" fill="none" stroke="#56d364" stroke-opacity="0.72" stroke-width="2.7"/>
<circle cx="42.8" cy="235.1" r="3" fill="#f0f6fc"/>
<circle cx="42.8" cy="562.3" r="4" fill="#56d364" stroke="#f0f6fc"/>
<text x="46.8" y="231.1" font-size="10">B13/p4</text>
<polygon points="90.2,508.8 209.4,715.3 170.2,738.0 50.9,531.4" fill="#58a6ff" fill-opacity="0.09" stroke="#58a6ff" stroke-opacity="0.36" stroke-dasharray="6 3"/>
<polygon points="86.7,521.6 196.6,711.9 173.6,725.2 63.8,534.9" fill="#58a6ff" fill-opacity="0.23" stroke="#58a6ff" stroke-opacity="0.72" stroke-width="1.4" stroke-dasharray="6 3"/>
<polyline points="81.9,539.7 178.5,707.1" fill="none" stroke="#58a6ff" stroke-opacity="0.72" stroke-width="2.7"/>
<circle cx="81.9" cy="539.7" r="3" fill="#f0f6fc"/>
<circle cx="178.5" cy="707.1" r="4" fill="#58a6ff" stroke="#f0f6fc"/>
<text x="85.9" y="535.7" font-size="10">B14/p3</text>
<polygon points="89.6,720.9 391.3,720.9 391.3,768.4 89.6,768.4" fill="#56d364" fill-opacity="0.09" stroke="#56d364" stroke-opacity="0.36" stroke-dasharray="6 3"/>
<polygon points="99.0,730.3 381.9,730.3 381.9,759.0 99.0,759.0" fill="#56d364" fill-opacity="0.23" stroke="#56d364" stroke-opacity="0.72" stroke-width="1.4" stroke-dasharray="6 3"/>
<polyline points="113.4,744.7 367.5,744.7" fill="none" stroke="#56d364" stroke-opacity="0.72" stroke-width="2.7"/>
<circle cx="113.4" cy="744.7" r="3" fill="#f0f6fc"/>
<circle cx="367.5" cy="744.7" r="4" fill="#56d364" stroke="#f0f6fc"/>
<text x="117.4" y="740.7" font-size="10">B15/p4</text>
<text x="24" y="830" font-size="14">ÉCHEC · seed 6 · front 9/9 · back 6/9</text>
<text x="24" y="852" font-size="11">violations ['back_return', 'back_incomplete']</text>
<text x="24" y="890" font-size="11">demi-plan theta=0° bande=40 · hors-camp=14 · paires front-back collées=1</text>
<text x="24" y="870" font-size="11">rough partagé : cœur plein, rough translucide, pile &gt; 3 en rose · F=plein, B=tirets</text>
</svg>
