<svg xmlns="http://www.w3.org/2000/svg" width="800" height="892">
<rect width="100%" height="100%" fill="#0d1117"/>
<rect x="24" y="24" width="752.0" height="752.0" fill="#161b22" stroke="#8b949e"/>
<style>text{font-family:monospace;fill:#c9d1d9}</style>
<circle cx="400.0" cy="400.0" r="18.8" fill="none" stroke="#f0f6fc" stroke-opacity="0.45" stroke-dasharray="3 3"/>
<line x1="400.0" y1="400.0" x2="371.9" y2="384.9" stroke="#8b949e" stroke-width="1.2" stroke-dasharray="5 4"/>
<line x1="287.6" y1="310.7" x2="278.0" y2="284.2" stroke="#8b949e" stroke-width="1.2" stroke-dasharray="5 4"/>
<line x1="183.4" y1="85.2" x2="134.2" y2="85.4" stroke="#8b949e" stroke-width="1.2" stroke-dasharray="5 4"/>
<line x1="120.8" y1="277.5" x2="130.5" y2="304.0" stroke="#8b949e" stroke-width="1.2" stroke-dasharray="5 4"/>
<line x1="212.1" y1="526.4" x2="190.1" y2="634.1" stroke="#8b949e" stroke-width="1.2" stroke-dasharray="5 4"/>
<line x1="115.8" y1="421.1" x2="40.1" y2="340.4" stroke="#8b949e" stroke-width="1.2" stroke-dasharray="5 4"/>
<line x1="158.8" y1="681.3" x2="253.2" y2="738.3" stroke="#8b949e" stroke-width="1.2" stroke-dasharray="5 4"/>
<line x1="230.0" y1="444.2" x2="220.3" y2="417.7" stroke="#8b949e" stroke-width="1.2" stroke-dasharray="5 4"/>
<line x1="142.6" y1="205.9" x2="216.3" y2="246.1" stroke="#8b949e" stroke-width="1.2" stroke-dasharray="5 4"/>
<line x1="297.1" y1="429.4" x2="400.0" y2="400.0" stroke="#8b949e" stroke-width="1.2" stroke-dasharray="5 4"/>
<line x1="400.0" y1="400.0" x2="456.0" y2="435.7" stroke="#8b949e" stroke-width="1.2" stroke-dasharray="5 4"/>
<line x1="435.4" y1="633.0" x2="484.9" y2="730.6" stroke="#8b949e" stroke-width="1.2" stroke-dasharray="5 4"/>
<line x1="596.4" y1="578.4" x2="601.0" y2="550.6" stroke="#8b949e" stroke-width="1.2" stroke-dasharray="5 4"/>
<line x1="644.0" y1="289.0" x2="710.7" y2="198.3" stroke="#8b949e" stroke-width="1.2" stroke-dasharray="5 4"/>
<line x1="675.3" y1="421.1" x2="670.9" y2="449.0" stroke="#8b949e" stroke-width="1.2" stroke-dasharray="5 4"/>
<line x1="635.6" y1="671.8" x2="691.0" y2="610.1" stroke="#8b949e" stroke-width="1.2" stroke-dasharray="5 4"/>
<line x1="760.0" y1="175.6" x2="711.3" y2="78.3" stroke="#8b949e" stroke-width="1.2" stroke-dasharray="5 4"/>
<line x1="589.3" y1="343.2" x2="584.8" y2="371.0" stroke="#8b949e" stroke-width="1.2" stroke-dasharray="5 4"/>
<line x1="548.2" y1="593.7" x2="478.4" y2="649.5" stroke="#8b949e" stroke-width="1.2" stroke-dasharray="5 4"/>
<line x1="510.0" y1="449.1" x2="400.0" y2="400.0" stroke="#8b949e" stroke-width="1.2" stroke-dasharray="5 4"/>
<polygon points="389.5,364.9 330.1,368.7 298.3,286.4 263.2,300.0 305.0,407.9 391.9,402.5" fill="#58a6ff" fill-opacity="0.12" stroke="#58a6ff" stroke-opacity="0.45" stroke-dasharray="5 3"/>
<polygon points="380.7,374.9 323.8,378.5 292.9,298.6 275.4,305.3 311.3,398.1 381.9,393.7" fill="#58a6ff" fill-opacity="0.32" stroke="#58a6ff" stroke-width="1.3"/>
<polyline points="371.9,384.9 317.6,388.3 287.6,310.7" fill="none" stroke="#58a6ff" stroke-width="2.7"/>
<circle cx="371.9" cy="384.9" r="3" fill="#f0f6fc"/>
<circle cx="287.6" cy="310.7" r="4" fill="#58a6ff" stroke="#f0f6fc"/>
<text x="375.9" y="380.9" font-size="10">H1/p3</text>
<polygon points="380.7,374.9 323.8,378.5 292.9,298.6 275.4,305.3 311.3,398.1 381.9,393.7" fill="none" stroke="#ff2d7a" stroke-width="2.5"/>
<polygon points="303.3,296.0 235.9,109.5 183.3,57.3 155.5,85.3 201.8,131.3 266.1,309.5" fill="#56d364" fill-opacity="0.12" stroke="#56d364" stroke-opacity="0.45" stroke-dasharray="5 3"/>
<polygon points="291.2,290.4 227.8,114.7 183.3,70.6 168.8,85.3 209.9,126.1 271.8,297.4" fill="#56d364" fill-opacity="0.32" stroke="#56d364" stroke-width="1.3"/>
<polyline points="278.0,284.2 218.8,120.4 183.4,85.2" fill="none" stroke="#56d364" stroke-width="2.7"/>
<circle cx="278.0" cy="284.2" r="3" fill="#f0f6fc"/>
<circle cx="183.4" cy="85.2" r="4" fill="#56d364" stroke="#f0f6fc"/>
<text x="282.0" y="280.2" font-size="10">H2/p4</text>
<polygon points="291.2,290.4 227.8,114.7 183.3,70.6 168.8,85.3 209.9,126.1 271.8,297.4" fill="none" stroke="#ff2d7a" stroke-width="2.5"/>
<polygon points="130.9,57.6 56.8,151.3 108.5,302.6 145.9,289.8 101.2,158.9 161.9,82.1" fill="#56d364" fill-opacity="0.12" stroke="#56d364" stroke-opacity="0.45" stroke-dasharray="5 3"/>
<polygon points="132.5,70.8 67.4,153.1 114.4,290.6 133.9,283.9 90.6,157.1 148.7,83.7" fill="#56d364" fill-opacity="0.32" stroke="#56d364" stroke-width="1.3"/>
<polyline points="134.2,85.4 79.0,155.1 120.8,277.5" fill="none" stroke="#56d364" stroke-width="2.7"/>
<circle cx="134.2" cy="85.4" r="3" fill="#f0f6fc"/>
<circle cx="120.8" cy="277.5" r="4" fill="#56d364" stroke="#f0f6fc"/>
<text x="138.2" y="81.4" font-size="10">H3/p4</text>
<polygon points="132.5,70.8 67.4,153.1 114.4,290.6 133.9,283.9 90.6,157.1 148.7,83.7" fill="none" stroke="#ff2d7a" stroke-width="2.5"/>
<polygon points="105.2,292.2 200.3,551.7 237.4,538.1 142.3,278.6" fill="#56d364" fill-opacity="0.12" stroke="#56d364" stroke-opacity="0.45" stroke-dasharray="5 3"/>
<polygon points="117.2,297.8 205.9,539.6 225.3,532.5 136.7,290.7" fill="#56d364" fill-opacity="0.32" stroke="#56d364" stroke-width="1.3"/>
<polyline points="130.5,304.0 212.1,526.4" fill="none" stroke="#56d364" stroke-width="2.7"/>
<circle cx="130.5" cy="304.0" r="3" fill="#f0f6fc"/>
<circle cx="212.1" cy="526.4" r="4" fill="#56d364" stroke="#f0f6fc"/>
<text x="134.5" y="300.0" font-size="10">H4/p4</text>
<polygon points="117.2,297.8 205.9,539.6 225.3,532.5 136.7,290.7" fill="none" stroke="#ff2d7a" stroke-width="2.5"/>
<polygon points="215.3,646.3 128.0,396.0 90.7,409.0 178.0,659.3" fill="#56d364" fill-opacity="0.12" stroke="#56d364" stroke-opacity="0.45" stroke-dasharray="5 3"/>
<polygon points="203.3,640.5 122.2,408.0 102.6,414.8 183.8,647.3" fill="#56d364" fill-opacity="0.32" stroke="#56d364" stroke-width="1.3"/>
<polyline points="190.1,634.1 115.8,421.1" fill="none" stroke="#56d364" stroke-width="2.7"/>
<circle cx="190.1" cy="634.1" r="3" fill="#f0f6fc"/>
<circle cx="115.8" cy="421.1" r="4" fill="#56d364" stroke="#f0f6fc"/>
<text x="194.1" y="630.1" font-size="10">H5/p4</text>
<polygon points="203.3,640.5 122.2,408.0 102.6,414.8 183.8,647.3" fill="none" stroke="#ff2d7a" stroke-width="2.5"/>
<polygon points="13.8,327.7 146.0,707.6 185.1,694.0 52.8,314.1" fill="#f2cc60" fill-opacity="0.12" stroke="#f2cc60" stroke-opacity="0.45" stroke-dasharray="5 3"/>
<polygon points="25.7,333.5 151.8,695.6 173.1,688.2 47.0,326.0" fill="#f2cc60" fill-opacity="0.32" stroke="#f2cc60" stroke-width="1.3"/>
<polyline points="40.1,340.4 158.8,681.3" fill="none" stroke="#f2cc60" stroke-width="2.7"/>
<circle cx="40.1" cy="340.4" r="3" fill="#f0f6fc"/>
<circle cx="158.8" cy="681.3" r="4" fill="#f2cc60" stroke="#f0f6fc"/>
<text x="44.1" y="336.4" font-size="10">H6/p5</text>
<polygon points="25.7,333.5 151.8,695.6 173.1,688.2 47.0,326.0" fill="none" stroke="#ff2d7a" stroke-width="2.5"/>
<polygon points="256.3,767.4 331.7,674.0 242.7,417.9 203.7,431.5 285.1,665.9 224.2,741.4" fill="#f2cc60" fill-opacity="0.12" stroke="#f2cc60" stroke-opacity="0.45" stroke-dasharray="5 3"/>
<polygon points="254.9,754.2 321.1,672.2 237.0,429.9 215.6,437.3 295.7,667.8 237.4,740.0" fill="#f2cc60" fill-opacity="0.32" stroke="#f2cc60" stroke-width="1.3"/>
<polyline points="253.2,738.3 308.4,670.0 230.0,444.2" fill="none" stroke="#f2cc60" stroke-width="2.7"/>
<circle cx="253.2" cy="738.3" r="3" fill="#f0f6fc"/>
<circle cx="230.0" cy="444.2" r="4" fill="#f2cc60" stroke="#f0f6fc"/>
<text x="257.2" y="734.3" font-size="10">H7/p5</text>
<polygon points="254.9,754.2 321.1,672.2 237.0,429.9 215.6,437.3 295.7,667.8 237.4,740.0" fill="none" stroke="#ff2d7a" stroke-width="2.5"/>
<polygon points="245.6,429.5 154.4,180.6 117.3,194.2 208.5,443.1" fill="#56d364" fill-opacity="0.12" stroke="#56d364" stroke-opacity="0.45" stroke-dasharray="5 3"/>
<polygon points="233.6,423.9 148.8,192.7 129.4,199.8 214.1,431.0" fill="#56d364" fill-opacity="0.32" stroke="#56d364" stroke-width="1.3"/>
<polyline points="220.3,417.7 142.6,205.9" fill="none" stroke="#56d364" stroke-width="2.7"/>
<circle cx="220.3" cy="417.7" r="3" fill="#f0f6fc"/>
<circle cx="142.6" cy="205.9" r="4" fill="#56d364" stroke="#f0f6fc"/>
<text x="224.3" y="413.7" font-size="10">H8/p4</text>
<polygon points="233.6,423.9 148.8,192.7 129.4,199.8 214.1,431.0" fill="none" stroke="#ff2d7a" stroke-width="2.5"/>
<polygon points="192.2,234.8 255.0,408.7 294.8,455.9 323.5,431.7 288.1,389.6 227.6,222.0" fill="#58a6ff" fill-opacity="0.12" stroke="#58a6ff" stroke-opacity="0.45" stroke-dasharray="5 3"/>
<polygon points="204.2,240.5 263.2,403.9 295.9,442.7 310.3,430.6 279.8,394.3 221.9,234.1" fill="#58a6ff" fill-opacity="0.32" stroke="#58a6ff" stroke-width="1.3"/>
<polyline points="216.3,246.1 271.5,399.1 297.1,429.4" fill="none" stroke="#58a6ff" stroke-width="2.7"/>
<circle cx="216.3" cy="246.1" r="3" fill="#f0f6fc"/>
<circle cx="297.1" cy="429.4" r="4" fill="#58a6ff" stroke="#f0f6fc"/>
<text x="220.3" y="242.1" font-size="10">H9/p3</text>
<polygon points="204.2,240.5 263.2,403.9 295.9,442.7 310.3,430.6 279.8,394.3 221.9,234.1" fill="none" stroke="#ff2d7a" stroke-width="2.5"/>
<polygon points="431.3,425.7 445.4,458.8 413.8,648.5 450.9,654.7 484.3,454.2 465.9,411.0" fill="#58a6ff" fill-opacity="0.12" stroke="#58a6ff" stroke-opacity="0.45" stroke-dasharray="5 3"/>
<polygon points="443.6,430.7 455.1,457.7 424.6,640.8 443.1,643.9 474.6,455.4 460.9,423.3" fill="#58a6ff" fill-opacity="0.32" stroke="#58a6ff" stroke-width="1.3"/>
<polyline points="456.0,435.7 464.8,456.5 435.4,633.0" fill="none" stroke="#58a6ff" stroke-width="2.7"/>
<circle cx="456.0" cy="435.7" r="3" fill="#f0f6fc"/>
<circle cx="435.4" cy="633.0" r="4" fill="#58a6ff" stroke="#f0f6fc"/>
<text x="460.0" y="431.7" font-size="10">H10/p3</text>
<polygon points="443.6,430.7 455.1,457.7 424.6,640.8 443.1,643.9 474.6,455.4 460.9,423.3" fill="none" stroke="#ff2d7a" stroke-width="2.5"/>
<polygon points="472.8,755.8 590.8,714.5 619.5,562.7 580.7,555.4 556.2,684.8 459.8,718.5" fill="#56d364" fill-opacity="0.12" stroke="#56d364" stroke-opacity="0.45" stroke-dasharray="5 3"/>
<polygon points="478.6,743.8 582.5,707.4 608.5,570.2 588.2,566.4 564.4,691.8 471.8,724.3" fill="#56d364" fill-opacity="0.32" stroke="#56d364" stroke-width="1.3"/>
<polyline points="484.9,730.6 573.5,699.6 596.4,578.4" fill="none" stroke="#56d364" stroke-width="2.7"/>
<circle cx="484.9" cy="730.6" r="3" fill="#f0f6fc"/>
<circle cx="596.4" cy="578.4" r="4" fill="#56d364" stroke="#f0f6fc"/>
<text x="488.9" y="726.6" font-size="10">H11/p4</text>
<polygon points="478.6,743.8 582.5,707.4 608.5,570.2 588.2,566.4 564.4,691.8 471.8,724.3" fill="none" stroke="#ff2d7a" stroke-width="2.5"/>
<polygon points="617.3,573.3 666.6,272.8 627.7,266.4 578.3,566.9" fill="#56d364" fill-opacity="0.12" stroke="#56d364" stroke-opacity="0.45" stroke-dasharray="5 3"/>
<polygon points="609.5,562.5 655.8,280.5 635.4,277.2 589.1,559.1" fill="#56d364" fill-opacity="0.32" stroke="#56d364" stroke-width="1.3"/>
<polyline points="601.0,550.6 644.0,289.0" fill="none" stroke="#56d364" stroke-width="2.7"/>
<circle cx="601.0" cy="550.6" r="3" fill="#f0f6fc"/>
<circle cx="644.0" cy="289.0" r="4" fill="#56d364" stroke="#f0f6fc"/>
<text x="605.0" y="546.6" font-size="10">H12/p4</text>
<polygon points="609.5,562.5 655.8,280.5 635.4,277.2 589.1,559.1" fill="none" stroke="#ff2d7a" stroke-width="2.5"/>
<polygon points="694.3,175.7 652.8,437.5 691.7,443.7 733.3,181.9" fill="#56d364" fill-opacity="0.12" stroke="#56d364" stroke-opacity="0.45" stroke-dasharray="5 3"/>
<polygon points="702.1,186.5 663.5,429.7 683.9,433.0 722.5,189.7" fill="#56d364" fill-opacity="0.32" stroke="#56d364" stroke-width="1.3"/>
<polyline points="710.7,198.3 675.3,421.1" fill="none" stroke="#56d364" stroke-width="2.7"/>
<circle cx="710.7" cy="198.3" r="3" fill="#f0f6fc"/>
<circle cx="675.3" cy="421.1" r="4" fill="#56d364" stroke="#f0f6fc"/>
<text x="714.7" y="194.3" font-size="10">H13/p4</text>
<polygon points="702.1,186.5 663.5,429.7 683.9,433.0 722.5,189.7" fill="none" stroke="#ff2d7a" stroke-width="2.5"/>
<polygon points="654.5,426.4 613.0,688.2 652.0,694.4 693.5,432.6" fill="#56d364" fill-opacity="0.12" stroke="#56d364" stroke-opacity="0.45" stroke-dasharray="5 3"/>
<polygon points="662.3,437.2 623.7,680.4 644.2,683.6 682.8,440.4" fill="#56d364" fill-opacity="0.32" stroke="#56d364" stroke-width="1.3"/>
<polyline points="670.9,449.0 635.6,671.8" fill="none" stroke="#56d364" stroke-width="2.7"/>
<circle cx="670.9" cy="449.0" r="3" fill="#f0f6fc"/>
<circle cx="635.6" cy="671.8" r="4" fill="#56d364" stroke="#f0f6fc"/>
<text x="674.9" y="445.0" font-size="10">H14/p4</text>
<polygon points="662.3,437.2 623.7,680.4 644.2,683.6 682.8,440.4" fill="none" stroke="#ff2d7a" stroke-width="2.5"/>
<polygon points="708.2,633.7 783.7,158.4 742.8,151.9 667.4,627.2" fill="#f2cc60" fill-opacity="0.12" stroke="#f2cc60" stroke-opacity="0.45" stroke-dasharray="5 3"/>
<polygon points="700.4,623.0 772.9,166.2 750.6,162.7 678.1,619.4" fill="#f2cc60" fill-opacity="0.32" stroke="#f2cc60" stroke-width="1.3"/>
<polyline points="691.0,610.1 760.0,175.6" fill="none" stroke="#f2cc60" stroke-width="2.7"/>
<circle cx="691.0" cy="610.1" r="3" fill="#f0f6fc"/>
<circle cx="760.0" cy="175.6" r="4" fill="#f2cc60" stroke="#f0f6fc"/>
<text x="695.0" y="606.1" font-size="10">H15/p5</text>
<polygon points="700.4,623.0 772.9,166.2 750.6,162.7 678.1,619.4" fill="none" stroke="#ff2d7a" stroke-width="2.5"/>
<polygon points="723.8,51.8 612.7,91.7 565.4,360.0 606.1,367.2 649.3,122.5 737.8,90.8" fill="#f2cc60" fill-opacity="0.12" stroke="#f2cc60" stroke-opacity="0.45" stroke-dasharray="5 3"/>
<polygon points="718.1,63.9 621.0,98.7 576.3,352.4 598.5,356.3 641.0,115.5 725.7,85.1" fill="#f2cc60" fill-opacity="0.32" stroke="#f2cc60" stroke-width="1.3"/>
<polyline points="711.3,78.3 631.0,107.1 589.3,343.2" fill="none" stroke="#f2cc60" stroke-width="2.7"/>
<circle cx="711.3" cy="78.3" r="3" fill="#f0f6fc"/>
<circle cx="589.3" cy="343.2" r="4" fill="#f2cc60" stroke="#f0f6fc"/>
<text x="715.3" y="74.3" font-size="10">H16/p5</text>
<polygon points="718.1,63.9 621.0,98.7 576.3,352.4 598.5,356.3 641.0,115.5 725.7,85.1" fill="none" stroke="#ff2d7a" stroke-width="2.5"/>
<polygon points="568.5,348.4 525.5,609.9 564.5,616.3 607.4,354.8" fill="#56d364" fill-opacity="0.12" stroke="#56d364" stroke-opacity="0.45" stroke-dasharray="5 3"/>
<polygon points="576.2,359.2 536.3,602.2 556.7,605.5 596.6,362.5" fill="#56d364" fill-opacity="0.32" stroke="#56d364" stroke-width="1.3"/>
<polyline points="584.8,371.0 548.2,593.7" fill="none" stroke="#56d364" stroke-width="2.7"/>
<circle cx="584.8" cy="371.0" r="3" fill="#f0f6fc"/>
<circle cx="548.2" cy="593.7" r="4" fill="#56d364" stroke="#f0f6fc"/>
<text x="588.8" y="367.0" font-size="10">H17/p4</text>
<polygon points="576.2,359.2 536.3,602.2 556.7,605.5 596.6,362.5" fill="none" stroke="#ff2d7a" stroke-width="2.5"/>
<polygon points="494.1,671.0 531.5,433.4 494.4,427.6 456.9,665.1" fill="#58a6ff" fill-opacity="0.12" stroke="#58a6ff" stroke-opacity="0.45" stroke-dasharray="5 3"/>
<polygon points="486.2,660.2 520.8,441.2 502.2,438.3 467.7,657.3" fill="#58a6ff" fill-opacity="0.32" stroke="#58a6ff" stroke-width="1.3"/>
<polyline points="478.4,649.5 510.0,449.1" fill="none" stroke="#58a6ff" stroke-width="2.7"/>
<circle cx="478.4" cy="649.5" r="3" fill="#f0f6fc"/>
<circle cx="510.0" cy="449.1" r="4" fill="#58a6ff" stroke="#f0f6fc"/>
<text x="482.4" y="645.5" font-size="10">H18/p3</text>
<polygon points="486.2,660.2 520.8,441.2 502.2,438.3 467.7,657.3" fill="none" stroke="#ff2d7a" stroke-width="2.5"/>
<circle cx="400.0" cy="400.0" r="5" fill="#f0f6fc" stroke="#8b949e"/>
<text x="24" y="830" font-size="14">INVALIDE · seed 2 · violations 26</text>
<text x="24" y="852" font-size="10">length:9, bounds:1, fairway_gap:6, link_distance:9, link_blocked:1</text>
<text x="24" y="872" font-size="10">bleu=par3 · vert=par4 · jaune=par5 · rose=trou en violation</text>
</svg>
